<?xml version="1.0" standalone="no"?>
<!DOCTYPE svg PUBLIC "-//W3C//DTD SVG 1.1//EN" "http://www.w3.org/Graphics/SVG/1.1/DTD/svg11.dtd" >
<svg xmlns="http://www.w3.org/2000/svg" xmlns:xlink="http://www.w3.org/1999/xlink" version="1.1">
<metadata>
Created by FontForge 20161116 at Fri Apr 13 15:30:14 2007
 By Jimmy Wärting
The typeface was designed at ParaType (ParaGraph) in 1991 by Vladimir Yefimov. Based on Futura of the Bauer company, 1927 by Paul Renner. Futura is a registered trade mark of Neufville, SL. Condensed styles were added by in 1993 by Vladimir Yefimov and Alexander Tarbeev.
</metadata>
<defs>
<font id="FuturaFuturis-Regular" horiz-adv-x="552" >
  <font-face 
    font-family="FuturaFuturis"
    font-weight="400"
    font-stretch="normal"
    units-per-em="1000"
    panose-1="2 11 6 2 2 2 4 2 3 3"
    ascent="800"
    descent="-200"
    x-height="442"
    cap-height="700"
    bbox="-412 -302 1223 966"
    underline-thickness="50"
    underline-position="-100"
    stemh="100"
    stemv="108"
    unicode-range="U+0020-F6DC"
  />
<missing-glyph horiz-adv-x="233" 
 />
    <glyph glyph-name="fi" unicode="fi" horiz-adv-x="488" 
d="M279 350h-112v-350h-102v350h-35v92h35v121c0 38 0 75 28 116c39 56 104 69 153 69c102 0 138 -45 153 -69c22 -35 27 -63 27 -120v-31h-102v22c0 17 -3 49 -10 63c-9 18 -35 35 -68 35c-28 0 -56 -13 -68 -33c0 0 -1 -1 -1 -2c-3 -7 -10 -24 -10 -63v-108h112v-92z
M324 442h102v-442h-102v442z" />
    <glyph glyph-name="fl" unicode="fl" horiz-adv-x="488" 
d="M279 350h-112v-350h-102v350h-35v92h35v117c0 39 0 81 28 122c26 37 81 67 153 67c61 0 125 -20 155 -69c24 -40 25 -90 25 -120v-559h-102v548c0 23 -4 52 -13 68c-7 13 -26 32 -65 32c-32 0 -58 -14 -68 -31c-10 -16 -11 -51 -11 -69v-106h112v-92z" />
    <glyph glyph-name="afii10017.var.accented" unicode="&#x410;`" horiz-adv-x="688" 
d="M568 0l-74 170h-297l-77 -170h-116l348 740l332 -740h-116zM240 270h212l-104 236zM324 762l-50 40l146 148l90 -62z" />
    <glyph glyph-name="afii10022.var.accented" unicode="&#x415;`" horiz-adv-x="518" 
d="M466 700v-100h-278v-168h270v-100h-270v-232h278v-100h-386v700h386zM239 762l-50 40l146 148l90 -62z" />
    <glyph glyph-name="afii10026.var.accented" unicode="&#x418;`" horiz-adv-x="740" 
d="M552 0v472l-472 -502v730h108v-472l472 502v-730h-108zM350 762l-50 40l146 148l90 -62z" />
    <glyph glyph-name="afii10032.var.accented" unicode="&#x41e;`" horiz-adv-x="824" 
d="M412 714c209 0 364 -159 364 -365c0 -204 -154 -363 -364 -363s-364 159 -364 363c0 206 155 365 364 365zM412 86c148 0 252 109 252 263c0 155 -104 265 -252 265s-252 -110 -252 -265c0 -154 104 -263 252 -263zM392 762l-50 40l146 148l90 -62z" />
    <glyph glyph-name="afii10037.var.accented" unicode="&#x423;`" horiz-adv-x="598" 
d="M6 700h130l183 -363l161 363h112l-316 -700h-112l94 209zM279 762l-50 40l146 148l90 -62z" />
    <glyph glyph-name="afii10045.var.accented" unicode="&#x42b;`" horiz-adv-x="768" 
d="M80 0v700h108v-282h78c89 0 144 -28 176 -56c39 -34 66 -91 66 -153c0 -51 -19 -126 -87 -171c-52 -35 -108 -38 -153 -38h-188zM188 318v-218h74c27 0 138 0 138 107c0 32 -11 111 -136 111h-76zM580 700h108v-700h-108v700zM364 762l-50 40l146 148l90 -62z" />
    <glyph glyph-name="afii10047.var.accented" unicode="&#x42d;`" horiz-adv-x="648" 
d="M48 536v126c36 24 91 52 203 52c77 0 168 -18 245 -92c60 -58 104 -146 104 -271c0 -117 -40 -204 -104 -268c-46 -46 -126 -97 -248 -97c-108 0 -172 36 -200 53v126c76 -68 146 -79 192 -79c84 0 149 31 189 74c34 37 58 90 61 149h-348v100h345c-8 56 -33 105 -64 138
c-49 51 -112 67 -176 67c-42 0 -118 -8 -199 -78zM304 762l-50 40l146 148l90 -62z" />
    <glyph glyph-name="afii10048.var.accented" unicode="&#x42e;`" horiz-adv-x="1044" 
d="M188 422h108c15 98 65 160 90 187c39 42 120 105 256 105c206 0 354 -158 354 -365c0 -205 -148 -363 -354 -363c-161 0 -244 86 -274 123c-39 48 -74 121 -76 213h-104v-322h-108v700h108v-278zM642 86c142 0 242 111 242 264c0 154 -101 264 -242 264
s-242 -110 -242 -264c0 -153 100 -264 242 -264zM502 762l-50 40l146 148l90 -62z" />
    <glyph glyph-name="afii10049.var.accented" unicode="&#x42f;`" horiz-adv-x="557" 
d="M20 0l208 292c-35 4 -78 21 -108 47c-49 42 -60 99 -60 149c0 62 19 108 54 146c61 66 139 66 190 66h173v-700h-108v280h-25l-192 -280h-132zM369 600h-53c-48 0 -93 -5 -119 -32c-18 -19 -29 -55 -29 -80c0 -34 13 -66 36 -84c13 -10 40 -24 106 -24h59v220zM258 762
l-50 40l146 148l90 -62z" />
    <glyph glyph-name="afii10065.var.accented" unicode="&#x430;`" 
d="M388 442h102v-442h-102v46c-18 -21 -58 -60 -134 -60c-135 0 -214 116 -214 235s76 233 215 233c33 0 91 -7 133 -64v52zM270 362c-75 0 -124 -64 -124 -143c0 -75 45 -141 124 -141c78 0 124 61 124 142c0 95 -60 142 -124 142zM352 708l94 -48l-164 -152l-56 36z" />
    <glyph glyph-name="afii10070.var.accented" unicode="&#x435;`" horiz-adv-x="506" 
d="M380 163l86 -48c-14 -26 -34 -54 -58 -75c-54 -48 -125 -54 -154 -54c-102 0 -214 71 -214 232c0 142 83 236 213 236c79 0 136 -34 168 -81c27 -40 41 -102 41 -161v-16h-316c2 -81 65 -118 119 -118c28 0 52 10 70 24c4 3 29 23 45 61zM152 280h205
c-12 51 -52 82 -102 82c-49 0 -90 -33 -103 -82zM329 708l94 -48l-164 -152l-56 36z" />
    <glyph glyph-name="afii10074.var.accented" unicode="&#x438;`" horiz-adv-x="530" 
d="M62 442h102v-251l304 291v-482h-102v257l-304 -291v476zM341 708l94 -48l-164 -152l-56 36z" />
    <glyph glyph-name="afii10080.var.accented" unicode="&#x43e;`" 
d="M276 454c134 0 236 -98 236 -234c0 -135 -102 -234 -236 -234s-236 99 -236 234c0 136 102 234 236 234zM276 78c63 0 130 40 130 141c0 103 -68 143 -130 143s-130 -40 -130 -143c0 -101 67 -141 130 -141zM352 708l94 -48l-164 -152l-56 36z" />
    <glyph glyph-name="afii10085.var.accented" unicode="&#x443;`" horiz-adv-x="506" 
d="M49 -210l154 292l-197 360h124l130 -249l124 249h116l-335 -652h-116zM329 708l94 -48l-164 -152l-56 36z" />
    <glyph glyph-name="afii10093.var.accented" unicode="&#x44b;`" horiz-adv-x="602" 
d="M62 442h102v-157h60c39 0 95 0 135 -45c17 -19 33 -50 33 -96c0 -59 -24 -92 -40 -107c-39 -37 -84 -37 -129 -37h-161v442zM164 88h46c16 0 37 0 53 10c20 12 23 31 23 45s-4 32 -22 44c-16 10 -38 10 -53 10h-47v-109zM438 442h102v-442h-102v442zM377 708l94 -48
l-164 -152l-56 36z" />
    <glyph glyph-name="afii10095.var.accented" unicode="&#x44d;`" horiz-adv-x="446" 
d="M40 333v98c51 21 93 23 120 23c157 0 246 -99 246 -236c0 -135 -97 -232 -234 -232c-74 0 -111 16 -132 26v98c47 -27 101 -31 124 -31c60 0 119 34 130 104h-205v92h201c-14 57 -71 87 -127 87c-37 0 -84 -10 -123 -29zM299 708l94 -48l-164 -152l-56 36z" />
    <glyph glyph-name="afii10096.var.accented" unicode="&#x44e;`" horiz-adv-x="730" 
d="M164 278h71c9 45 30 81 58 110c33 33 86 66 165 66c135 0 232 -100 232 -234c0 -136 -99 -234 -232 -234c-82 0 -136 33 -170 71c-21 24 -49 66 -54 129h-70v-186h-102v442h102v-164zM457 78c63 0 127 40 127 141c0 103 -64 143 -127 143c-65 0 -127 -41 -127 -143
c0 -101 64 -141 127 -141zM441 708l94 -48l-164 -152l-56 36z" />
    <glyph glyph-name="afii10097.var.accented" unicode="&#x44f;`" horiz-adv-x="436" 
d="M8 0l139 175c-24 3 -50 14 -70 32c-33 31 -37 72 -37 93c0 29 5 69 40 102c37 35 83 40 129 40h165v-442h-102v163h-23l-121 -163h-120zM272 247v107h-63c-20 0 -39 -1 -54 -10c-11 -7 -23 -20 -23 -44c0 -25 12 -37 21 -43c11 -7 28 -10 57 -10h62zM294 708l94 -48
l-164 -152l-56 36z" />
    <glyph glyph-name=".notdef" horiz-adv-x="233" 
 />
    <glyph glyph-name="space" unicode=" " horiz-adv-x="233" 
 />
    <glyph glyph-name="exclam" unicode="!" horiz-adv-x="260" 
d="M181 156h-102v544h102v-544zM64 52c0 36 30 66 66 66s66 -30 66 -66s-30 -66 -66 -66s-66 30 -66 66z" />
    <glyph glyph-name="quotedbl" unicode="&#x22;" horiz-adv-x="378" 
d="M162 700l-19 -280h-76l-19 280h114zM332 700l-19 -280h-76l-19 280h114z" />
    <glyph glyph-name="numbersign" unicode="#" horiz-adv-x="628" 
d="M474 298h113l-15 -92h-113l-33 -206h-102l33 206h-122l-32 -206h-102l32 206h-113l15 92h113l18 118h-113l15 92h113l31 192h102l-31 -192h122l30 192h102l-30 -192h113l-15 -92h-113zM372 298l18 118h-122l-18 -118h122z" />
    <glyph glyph-name="dollar" unicode="$" horiz-adv-x="590" 
d="M497 595l-86 -50c-7 16 -17 31 -32 44c-22 18 -44 25 -75 25c-54 0 -98 -28 -98 -84c0 -25 9 -59 75 -85l70 -28c141 -56 165 -140 165 -206c0 -116 -75 -201 -176 -220v-96h-78v92c-49 5 -96 24 -137 70c-24 27 -52 72 -59 136l106 23c2 -48 23 -80 29 -88
c0 -1 1 -1 1 -1c24 -31 55 -42 91 -42c77 0 115 62 115 118c0 70 -56 100 -100 119l-67 29c-72 31 -143 79 -143 177c0 93 70 169 164 181v90h78v-89c45 -7 73 -18 103 -45c20 -18 40 -42 54 -70z" />
    <glyph glyph-name="percent" unicode="%" horiz-adv-x="846" 
d="M198 19l400 693l50 -31l-400 -693zM202 378c-73 0 -169 56 -169 164s96 164 169 164c92 0 169 -75 169 -164s-77 -164 -169 -164zM202 632c-57 0 -87 -52 -87 -90c0 -39 30 -90 87 -90c55 0 87 50 87 90c0 39 -31 90 -87 90zM644 -6c-73 0 -169 56 -169 164
s96 164 169 164c92 0 169 -75 169 -164s-77 -164 -169 -164zM644 248c-57 0 -87 -52 -87 -90c0 -39 30 -90 87 -90c55 0 87 50 87 90c0 39 -31 90 -87 90z" />
    <glyph glyph-name="ampersand" unicode="&#x26;" horiz-adv-x="676" 
d="M561 328l68 -71l-82 -95l129 -162h-130l-70 86c-17 -18 -35 -34 -59 -51c-44 -31 -84 -49 -153 -49c-130 0 -210 86 -210 201c0 103 60 149 101 180c22 16 36 26 56 39c-35 36 -70 90 -70 145c0 81 53 163 166 163c112 0 168 -78 168 -153c0 -50 -19 -77 -30 -91
c-19 -23 -58 -59 -87 -81l123 -151zM412 162l-138 168c-22 -12 -58 -37 -77 -58c-23 -25 -37 -60 -37 -89c0 -45 32 -107 108 -107c35 0 57 12 79 28c23 16 47 38 65 58zM296 464l39 28c35 25 42 55 42 69c0 29 -19 63 -70 63c-66 0 -68 -52 -68 -61c0 -28 17 -51 25 -61z
" />
    <glyph glyph-name="quotesingle" unicode="'" horiz-adv-x="210" 
d="M162 700l-19 -280h-76l-19 280h114z" />
    <glyph glyph-name="parenleft" unicode="(" horiz-adv-x="334" 
d="M274 -187l-95 -37c-31 63 -49 118 -65 186c-29 123 -34 249 -34 298c0 70 9 192 34 298c16 66 35 123 65 185l95 -36c-21 -50 -44 -113 -57 -167c-22 -88 -31 -215 -31 -280c0 -63 9 -194 31 -281c0 -1 1 -1 1 -3c4 -16 22 -84 56 -163z" />
    <glyph glyph-name="parenright" unicode=")" horiz-adv-x="334" 
d="M60 707l95 36c30 -62 49 -119 65 -185c25 -106 34 -228 34 -298c0 -49 -5 -175 -34 -298c-16 -68 -34 -123 -65 -186l-95 37c34 79 52 147 56 163c0 2 1 2 1 3c22 87 31 218 31 281c0 65 -9 192 -31 280c-13 54 -36 117 -57 167z" />
    <glyph glyph-name="asterisk" unicode="*" horiz-adv-x="586" 
d="M140 657l114 -44l-7 122h92l-7 -122l114 44l29 -86l-119 -31l78 -96l-74 -52l-67 103l-67 -103l-74 52l78 96l-119 31z" />
    <glyph glyph-name="plus" unicode="+" horiz-adv-x="522" 
d="M33 306v94h179v178h98v-178h179v-94h-179v-178h-98v178h-179z" />
    <glyph glyph-name="comma" unicode="," horiz-adv-x="260" 
d="M-4 -134l106 264l94 -34l-130 -260z" />
    <glyph glyph-name="hyphen" unicode="-" horiz-adv-x="332" 
d="M40 170v106h252v-106h-252z" />
    <glyph glyph-name="period" unicode="." horiz-adv-x="260" 
d="M64 52c0 36 30 66 66 66s66 -30 66 -66s-30 -66 -66 -66s-66 30 -66 66z" />
    <glyph glyph-name="slash" unicode="/" horiz-adv-x="562" 
d="M0 -184l400 928l84 -38l-400 -928z" />
    <glyph glyph-name="zero" unicode="0" horiz-adv-x="590" 
d="M295 -14c-63 0 -113 25 -158 76c-76 86 -91 193 -91 287c0 93 15 203 91 289c44 51 95 76 158 76s114 -25 158 -76c76 -86 91 -196 91 -289c0 -94 -15 -201 -91 -287c-45 -51 -95 -76 -158 -76zM295 618c-42 0 -71 -23 -94 -58c-45 -68 -49 -163 -49 -209
c0 -47 4 -142 49 -211c23 -35 52 -58 94 -58s71 23 94 58c45 69 49 164 49 211c0 46 -4 141 -49 209c-23 35 -52 58 -94 58z" />
    <glyph glyph-name="one" unicode="1" horiz-adv-x="590" 
d="M260 0v602h-120l58 98h170v-700h-108z" />
    <glyph glyph-name="two" unicode="2" horiz-adv-x="590" 
d="M504 96v-96h-470l248 299c28 34 57 69 80 104c14 21 34 53 34 99c0 60 -41 116 -115 116c-64 0 -120 -48 -123 -128h-104c3 60 25 113 59 153c40 47 93 71 167 71c146 0 222 -100 222 -213c0 -54 -18 -99 -50 -147c-25 -39 -58 -76 -100 -126l-112 -132h264z" />
    <glyph glyph-name="three" unicode="3" horiz-adv-x="590" 
d="M173 523h-104c5 58 23 92 35 110c43 64 116 81 172 81c130 0 208 -82 208 -196c0 -83 -45 -127 -77 -149c65 -33 89 -95 89 -160c0 -87 -46 -223 -228 -223c-126 0 -181 69 -203 125c-9 24 -15 53 -17 78h104c5 -59 49 -107 118 -107c71 0 120 50 120 128
c0 63 -42 114 -120 114h-21v92h21c37 0 110 7 110 95c0 67 -41 107 -105 107c-57 0 -98 -34 -102 -95z" />
    <glyph glyph-name="four" unicode="4" horiz-adv-x="590" 
d="M468 750v-554h74v-96h-74v-100h-102v100h-346zM206 196h160v236z" />
    <glyph glyph-name="five" unicode="5" horiz-adv-x="590" 
d="M499 700v-96h-218l-33 -119c11 1 21 2 32 2c32 0 96 -6 151 -53c29 -25 79 -82 79 -190c0 -124 -77 -258 -262 -258c-43 0 -149 6 -220 133l80 67c16 -38 58 -104 147 -104c101 0 149 73 149 156c0 88 -53 153 -142 153c-44 0 -94 -14 -127 -61h-36l110 370h290z" />
    <glyph glyph-name="six" unicode="6" horiz-adv-x="590" 
d="M373 724l77 -58l-167 -225c12 2 23 3 35 3c100 0 212 -67 212 -223c0 -131 -87 -235 -233 -235c-132 0 -237 89 -237 228c0 66 26 118 69 177zM294 348c-75 0 -128 -54 -128 -133c0 -77 53 -133 129 -133s129 56 129 133c0 78 -52 133 -130 133z" />
    <glyph glyph-name="seven" unicode="7" horiz-adv-x="590" 
d="M50 28l348 576h-344v96h518l-438 -724z" />
    <glyph glyph-name="eight" unicode="8" horiz-adv-x="590" 
d="M168 364c-50 35 -77 86 -77 149c0 125 93 201 204 201s204 -76 204 -201c0 -63 -27 -114 -77 -149c60 -31 94 -89 94 -165c0 -136 -104 -213 -221 -213s-221 77 -221 213c0 76 34 134 94 165zM295 618c-62 0 -106 -42 -106 -106c0 -73 59 -105 106 -105s106 32 106 105
c0 64 -44 106 -106 106zM295 317c-56 0 -115 -39 -115 -116c0 -70 47 -119 115 -119s115 49 115 119c0 77 -59 116 -115 116z" />
    <glyph glyph-name="nine" unicode="9" horiz-adv-x="590" 
d="M217 -24l-77 58l167 225c-10 -2 -21 -3 -31 -3c-102 0 -216 75 -216 224c0 129 88 234 236 234c155 0 234 -115 234 -228c0 -66 -26 -118 -69 -177zM297 352c74 0 127 53 127 133c0 77 -53 133 -129 133s-129 -56 -129 -133c0 -78 52 -133 131 -133z" />
    <glyph glyph-name="colon" unicode=":" horiz-adv-x="260" 
d="M64 388c0 36 30 66 66 66s66 -30 66 -66s-30 -66 -66 -66s-66 30 -66 66zM64 52c0 36 30 66 66 66s66 -30 66 -66s-30 -66 -66 -66s-66 30 -66 66z" />
    <glyph glyph-name="semicolon" unicode=";" horiz-adv-x="260" 
d="M64 388c0 36 30 66 66 66s66 -30 66 -66s-30 -66 -66 -66s-66 30 -66 66zM-4 -134l106 264l94 -34l-130 -260z" />
    <glyph glyph-name="semicolon" unicode="&#x37e;" horiz-adv-x="260" 
d="M64 388c0 36 30 66 66 66s66 -30 66 -66s-30 -66 -66 -66s-66 30 -66 66zM-4 -134l106 264l94 -34l-130 -260z" />
    <glyph glyph-name="less" unicode="&#x3c;" horiz-adv-x="522" 
d="M33 392l456 222v-102l-346 -163l346 -163v-102l-456 222v86z" />
    <glyph glyph-name="equal" unicode="=" horiz-adv-x="522" 
d="M33 400v88h456v-88h-456zM33 230v88h456v-88h-456z" />
    <glyph glyph-name="greater" unicode="&#x3e;" horiz-adv-x="522" 
d="M489 306l-456 -222v102l346 163l-346 163v102l456 -222v-86z" />
    <glyph glyph-name="question" unicode="?" horiz-adv-x="450" 
d="M160 513h-104c-2 25 -2 32 -2 36c0 83 54 165 171 165c98 0 171 -64 171 -177c0 -69 -32 -99 -62 -120s-49 -29 -105 -50c-24 -9 -58 -21 -58 -61c0 -29 21 -53 52 -53c22 0 36 9 45 25c6 11 9 26 9 40v6h104c-2 -42 -9 -68 -28 -96c-38 -57 -95 -67 -131 -67
c-78 0 -155 53 -155 151s73 128 124 147c35 13 60 20 77 34c21 17 24 38 24 56c0 45 -24 73 -67 73c-39 0 -67 -22 -67 -75c0 -11 2 -29 2 -34zM159 52c0 36 30 66 66 66s66 -30 66 -66s-30 -66 -66 -66s-66 30 -66 66z" />
    <glyph glyph-name="at" unicode="@" horiz-adv-x="764" 
d="M494 461l11 54h72l-42 -216c-3 -14 -5 -27 -5 -42c0 -33 20 -42 33 -42c23 0 52 25 64 42c20 28 35 94 35 142c0 115 -80 249 -260 249c-170 0 -300 -133 -300 -304c0 -118 66 -232 179 -274c39 -14 88 -21 127 -21c58 0 135 12 206 43l18 -64c-82 -34 -172 -41 -226 -41
c-112 0 -197 36 -254 85c-50 43 -118 129 -118 273c0 212 154 365 365 365c185 0 331 -114 331 -310c0 -59 -13 -130 -50 -179c-28 -36 -74 -66 -121 -66c-8 0 -67 1 -79 65c-29 -41 -75 -71 -131 -71c-78 0 -148 57 -148 168c0 138 99 211 184 211c21 0 85 -6 109 -67z
M360 223c59 0 113 57 113 141c0 15 -3 90 -79 90c-57 0 -111 -48 -111 -136c0 -63 36 -95 77 -95z" />
    <glyph glyph-name="A" unicode="A" horiz-adv-x="688" 
d="M568 0l-74 170h-297l-77 -170h-116l348 740l332 -740h-116zM240 270h212l-104 236z" />
    <glyph glyph-name="B" unicode="B" horiz-adv-x="546" 
d="M80 700h114c54 0 112 0 165 -37c42 -29 79 -78 79 -158c0 -39 -9 -87 -62 -128c88 -27 122 -104 122 -169c0 -41 -13 -112 -70 -159c-59 -48 -131 -49 -181 -49h-167v700zM188 600v-201h32c24 0 114 0 114 103c0 96 -86 98 -110 98h-36zM188 311v-211h64
c115 0 138 61 138 106c0 48 -26 105 -136 105h-66z" />
    <glyph glyph-name="C" unicode="C" horiz-adv-x="646" 
d="M600 662v-126c-74 72 -151 78 -189 78c-152 0 -251 -113 -251 -267c0 -149 103 -261 251 -261c33 0 110 6 189 81v-128c-22 -14 -87 -53 -192 -53c-60 0 -158 12 -248 97c-68 65 -112 150 -112 264c0 91 28 194 112 274c73 70 157 93 253 93c90 0 144 -23 187 -52z" />
    <glyph glyph-name="D" unicode="D" horiz-adv-x="670" 
d="M80 700h147c101 0 181 -9 260 -68c115 -86 135 -209 135 -283c0 -116 -49 -217 -141 -282c-81 -57 -158 -67 -256 -67h-145v700zM188 600v-500h45c55 0 125 3 186 50c58 44 91 117 91 199c0 79 -31 158 -90 202c-61 46 -134 49 -187 49h-45z" />
    <glyph glyph-name="E" unicode="E" horiz-adv-x="518" 
d="M466 700v-100h-278v-168h270v-100h-270v-232h278v-100h-386v700h386z" />
    <glyph glyph-name="F" unicode="F" horiz-adv-x="466" 
d="M430 700v-100h-242v-168h234v-100h-234v-332h-108v700h350z" />
    <glyph glyph-name="G" unicode="G" horiz-adv-x="780" 
d="M444 264v100h288v-22c0 -68 -8 -146 -63 -224c-37 -52 -116 -132 -263 -132c-112 0 -192 42 -252 102c-77 77 -106 168 -106 261s31 186 100 258c83 87 186 107 264 107c105 0 175 -40 213 -67c31 -22 56 -46 77 -76l-76 -72c-22 32 -87 115 -214 115
c-148 0 -252 -113 -252 -265c0 -155 113 -263 249 -263c111 0 192 76 209 178h-174z" />
    <glyph glyph-name="H" unicode="H" horiz-adv-x="674" 
d="M188 700v-274h298v274h108v-700h-108v326h-298v-326h-108v700h108z" />
    <glyph glyph-name="I" unicode="I" horiz-adv-x="268" 
d="M80 700h108v-700h-108v700z" />
    <glyph glyph-name="J" unicode="J" horiz-adv-x="376" 
d="M188 700h108v-453c0 -57 -2 -111 -26 -160c-33 -68 -95 -101 -164 -101c-67 0 -109 26 -124 36l52 90c23 -19 51 -26 73 -26c48 0 66 35 71 47c5 11 10 31 10 113v454z" />
    <glyph glyph-name="K" unicode="K" horiz-adv-x="610" 
d="M188 700v-279l270 279h140l-316 -317l318 -383h-142l-270 336v-336h-108v700h108z" />
    <glyph glyph-name="L" unicode="L" horiz-adv-x="408" 
d="M80 700h108v-600h204v-100h-312v700z" />
    <glyph glyph-name="M" unicode="M" horiz-adv-x="888" 
d="M170 0h-110l147 752l243 -542l246 542l132 -752h-110l-70 422l-204 -454l-201 455z" />
    <glyph glyph-name="N" unicode="N" horiz-adv-x="774" 
d="M188 0h-108v746l506 -530v484h108v-742l-506 530v-488z" />
    <glyph glyph-name="O" unicode="O" horiz-adv-x="824" 
d="M412 714c209 0 364 -159 364 -365c0 -204 -154 -363 -364 -363s-364 159 -364 363c0 206 155 365 364 365zM412 86c148 0 252 109 252 263c0 155 -104 265 -252 265s-252 -110 -252 -265c0 -154 104 -263 252 -263z" />
    <glyph glyph-name="P" unicode="P" horiz-adv-x="498" 
d="M80 700h154c46 0 100 -3 153 -38c70 -46 87 -118 87 -170c0 -73 -33 -123 -68 -153c-55 -47 -120 -55 -171 -55h-47v-284h-108v700zM188 600v-216h47c47 0 131 11 131 109c0 102 -95 107 -132 107h-46z" />
    <glyph glyph-name="Q" unicode="Q" horiz-adv-x="826" 
d="M660 -14l-51 53c-53 -35 -108 -53 -191 -53c-258 0 -370 198 -370 363c0 206 155 365 365 365c209 0 364 -159 364 -365c0 -127 -57 -207 -97 -250l114 -113h-134zM501 277l105 -106c32 39 59 91 59 178c0 155 -105 265 -252 265c-148 0 -253 -110 -253 -265
s105 -263 253 -263c53 0 88 12 118 29l-164 162h134z" />
    <glyph glyph-name="R" unicode="R" horiz-adv-x="556" 
d="M80 700h125c57 0 127 -2 185 -41c67 -45 83 -119 83 -165c0 -100 -64 -174 -156 -195l219 -299h-130l-200 287h-18v-287h-108v700zM188 600v-221h33c29 0 144 2 144 114c0 100 -90 107 -141 107h-36z" />
    <glyph glyph-name="S" unicode="S" horiz-adv-x="539" 
d="M471 595l-86 -50c-7 16 -17 31 -32 44c-22 19 -44 25 -73 25c-56 0 -100 -30 -100 -83c0 -49 42 -73 75 -86l70 -28c69 -27 166 -80 166 -207c0 -132 -95 -224 -227 -224c-68 0 -123 23 -165 71c-24 27 -52 72 -59 136l106 23c1 -34 13 -67 30 -89c25 -33 54 -41 90 -41
c81 0 117 58 117 117c0 70 -57 100 -101 119l-67 29c-71 31 -143 79 -143 177c0 113 96 186 205 186c73 0 114 -25 140 -48c16 -14 37 -37 54 -71z" />
    <glyph glyph-name="T" unicode="T" horiz-adv-x="448" 
d="M438 600h-160v-600h-108v600h-160v100h428v-100z" />
    <glyph glyph-name="U" unicode="U" horiz-adv-x="678" 
d="M80 700h108v-422c0 -38 1 -84 21 -121c21 -38 65 -71 130 -71c54 0 104 22 130 71c20 38 21 81 21 121v422h108v-450c0 -56 -12 -123 -65 -182c-37 -41 -98 -82 -194 -82s-157 41 -194 82c-53 59 -65 126 -65 182v450z" />
    <glyph glyph-name="V" unicode="V" horiz-adv-x="630" 
d="M4 700h116l195 -488l195 488h116l-311 -744z" />
    <glyph glyph-name="W" unicode="W" horiz-adv-x="986" 
d="M4 700h116l184 -468l189 502l183 -502l190 468h116l-313 -744l-182 495l-185 -495z" />
    <glyph glyph-name="X" unicode="X" horiz-adv-x="572" 
d="M10 0l220 365l-193 335h120l136 -237l140 237h120l-202 -335l211 -365h-120l-153 268l-159 -268h-120z" />
    <glyph glyph-name="Y" unicode="Y" horiz-adv-x="566" 
d="M229 0v302l-229 398h120l163 -282l163 282h120l-229 -398v-302h-108z" />
    <glyph glyph-name="Z" unicode="Z" horiz-adv-x="578" 
d="M548 700l-344 -600h336v-100h-510l344 600h-288v100h462z" />
    <glyph glyph-name="bracketleft" unicode="[" horiz-adv-x="326" 
d="M280 643h-90v-761h90v-92h-192v945h192v-92z" />
    <glyph glyph-name="backslash" unicode="\" horiz-adv-x="562" 
d="M562 -184l-84 -38l-400 928l84 38z" />
    <glyph glyph-name="bracketright" unicode="]" horiz-adv-x="326" 
d="M46 -118h90v761h-90v92h192v-945h-192v92z" />
    <glyph glyph-name="asciicircum" unicode="^" horiz-adv-x="524" 
d="M262 622l-136 -252h-110l180 330h132l180 -330h-110z" />
    <glyph glyph-name="underscore" unicode="_" horiz-adv-x="420" 
d="M0 -150v92h420v-92h-420z" />
    <glyph glyph-name="grave" unicode="`" horiz-adv-x="512" 
d="M250 508l-164 152l94 48l126 -164z" />
    <glyph glyph-name="a" unicode="a" 
d="M388 442h102v-442h-102v46c-18 -21 -58 -60 -134 -60c-135 0 -214 116 -214 235s76 233 215 233c33 0 91 -7 133 -64v52zM270 362c-75 0 -124 -64 -124 -143c0 -75 45 -141 124 -141c78 0 124 61 124 142c0 95 -60 142 -124 142z" />
    <glyph glyph-name="b" unicode="b" 
d="M164 735v-345c42 57 100 64 133 64c139 0 215 -114 215 -233c0 -147 -104 -235 -215 -235c-75 0 -114 38 -133 60v-46h-102v735h102zM283 362c-64 0 -125 -46 -125 -144c0 -78 45 -140 125 -140c78 0 123 65 123 141c0 80 -49 143 -123 143z" />
    <glyph glyph-name="c" unicode="c" horiz-adv-x="438" 
d="M406 422v-134c-28 46 -77 74 -128 74c-65 0 -132 -49 -132 -142c0 -77 48 -142 131 -142c78 0 117 57 129 75v-134c-45 -26 -87 -33 -122 -33c-75 0 -135 21 -181 68c-46 46 -63 102 -63 164c0 84 34 140 72 176c47 44 100 60 166 60c62 0 100 -15 128 -32z" />
    <glyph glyph-name="d" unicode="d" 
d="M388 390v345h102v-735h-102v46c-17 -20 -57 -60 -137 -60c-130 0 -211 113 -211 236c0 117 76 232 215 232c33 0 91 -7 133 -64zM269 362c-74 0 -123 -63 -123 -144c0 -75 45 -140 123 -140c80 0 125 62 125 140c0 98 -61 144 -125 144z" />
    <glyph glyph-name="e" unicode="e" horiz-adv-x="506" 
d="M380 163l86 -48c-14 -26 -34 -54 -58 -75c-54 -48 -125 -54 -154 -54c-102 0 -214 71 -214 232c0 142 83 236 213 236c79 0 136 -34 168 -81c27 -40 41 -102 41 -161v-16h-316c2 -81 65 -118 119 -118c28 0 52 10 70 24c4 3 29 23 45 61zM152 280h205
c-12 51 -52 82 -102 82c-49 0 -90 -33 -103 -82z" />
    <glyph glyph-name="f" unicode="f" horiz-adv-x="284" 
d="M290 350h-112v-350h-102v350h-56v92h56v140c0 40 3 95 46 133c23 20 55 33 94 33c27 0 48 -6 74 -16v-104c-22 12 -47 20 -66 20c-18 0 -30 -7 -36 -16c-4 -6 -10 -18 -10 -50v-140h112v-92z" />
    <glyph glyph-name="g" unicode="g" 
d="M388 394v48h102v-429c0 -45 -1 -103 -42 -156c-61 -78 -147 -81 -178 -81c-101 0 -190 52 -216 163h102c14 -39 47 -71 115 -71c108 0 117 87 117 123v58c-18 -22 -58 -63 -134 -63c-135 0 -214 114 -214 235c0 118 75 233 216 233c34 0 89 -8 132 -60zM269 362
c-75 0 -123 -64 -123 -141c0 -79 46 -143 123 -143c80 0 125 62 125 140c0 98 -61 144 -125 144z" />
    <glyph glyph-name="h" unicode="h" horiz-adv-x="504" 
d="M62 0v735h102v-331c39 42 84 50 119 50c81 0 119 -42 131 -60c28 -41 28 -90 28 -123v-271h-102v265c0 28 0 50 -20 73c-15 18 -34 24 -59 24c-39 0 -64 -20 -76 -38c-19 -28 -21 -72 -21 -111v-213h-102z" />
    <glyph glyph-name="i" unicode="i" horiz-adv-x="226" 
d="M62 442h102v-442h-102v442zM47 624c0 36 30 66 66 66s66 -30 66 -66s-30 -66 -66 -66s-66 30 -66 66z" />
    <glyph glyph-name="j" unicode="j" horiz-adv-x="226" 
d="M62 442h102v-652h-102v652zM47 624c0 36 30 66 66 66s66 -30 66 -66s-30 -66 -66 -66s-66 30 -66 66z" />
    <glyph glyph-name="k" unicode="k" horiz-adv-x="460" 
d="M62 735h102v-445l146 152h134l-189 -184l203 -258h-130l-164 212v-212h-102v735z" />
    <glyph glyph-name="l" unicode="l" horiz-adv-x="226" 
d="M62 735h102v-735h-102v735z" />
    <glyph glyph-name="m" unicode="m" horiz-adv-x="730" 
d="M62 0v442h102v-41c30 38 67 53 110 53c21 0 81 -4 114 -66c36 55 93 66 131 66c65 0 104 -32 126 -70c11 -18 23 -47 23 -111v-273h-102v243c0 50 -6 70 -9 79c-10 25 -28 40 -59 40c-35 0 -54 -21 -62 -34c-6 -9 -20 -35 -20 -100v-228h-102v243c0 22 -3 61 -10 79
c-11 29 -31 40 -59 40c-31 0 -50 -16 -62 -34c-17 -26 -19 -64 -19 -100v-228h-102z" />
    <glyph glyph-name="n" unicode="n" horiz-adv-x="504" 
d="M62 0v442h102v-41c20 23 55 53 121 53c64 0 108 -28 130 -60c25 -37 27 -88 27 -123v-271h-102v252c0 43 -2 110 -82 110c-88 0 -94 -81 -94 -150v-212h-102z" />
    <glyph glyph-name="o" unicode="o" 
d="M276 454c134 0 236 -98 236 -234c0 -135 -102 -234 -236 -234s-236 99 -236 234c0 136 102 234 236 234zM276 78c63 0 130 40 130 141c0 103 -68 143 -130 143s-130 -40 -130 -143c0 -101 67 -141 130 -141z" />
    <glyph glyph-name="p" unicode="p" 
d="M164 442v-48c42 50 99 60 134 60c115 0 214 -90 214 -232c0 -145 -109 -236 -213 -236c-24 0 -89 8 -135 65v-261h-102v652h102zM283 362c-64 0 -125 -49 -125 -143c0 -75 43 -141 125 -141c77 0 123 64 123 143c0 92 -61 141 -123 141z" />
    <glyph glyph-name="q" unicode="q" 
d="M388 394v48h102v-652h-102v259c-39 -49 -91 -63 -136 -63c-134 0 -212 114 -212 235c0 118 76 233 215 233c73 0 113 -35 133 -60zM269 362c-75 0 -123 -62 -123 -142s46 -142 123 -142c66 0 125 46 125 140c0 98 -61 144 -125 144z" />
    <glyph glyph-name="r" unicode="r" horiz-adv-x="346" 
d="M62 0v442h102v-40c21 26 55 52 105 52c25 0 57 -8 83 -26l-46 -93c-19 16 -41 21 -58 21c-36 0 -56 -19 -66 -35c-17 -27 -18 -63 -18 -91v-230h-102z" />
    <glyph glyph-name="s" unicode="s" horiz-adv-x="374" 
d="M320 367l-85 -45c-7 21 -24 40 -49 40c-2 0 -34 0 -34 -29c0 -25 20 -35 59 -53c23 -10 59 -26 84 -45c45 -33 53 -69 53 -99c0 -101 -88 -150 -161 -150c-62 0 -126 35 -153 110l86 39c6 -19 24 -57 73 -57c32 0 49 19 49 48c0 25 -12 39 -46 56c-30 15 -63 27 -88 43
c-34 22 -52 47 -52 97c0 69 45 132 138 132c25 0 91 -5 126 -87z" />
    <glyph glyph-name="t" unicode="t" horiz-adv-x="252" 
d="M248 350h-78v-350h-102v350h-44v92h44v158h102v-158h78v-92z" />
    <glyph glyph-name="u" unicode="u" horiz-adv-x="502" 
d="M62 442h102v-254c0 -27 0 -56 19 -80c14 -18 36 -30 68 -30s54 12 68 30c19 24 19 53 19 80v254h102v-256c0 -52 -3 -100 -47 -145c-46 -48 -113 -55 -144 -55c-27 0 -93 7 -140 55c-44 45 -47 93 -47 145v256z" />
    <glyph glyph-name="v" unicode="v" horiz-adv-x="470" 
d="M6 442h116l113 -252l113 252h116l-229 -472z" />
    <glyph glyph-name="w" unicode="w" horiz-adv-x="720" 
d="M360 252l-124 -282l-230 472h116l114 -252l124 290l124 -290l114 252h116l-230 -472z" />
    <glyph glyph-name="x" unicode="x" horiz-adv-x="520" 
d="M263 165l-131 -165h-126l195 239l-157 203h122l97 -129l99 129h126l-163 -203l189 -239h-124z" />
    <glyph glyph-name="y" unicode="y" horiz-adv-x="506" 
d="M49 -210l154 292l-197 360h124l130 -249l124 249h116l-335 -652h-116z" />
    <glyph glyph-name="z" unicode="z" horiz-adv-x="502" 
d="M494 442l-284 -348h262v-94h-464l286 347h-226v95h426z" />
    <glyph glyph-name="braceleft" unicode="{" horiz-adv-x="512" 
d="M295 542v-155c0 -22 -2 -57 -12 -78c-15 -32 -50 -48 -53 -49c3 -1 38 -17 53 -49c10 -21 12 -56 12 -78v-155c0 -14 1 -50 18 -67s51 -17 75 -17h8v-88h-49c-35 0 -78 3 -108 25c-40 29 -46 74 -46 120v180c0 29 -6 76 -59 87v84c53 11 59 58 59 87v180
c0 46 6 91 46 120c30 22 73 25 108 25h49v-88h-8c-24 0 -58 0 -75 -17s-18 -53 -18 -67z" />
    <glyph glyph-name="bar" unicode="|" horiz-adv-x="504" 
d="M202 -262v1049h100v-1049h-100z" />
    <glyph glyph-name="braceright" unicode="}" horiz-adv-x="512" 
d="M235 -22v155c0 22 2 57 12 78c15 32 50 48 53 49c-3 1 -38 17 -53 49c-10 21 -12 56 -12 78v155c0 14 -1 50 -18 67s-51 17 -75 17h-8v88h49c35 0 78 -3 108 -25c40 -29 46 -74 46 -120v-180c0 -29 6 -76 59 -87v-84c-53 -11 -59 -58 -59 -87v-180c0 -46 -6 -91 -46 -120
c-30 -22 -73 -25 -108 -25h-49v88h8c24 0 58 0 75 17s18 53 18 67z" />
    <glyph glyph-name="asciitilde" unicode="~" horiz-adv-x="692" 
d="M540 437l60 -34c-24 -59 -55 -87 -69 -98c-18 -14 -44 -29 -87 -29c-42 0 -81 18 -118 33c-59 24 -79 28 -91 28c-17 0 -38 -7 -54 -23c-11 -11 -23 -30 -30 -48l-59 38c21 48 40 73 53 87c22 24 52 44 96 44c24 0 60 -7 115 -32c31 -14 62 -29 98 -29c24 0 38 6 52 18
c12 10 25 28 34 45z" />
    <glyph glyph-name="nbspace" unicode="&#xa0;" horiz-adv-x="233" 
 />
    <glyph glyph-name="exclamdown" unicode="&#xa1;" horiz-adv-x="260" 
d="M79 344h102v-544h-102v544zM196 448c0 -36 -30 -66 -66 -66s-66 30 -66 66s30 66 66 66s66 -30 66 -66z" />
    <glyph glyph-name="cent" unicode="&#xa2;" horiz-adv-x="586" 
d="M456 553v-134c-18 28 -58 74 -128 74c-69 0 -132 -47 -132 -141c0 -96 65 -143 131 -143c59 0 104 35 129 75v-134c-49 -28 -91 -31 -99 -31v-91h-78v94c-53 7 -97 31 -126 61c-38 38 -63 97 -63 168c0 82 34 140 72 176c26 24 65 48 117 54v90h78v-87
c43 -6 68 -13 99 -31z" />
    <glyph glyph-name="sterling" unicode="&#xa3;" horiz-adv-x="594" 
d="M540 485l-102 -38v13c0 38 -7 82 -28 111c-14 20 -42 43 -92 43c-77 0 -125 -50 -125 -125c0 -48 25 -99 54 -144h136v-74h-108c9 -22 15 -48 15 -68c0 -34 -13 -66 -15 -71l55 -20c32 -12 61 -21 79 -21c42 0 65 46 73 69l86 -51c-13 -27 -33 -58 -54 -79
c-31 -30 -63 -39 -102 -39c-48 0 -81 13 -117 26c-50 17 -79 29 -106 29c-48 0 -66 -42 -71 -60l-92 44c15 34 41 69 74 92c22 15 42 22 66 23c11 18 16 38 16 63c0 24 -5 43 -16 63h-120v74h87c-14 23 -48 85 -48 149c0 128 99 220 233 220c77 0 132 -27 172 -78
c28 -36 50 -90 50 -151z" />
    <glyph glyph-name="currency" unicode="&#xa4;" horiz-adv-x="698" 
d="M95 693l104 -104c57 44 113 50 150 50s93 -6 150 -50l104 104l57 -57l-104 -104c39 -51 47 -104 47 -147c0 -42 -8 -95 -47 -146l104 -104l-57 -57l-104 104c-56 -46 -114 -51 -150 -51s-94 5 -150 51l-104 -104l-57 57l104 104c-39 51 -47 104 -47 146c0 43 8 96 47 147
l-104 104zM349 221c90 0 160 68 160 164s-70 164 -160 164s-160 -68 -160 -164s70 -164 160 -164z" />
    <glyph glyph-name="yen" unicode="&#xa5;" horiz-adv-x="594" 
d="M46 318h193l-43 78h-150v74h109l-127 230h116l153 -282l153 282h116l-127 -230h109v-74h-150l-43 -78h193v-74h-200v-244h-102v244h-200v74z" />
    <glyph glyph-name="brokenbar" unicode="&#xa6;" horiz-adv-x="504" 
d="M202 409v378h100v-378h-100zM202 -262v377h100v-377h-100z" />
    <glyph glyph-name="section" unicode="&#xa7;" horiz-adv-x="588" 
d="M504 534h-100l1 14c0 16 -4 39 -18 62c-19 31 -45 42 -77 42c-68 0 -100 -52 -100 -97c0 -51 39 -70 75 -84c64 -24 112 -33 159 -71c54 -44 60 -96 60 -131c0 -82 -46 -135 -99 -162c71 -35 79 -100 79 -137c0 -121 -87 -191 -198 -191c-83 0 -149 37 -182 107
c-10 23 -20 51 -20 91v6h100v-5c0 -21 6 -41 17 -59c17 -26 44 -44 85 -44c69 0 96 47 96 94c0 27 -12 48 -32 65c-23 20 -55 30 -86 40l-11 4c-18 6 -73 26 -105 52c-28 23 -58 70 -58 137c0 71 35 131 101 158c-35 19 -83 60 -83 137c0 111 84 186 201 186
c47 0 118 -10 163 -81c21 -34 32 -80 32 -122v-11zM297 371c-45 0 -101 -33 -101 -103c0 -60 43 -103 101 -103c59 0 101 44 101 103c0 69 -55 103 -101 103z" />
    <glyph glyph-name="dieresis" unicode="&#xa8;" horiz-adv-x="516" 
d="M98 624c0 36 30 66 66 66s66 -30 66 -66s-30 -66 -66 -66s-66 30 -66 66zM286 624c0 36 30 66 66 66s66 -30 66 -66s-30 -66 -66 -66s-66 30 -66 66z" />
    <glyph glyph-name="copyright" unicode="&#xa9;" horiz-adv-x="792" 
d="M396 714c209 0 363 -157 363 -365c0 -207 -154 -363 -363 -363s-363 156 -363 363c0 208 154 365 363 365zM396 660c-178 0 -303 -135 -303 -311c0 -175 125 -309 303 -309s303 134 303 309c0 176 -125 311 -303 311zM536 535v-91c-37 34 -82 52 -124 52
c-84 0 -146 -62 -146 -148s61 -144 147 -144c34 0 76 10 123 53v-92c-50 -28 -93 -33 -124 -33c-129 0 -226 92 -226 216c0 129 97 220 230 220c30 0 68 -3 120 -33z" />
    <glyph glyph-name="ordfeminine" unicode="&#xaa;" horiz-adv-x="376" 
d="M256 658v28h68v-266h-68v25c-10 -11 -34 -33 -79 -33c-67 0 -135 51 -135 142c0 75 52 140 132 140c46 0 71 -23 82 -36zM183 636c-47 0 -73 -38 -73 -84c0 -54 37 -82 73 -82c39 0 77 26 77 83s-38 83 -77 83zM49 357h275v-42h-275v42z" />
    <glyph glyph-name="guillemotleft" unicode="&#xab;" horiz-adv-x="530" 
d="M144 228l136 -178l-68 -48l-172 226l172 226l68 -48zM340 228l136 -178l-68 -48l-172 226l172 226l68 -48z" />
    <glyph glyph-name="logicalnot" unicode="&#xac;" horiz-adv-x="522" 
d="M489 0h-102v188h-354v92h456v-280z" />
    <glyph glyph-name="uni00AD" unicode="&#xad;" horiz-adv-x="332" 
d="M40 170v106h252v-106h-252z" />
    <glyph glyph-name="registered" unicode="&#xae;" horiz-adv-x="792" 
d="M396 714c209 0 363 -157 363 -365c0 -207 -154 -363 -363 -363s-363 156 -363 363c0 208 154 365 363 365zM396 660c-178 0 -303 -135 -303 -311c0 -175 125 -309 303 -309s303 134 303 309c0 176 -125 311 -303 311zM257 561h108c46 0 150 -8 150 -127
c0 -64 -38 -105 -92 -116l140 -177h-90l-124 166h-20v-166h-72v420zM329 495v-122h27c30 0 87 3 87 61c0 61 -58 61 -85 61h-29z" />
    <glyph glyph-name="macron" unicode="&#xaf;" horiz-adv-x="512" 
d="M84 542v82h344v-82h-344z" />
    <glyph glyph-name="macron" unicode="&#x2c9;" horiz-adv-x="512" 
d="M84 542v82h344v-82h-344z" />
    <glyph glyph-name="degree" unicode="&#xb0;" horiz-adv-x="512" 
d="M104 548c0 85 67 152 152 152s152 -67 152 -152s-67 -152 -152 -152s-152 67 -152 152zM168 548c0 -54 38 -92 88 -92s88 38 88 92s-38 92 -88 92s-88 -38 -88 -92z" />
    <glyph glyph-name="plusminus" unicode="&#xb1;" horiz-adv-x="522" 
d="M33 367v94h179v171h98v-171h179v-94h-179v-171h-98v171h-179zM33 62v94h456v-94h-456z" />
    <glyph glyph-name="twosuperior" unicode="&#xb2;" horiz-adv-x="384" 
d="M328 349v-69h-304l153 170c13 14 46 55 53 65c19 27 22 50 22 60c0 31 -23 63 -67 63c-48 0 -72 -38 -76 -77h-74c2 22 9 69 39 101c40 43 87 45 108 45c111 0 145 -77 145 -130c0 -24 -7 -50 -31 -89c-18 -29 -36 -48 -58 -73l-58 -66h148z" />
    <glyph glyph-name="threesuperior" unicode="&#xb3;" horiz-adv-x="384" 
d="M119 580h-73c3 36 14 59 24 74c34 48 86 53 115 53c94 0 134 -57 134 -117c0 -61 -45 -84 -55 -88c12 -4 62 -25 62 -96c0 -69 -46 -133 -148 -133c-87 0 -118 48 -134 82c-6 14 -11 29 -12 50h74c3 -43 34 -63 72 -63c49 0 72 28 72 65c0 28 -13 61 -72 61h-25v69h25
c53 0 66 23 66 50c0 13 -4 51 -61 51c-46 0 -61 -30 -64 -58z" />
    <glyph glyph-name="acute" unicode="&#xb4;" horiz-adv-x="512" 
d="M332 708l94 -48l-164 -152l-56 36z" />
    <glyph glyph-name="mu" unicode="&#xb5;" horiz-adv-x="544" 
d="M164 -180h-102v622h102v-215c0 -29 1 -61 19 -96c22 -42 57 -53 88 -53c54 0 77 37 87 54c18 31 22 56 22 101v209h102v-442h-102v77c-19 -67 -77 -91 -112 -91c-36 0 -83 24 -104 74v-240z" />
    <glyph glyph-name="mu" unicode="&#x3bc;" horiz-adv-x="544" 
d="M164 -180h-102v622h102v-215c0 -29 1 -61 19 -96c22 -42 57 -53 88 -53c54 0 77 37 87 54c18 31 22 56 22 101v209h102v-442h-102v77c-19 -67 -77 -91 -112 -91c-36 0 -83 24 -104 74v-240z" />
    <glyph glyph-name="paragraph" unicode="&#xb6;" horiz-adv-x="642" 
d="M313 -102h-86v435h-14c-114 0 -189 73 -189 180c0 80 39 144 114 171c20 7 55 16 120 16h312v-80h-69v-722h-86v722h-102v-722z" />
    <glyph glyph-name="periodcentered" unicode="&#xb7;" horiz-adv-x="233" 
d="M34 357c0 45 37 82 82 82s82 -37 82 -82c0 -37 -27 -82 -82 -82s-82 45 -82 82z" />
    <glyph glyph-name="cedilla" unicode="&#xb8;" horiz-adv-x="512" 
d="M255 0h62l-32 -60h14c35 0 75 -27 75 -78c0 -56 -52 -102 -120 -102c-38 0 -71 8 -104 30l28 51c22 -15 46 -19 61 -19c40 0 53 24 53 40c0 17 -12 34 -45 34c-11 0 -19 -2 -24 -4l-18 15z" />
    <glyph glyph-name="onesuperior" unicode="&#xb9;" horiz-adv-x="384" 
d="M166 280v351h-82l44 69h116v-420h-78z" />
    <glyph glyph-name="ordmasculine" unicode="&#xba;" horiz-adv-x="376" 
d="M188 412c-84 0 -146 57 -146 141s62 141 146 141s146 -57 146 -141s-62 -141 -146 -141zM188 636c-35 0 -78 -27 -78 -83s43 -83 78 -83s78 27 78 83s-43 83 -78 83zM47 356h282v-42h-282v42z" />
    <glyph glyph-name="guillemotright" unicode="&#xbb;" horiz-adv-x="530" 
d="M386 228l-136 178l68 48l172 -226l-172 -226l-68 48zM190 228l-136 178l68 48l172 -226l-172 -226l-68 48z" />
    <glyph glyph-name="onequarter" unicode="&#xbc;" horiz-adv-x="834" 
d="M166 280v351h-82l44 69h114v-420h-76zM232 18l401 694l50 -30l-401 -694zM757 451v-322h45v-69h-45v-60h-76v60h-219zM593 129h88v120z" />
    <glyph glyph-name="onehalf" unicode="&#xbd;" horiz-adv-x="834" 
d="M166 280v351h-82l44 69h113v-420h-75zM169 18l401 694l50 -30l-401 -694zM778 69v-69h-304l153 170c14 15 41 48 53 65c18 27 22 45 22 60c0 38 -30 63 -66 63c-40 0 -73 -32 -77 -77h-73c2 28 10 70 38 101c39 43 87 45 108 45c95 0 145 -60 145 -130
c0 -40 -18 -70 -31 -89c-19 -29 -38 -51 -58 -74l-58 -65h148z" />
    <glyph glyph-name="threequarters" unicode="&#xbe;" horiz-adv-x="836" 
d="M32 405h73c5 -43 35 -63 73 -63c49 0 72 28 72 65c0 28 -13 61 -72 61h-26v69h26c22 0 66 3 66 50c0 22 -13 51 -61 51c-40 0 -62 -23 -64 -58h-74c5 32 11 54 25 74c34 48 86 53 115 53c82 0 134 -42 134 -117c0 -14 -1 -65 -55 -88c10 -4 62 -25 62 -96
c0 -57 -37 -133 -148 -133c-84 0 -121 48 -135 82c-6 15 -10 33 -11 50zM234 18l401 694l51 -30l-401 -694zM759 451v-322h45v-69h-45v-60h-75v60h-220zM595 129h89v120z" />
    <glyph glyph-name="questiondown" unicode="&#xbf;" horiz-adv-x="450" 
d="M290 -13h104c2 -25 2 -32 2 -36c0 -83 -54 -165 -171 -165c-98 0 -171 64 -171 177c0 69 32 99 62 120s49 29 105 50c24 9 58 21 58 61c0 29 -21 53 -52 53c-22 0 -36 -9 -45 -25c-6 -11 -9 -26 -9 -40v-6h-104c2 42 9 68 28 96c38 57 95 67 131 67
c78 0 155 -53 155 -151s-73 -128 -124 -147c-35 -13 -60 -20 -77 -34c-21 -17 -24 -38 -24 -56c0 -45 24 -73 67 -73c39 0 67 22 67 75c0 11 -2 29 -2 34zM291 448c0 -36 -30 -66 -66 -66s-66 30 -66 66s30 66 66 66s66 -30 66 -66z" />
    <glyph glyph-name="Agrave" unicode="&#xc0;" horiz-adv-x="688" 
d="M568 0l-74 170h-297l-77 -170h-116l348 740l332 -740h-116zM240 270h212l-104 236zM376 762l-186 126l90 62l146 -148z" />
    <glyph glyph-name="Aacute" unicode="&#xc1;" horiz-adv-x="688" 
d="M568 0l-74 170h-297l-77 -170h-116l348 740l332 -740h-116zM240 270h212l-104 236zM314 762l-50 40l146 148l90 -62z" />
    <glyph glyph-name="Acircumflex" unicode="&#xc2;" horiz-adv-x="688" 
d="M568 0l-74 170h-297l-77 -170h-116l348 740l332 -740h-116zM240 270h212l-104 236zM246 762l-68 58l174 142l174 -142l-68 -58l-106 86z" />
    <glyph glyph-name="Atilde" unicode="&#xc3;" horiz-adv-x="688" 
d="M568 0l-74 170h-297l-77 -170h-116l348 740l332 -740h-116zM240 270h212l-104 236zM482 906l60 -48c-28 -59 -69 -89 -123 -89c-23 0 -38 5 -57 14c-13 6 -23 12 -44 21c-13 5 -24 9 -38 9c-27 0 -47 -18 -54 -45l-64 44c9 20 23 41 42 57c22 18 48 28 78 28
c17 0 35 -4 51 -9c9 -3 22 -8 48 -22c12 -6 24 -13 42 -13c40 0 55 38 59 53z" />
    <glyph glyph-name="Adieresis" unicode="&#xc4;" horiz-adv-x="688" 
d="M568 0l-74 170h-297l-77 -170h-116l348 740l332 -740h-116zM240 270h212l-104 236zM184 834c0 36 30 66 66 66s66 -30 66 -66s-30 -66 -66 -66s-66 30 -66 66zM392 834c0 36 30 66 66 66s66 -30 66 -66s-30 -66 -66 -66s-66 30 -66 66z" />
    <glyph glyph-name="Aring" unicode="&#xc5;" horiz-adv-x="688" 
d="M568 0l-74 170h-297l-77 -170h-116l348 740l332 -740h-116zM240 270h212l-104 236zM250 864c0 56 46 102 102 102s102 -46 102 -102s-46 -102 -102 -102s-102 46 -102 102zM306 864c0 -26 20 -46 46 -46s46 20 46 46s-20 46 -46 46s-46 -20 -46 -46z" />
    <glyph glyph-name="AE" unicode="&#xc6;" horiz-adv-x="978" 
d="M130 0h-130l491 700h435v-100h-278v-168h270v-100h-270v-232h278v-100h-386v168h-293zM540 268v327l-224 -327h224z" />
    <glyph glyph-name="Ccedilla" unicode="&#xc7;" horiz-adv-x="646" 
d="M600 662v-126c-74 72 -151 78 -189 78c-152 0 -251 -113 -251 -267c0 -149 103 -261 251 -261c33 0 110 6 189 81v-128c-43 -27 -89 -43 -169 -52l-25 -47h10c50 0 79 -36 79 -78c0 -69 -64 -112 -127 -112c-25 0 -68 5 -105 30l32 61c19 -12 41 -19 61 -19
c40 0 53 23 53 40s-12 34 -45 34c-11 0 -18 -1 -24 -4l-18 13l44 83c-83 9 -149 41 -206 95c-68 65 -112 150 -112 264c0 91 28 194 112 274c73 70 157 93 253 93c90 0 144 -23 187 -52z" />
    <glyph glyph-name="Egrave" unicode="&#xc8;" horiz-adv-x="518" 
d="M466 700v-100h-278v-168h270v-100h-270v-232h278v-100h-386v700h386zM296 762l-186 126l90 62l146 -148z" />
    <glyph glyph-name="Eacute" unicode="&#xc9;" horiz-adv-x="518" 
d="M466 700v-100h-278v-168h270v-100h-270v-232h278v-100h-386v700h386zM236 762l-50 40l146 148l90 -62z" />
    <glyph glyph-name="Ecircumflex" unicode="&#xca;" horiz-adv-x="518" 
d="M466 700v-100h-278v-168h270v-100h-270v-232h278v-100h-386v700h386zM170 762l-68 58l174 142l174 -142l-68 -58l-106 86z" />
    <glyph glyph-name="Edieresis" unicode="&#xcb;" horiz-adv-x="518" 
d="M466 700v-100h-278v-168h270v-100h-270v-232h278v-100h-386v700h386zM108 834c0 36 30 66 66 66s66 -30 66 -66s-30 -66 -66 -66s-66 30 -66 66zM316 834c0 36 30 66 66 66s66 -30 66 -66s-30 -66 -66 -66s-66 30 -66 66z" />
    <glyph glyph-name="Igrave" unicode="&#xcc;" horiz-adv-x="268" 
d="M80 700h108v-700h-108v700zM132 748l-146 168l104 38l102 -178z" />
    <glyph glyph-name="Iacute" unicode="&#xcd;" horiz-adv-x="268" 
d="M80 700h108v-700h-108v700zM178 954l104 -38l-146 -168l-60 28z" />
    <glyph glyph-name="Icircumflex" unicode="&#xce;" horiz-adv-x="268" 
d="M80 700h108v-700h-108v700zM51 771l-62 52l145 137l145 -137l-62 -52l-83 79z" />
    <glyph glyph-name="Idieresis" unicode="&#xcf;" horiz-adv-x="268" 
d="M80 700h108v-700h-108v700zM-3 834c0 32 26 58 58 58s58 -26 58 -58s-26 -58 -58 -58s-58 26 -58 58zM155 834c0 32 26 58 58 58s58 -26 58 -58s-26 -58 -58 -58s-58 26 -58 58z" />
    <glyph glyph-name="Eth" unicode="&#xd0;" horiz-adv-x="670" 
d="M80 700h147c101 0 181 -9 260 -68c115 -86 135 -209 135 -283c0 -116 -49 -217 -141 -282c-81 -57 -158 -67 -256 -67h-145v340h-84v90h84v270zM188 600v-170h146v-90h-146v-240h45c55 0 125 3 186 50c58 44 91 117 91 199c0 79 -31 158 -90 202c-61 46 -134 49 -187 49
h-45z" />
    <glyph glyph-name="Ntilde" unicode="&#xd1;" horiz-adv-x="774" 
d="M188 0h-108v746l506 -530v484h108v-742l-506 530v-488zM516 906l60 -48c-28 -59 -69 -89 -123 -89c-23 0 -38 5 -57 14c-13 6 -23 12 -44 21c-13 5 -24 9 -38 9c-27 0 -47 -18 -54 -45l-64 44c9 20 23 41 42 57c22 18 48 28 78 28c17 0 35 -4 51 -9c9 -3 22 -8 48 -22
c12 -6 24 -13 42 -13c40 0 55 38 59 53z" />
    <glyph glyph-name="Ograve" unicode="&#xd2;" horiz-adv-x="824" 
d="M412 714c209 0 364 -159 364 -365c0 -204 -154 -363 -364 -363s-364 159 -364 363c0 206 155 365 364 365zM412 86c148 0 252 109 252 263c0 155 -104 265 -252 265s-252 -110 -252 -265c0 -154 104 -263 252 -263zM456 762l-186 126l90 62l146 -148z" />
    <glyph glyph-name="Oacute" unicode="&#xd3;" horiz-adv-x="824" 
d="M412 714c209 0 364 -159 364 -365c0 -204 -154 -363 -364 -363s-364 159 -364 363c0 206 155 365 364 365zM412 86c148 0 252 109 252 263c0 155 -104 265 -252 265s-252 -110 -252 -265c0 -154 104 -263 252 -263zM376 762l-50 40l146 148l90 -62z" />
    <glyph glyph-name="Ocircumflex" unicode="&#xd4;" horiz-adv-x="824" 
d="M412 714c209 0 364 -159 364 -365c0 -204 -154 -363 -364 -363s-364 159 -364 363c0 206 155 365 364 365zM412 86c148 0 252 109 252 263c0 155 -104 265 -252 265s-252 -110 -252 -265c0 -154 104 -263 252 -263zM306 762l-68 58l174 142l174 -142l-68 -58l-106 86z
" />
    <glyph glyph-name="Otilde" unicode="&#xd5;" horiz-adv-x="824" 
d="M412 714c209 0 364 -159 364 -365c0 -204 -154 -363 -364 -363s-364 159 -364 363c0 206 155 365 364 365zM412 86c148 0 252 109 252 263c0 155 -104 265 -252 265s-252 -110 -252 -265c0 -154 104 -263 252 -263zM546 906l60 -48c-28 -59 -69 -89 -123 -89
c-23 0 -38 5 -57 14c-13 6 -23 12 -44 21c-13 5 -24 9 -38 9c-27 0 -47 -18 -54 -45l-64 44c9 20 23 41 42 57c22 18 48 28 78 28c17 0 35 -4 51 -9c9 -3 22 -8 48 -22c12 -6 24 -13 42 -13c40 0 55 38 59 53z" />
    <glyph glyph-name="Odieresis" unicode="&#xd6;" horiz-adv-x="824" 
d="M412 714c209 0 364 -159 364 -365c0 -204 -154 -363 -364 -363s-364 159 -364 363c0 206 155 365 364 365zM412 86c148 0 252 109 252 263c0 155 -104 265 -252 265s-252 -110 -252 -265c0 -154 104 -263 252 -263zM244 834c0 36 30 66 66 66s66 -30 66 -66
s-30 -66 -66 -66s-66 30 -66 66zM452 834c0 36 30 66 66 66s66 -30 66 -66s-30 -66 -66 -66s-66 30 -66 66z" />
    <glyph glyph-name="multiply" unicode="&#xd7;" horiz-adv-x="520" 
d="M260 287l-150 -150l-66 66l150 150l-150 150l66 66l150 -150l150 150l66 -66l-150 -150l150 -150l-66 -66z" />
    <glyph glyph-name="Oslash" unicode="&#xd8;" horiz-adv-x="824" 
d="M22 29l97 97c-54 75 -71 155 -71 223c0 206 155 365 364 365c116 0 185 -42 225 -74l97 99l60 -60l-97 -99c39 -47 79 -120 79 -231c0 -204 -153 -363 -364 -363c-114 0 -186 41 -233 80l-97 -97zM620 510l-365 -374c29 -23 76 -50 157 -50c148 0 252 108 252 263
c0 83 -25 132 -44 161zM195 196l365 374c-28 20 -74 44 -148 44c-148 0 -252 -109 -252 -265c0 -78 19 -124 35 -153z" />
    <glyph glyph-name="Ugrave" unicode="&#xd9;" horiz-adv-x="678" 
d="M80 700h108v-422c0 -38 1 -84 21 -121c21 -38 65 -71 130 -71c54 0 104 22 130 71c20 38 21 81 21 121v422h108v-450c0 -56 -12 -123 -65 -182c-37 -41 -98 -82 -194 -82s-157 41 -194 82c-53 59 -65 126 -65 182v450zM356 762l-186 126l90 62l146 -148z" />
    <glyph glyph-name="Uacute" unicode="&#xda;" horiz-adv-x="678" 
d="M80 700h108v-422c0 -38 1 -84 21 -121c21 -38 65 -71 130 -71c54 0 104 22 130 71c20 38 21 81 21 121v422h108v-450c0 -56 -12 -123 -65 -182c-37 -41 -98 -82 -194 -82s-157 41 -194 82c-53 59 -65 126 -65 182v450zM312 762l-50 40l146 148l90 -62z" />
    <glyph glyph-name="Ucircumflex" unicode="&#xdb;" horiz-adv-x="678" 
d="M80 700h108v-422c0 -38 1 -84 21 -121c21 -38 65 -71 130 -71c54 0 104 22 130 71c20 38 21 81 21 121v422h108v-450c0 -56 -12 -123 -65 -182c-37 -41 -98 -82 -194 -82s-157 41 -194 82c-53 59 -65 126 -65 182v450zM236 762l-68 58l174 142l174 -142l-68 -58l-106 86z
" />
    <glyph glyph-name="Udieresis" unicode="&#xdc;" horiz-adv-x="678" 
d="M80 700h108v-422c0 -38 1 -84 21 -121c21 -38 65 -71 130 -71c54 0 104 22 130 71c20 38 21 81 21 121v422h108v-450c0 -56 -12 -123 -65 -182c-37 -41 -98 -82 -194 -82s-157 41 -194 82c-53 59 -65 126 -65 182v450zM174 834c0 36 30 66 66 66s66 -30 66 -66
s-30 -66 -66 -66s-66 30 -66 66zM382 834c0 36 30 66 66 66s66 -30 66 -66s-30 -66 -66 -66s-66 30 -66 66z" />
    <glyph glyph-name="Yacute" unicode="&#xdd;" horiz-adv-x="566" 
d="M229 0v302l-229 398h120l163 -282l163 282h120l-229 -398v-302h-108zM256 762l-50 40l146 148l90 -62z" />
    <glyph glyph-name="Thorn" unicode="&#xde;" horiz-adv-x="499" 
d="M80 700h108v-105h47c45 0 101 -3 153 -38c57 -38 87 -102 87 -170c0 -75 -34 -124 -68 -153c-55 -47 -120 -55 -171 -55h-48v-179h-108v700zM188 495v-216h48c83 0 131 44 131 109c0 106 -105 107 -132 107h-47z" />
    <glyph glyph-name="germandbls" unicode="&#xdf;" horiz-adv-x="574" 
d="M164 0h-102v350h-36v92h36v81c0 39 3 99 43 151c43 57 111 74 165 74c114 0 207 -75 207 -198c0 -32 -9 -96 -74 -138c77 -28 129 -97 129 -190c0 -147 -128 -236 -269 -236h-9v98h11c96 0 161 62 161 141c0 53 -31 91 -68 108c-24 11 -62 17 -96 17h-8v92h13
c72 0 110 56 110 115c0 50 -29 99 -106 99c-45 0 -107 -17 -107 -128v-528z" />
    <glyph glyph-name="agrave" unicode="&#xe0;" 
d="M388 442h102v-442h-102v46c-18 -21 -58 -60 -134 -60c-135 0 -214 116 -214 235s76 233 215 233c33 0 91 -7 133 -64v52zM270 362c-75 0 -124 -64 -124 -143c0 -75 45 -141 124 -141c78 0 124 61 124 142c0 95 -60 142 -124 142zM304 508l-164 152l94 48l126 -164z" />
    <glyph glyph-name="aacute" unicode="&#xe1;" 
d="M388 442h102v-442h-102v46c-18 -21 -58 -60 -134 -60c-135 0 -214 116 -214 235s76 233 215 233c33 0 91 -7 133 -64v52zM270 362c-75 0 -124 -64 -124 -143c0 -75 45 -141 124 -141c78 0 124 61 124 142c0 95 -60 142 -124 142zM312 708l94 -48l-164 -152l-56 36z" />
    <glyph glyph-name="acircumflex" unicode="&#xe2;" 
d="M388 442h102v-442h-102v46c-18 -21 -58 -60 -134 -60c-135 0 -214 116 -214 235s76 233 215 233c33 0 91 -7 133 -64v52zM270 362c-75 0 -124 -64 -124 -143c0 -75 45 -141 124 -141c78 0 124 61 124 142c0 95 -60 142 -124 142zM256 598l-92 -90l-70 56l162 144
l162 -144l-70 -56z" />
    <glyph glyph-name="atilde" unicode="&#xe3;" 
d="M388 442h102v-442h-102v46c-18 -21 -58 -60 -134 -60c-135 0 -214 116 -214 235s76 233 215 233c33 0 91 -7 133 -64v52zM270 362c-75 0 -124 -64 -124 -143c0 -75 45 -141 124 -141c78 0 124 61 124 142c0 95 -60 142 -124 142zM387 684l61 -48
c-30 -64 -75 -90 -122 -90c-25 0 -39 7 -58 17c-20 11 -32 18 -44 23c-22 10 -35 10 -38 10c-23 0 -46 -17 -54 -48l-62 43c9 15 27 42 44 57c14 12 38 28 74 28c18 0 34 -4 51 -10c18 -7 38 -18 48 -24c11 -7 24 -16 43 -16c35 0 50 32 57 58z" />
    <glyph glyph-name="adieresis" unicode="&#xe4;" 
d="M388 442h102v-442h-102v46c-18 -21 -58 -60 -134 -60c-135 0 -214 116 -214 235s76 233 215 233c33 0 91 -7 133 -64v52zM270 362c-75 0 -124 -64 -124 -143c0 -75 45 -141 124 -141c78 0 124 61 124 142c0 95 -60 142 -124 142zM98 624c0 36 30 66 66 66s66 -30 66 -66
s-30 -66 -66 -66s-66 30 -66 66zM286 624c0 36 30 66 66 66s66 -30 66 -66s-30 -66 -66 -66s-66 30 -66 66z" />
    <glyph glyph-name="aring" unicode="&#xe5;" 
d="M388 442h102v-442h-102v46c-18 -21 -58 -60 -134 -60c-135 0 -214 116 -214 235s76 233 215 233c33 0 91 -7 133 -64v52zM270 362c-75 0 -124 -64 -124 -143c0 -75 45 -141 124 -141c78 0 124 61 124 142c0 95 -60 142 -124 142zM156 640c0 56 44 100 100 100
s100 -44 100 -100s-44 -100 -100 -100s-100 44 -100 100zM210 640c0 -26 20 -46 46 -46s46 20 46 46s-20 46 -46 46s-46 -20 -46 -46z" />
    <glyph glyph-name="ae" unicode="&#xe6;" horiz-adv-x="794" 
d="M102 345v96l12 2c52 8 76 11 114 11c84 0 127 -23 156 -63c27 29 73 63 158 63c72 0 129 -23 167 -81c28 -43 41 -104 41 -161v-16h-317c2 -74 52 -118 120 -118c26 0 47 5 70 24c17 14 34 35 45 61l86 -49c-14 -26 -34 -54 -58 -75c-55 -49 -125 -53 -149 -53
c-45 0 -113 14 -163 72c-39 -46 -94 -72 -161 -72c-102 0 -183 57 -183 148c0 77 58 150 173 150c35 0 75 -6 117 -29v11c0 28 -10 55 -27 71c-22 21 -55 24 -81 24c-37 0 -79 -5 -120 -16zM333 170c-23 10 -64 26 -105 26c-60 0 -90 -29 -90 -61c0 -31 31 -61 90 -61
c43 0 85 18 116 52c-7 15 -11 29 -11 44zM440 280h205c-12 52 -52 82 -101 82c-41 0 -89 -24 -104 -82z" />
    <glyph glyph-name="ccedilla" unicode="&#xe7;" horiz-adv-x="438" 
d="M406 422v-134c-28 46 -77 74 -128 74c-65 0 -132 -49 -132 -142c0 -77 48 -142 131 -142c78 0 117 57 129 75v-134c-28 -16 -65 -30 -113 -33l-25 -46h14c35 0 75 -27 75 -78c0 -56 -52 -102 -120 -102c-38 0 -71 8 -104 30l28 51c22 -15 46 -19 61 -19c40 0 53 24 53 40
c0 17 -12 34 -45 34c-11 0 -19 -2 -24 -4l-18 15l44 82c-63 9 -104 40 -129 65c-46 46 -63 103 -63 164c0 84 34 140 72 176c47 44 100 60 166 60c62 0 100 -15 128 -32z" />
    <glyph glyph-name="egrave" unicode="&#xe8;" horiz-adv-x="506" 
d="M380 163l86 -48c-14 -26 -34 -54 -58 -75c-54 -48 -125 -54 -154 -54c-102 0 -214 71 -214 232c0 142 83 236 213 236c79 0 136 -34 168 -81c27 -40 41 -102 41 -161v-16h-316c2 -81 65 -118 119 -118c28 0 52 10 70 24c4 3 29 23 45 61zM152 280h205
c-12 51 -52 82 -102 82c-49 0 -90 -33 -103 -82zM280 508l-164 152l94 48l126 -164z" />
    <glyph glyph-name="eacute" unicode="&#xe9;" horiz-adv-x="506" 
d="M380 163l86 -48c-14 -26 -34 -54 -58 -75c-54 -48 -125 -54 -154 -54c-102 0 -214 71 -214 232c0 142 83 236 213 236c79 0 136 -34 168 -81c27 -40 41 -102 41 -161v-16h-316c2 -81 65 -118 119 -118c28 0 52 10 70 24c4 3 29 23 45 61zM152 280h205
c-12 51 -52 82 -102 82c-49 0 -90 -33 -103 -82zM292 708l94 -48l-164 -152l-56 36z" />
    <glyph glyph-name="ecircumflex" unicode="&#xea;" horiz-adv-x="506" 
d="M380 163l86 -48c-14 -26 -34 -54 -58 -75c-54 -48 -125 -54 -154 -54c-102 0 -214 71 -214 232c0 142 83 236 213 236c79 0 136 -34 168 -81c27 -40 41 -102 41 -161v-16h-316c2 -81 65 -118 119 -118c28 0 52 10 70 24c4 3 29 23 45 61zM152 280h205
c-12 51 -52 82 -102 82c-49 0 -90 -33 -103 -82zM242 598l-92 -90l-70 56l162 144l162 -144l-70 -56z" />
    <glyph glyph-name="edieresis" unicode="&#xeb;" horiz-adv-x="506" 
d="M380 163l86 -48c-14 -26 -34 -54 -58 -75c-54 -48 -125 -54 -154 -54c-102 0 -214 71 -214 232c0 142 83 236 213 236c79 0 136 -34 168 -81c27 -40 41 -102 41 -161v-16h-316c2 -81 65 -118 119 -118c28 0 52 10 70 24c4 3 29 23 45 61zM152 280h205
c-12 51 -52 82 -102 82c-49 0 -90 -33 -103 -82zM92 624c0 36 30 66 66 66s66 -30 66 -66s-30 -66 -66 -66s-66 30 -66 66zM280 624c0 36 30 66 66 66s66 -30 66 -66s-30 -66 -66 -66s-66 30 -66 66z" />
    <glyph glyph-name="igrave" unicode="&#xec;" horiz-adv-x="230" 
d="M65 442h103v-442h-103v442zM115 508l-120 186l106 24l77 -192z" />
    <glyph glyph-name="iacute" unicode="&#xed;" horiz-adv-x="226" 
d="M62 442h103v-442h-103v442zM128 718l106 -24l-120 -186l-62 18z" />
    <glyph glyph-name="icircumflex" unicode="&#xee;" horiz-adv-x="226" 
d="M62 442h102v-442h-102v442zM40 508l-56 50l129 134l129 -134l-56 -50l-73 75z" />
    <glyph glyph-name="idieresis" unicode="&#xef;" horiz-adv-x="226" 
d="M62 442h102v-442h-102v442zM-8 612c0 32 22 54 54 54s54 -22 54 -54s-22 -54 -54 -54s-54 22 -54 54zM126 612c0 32 22 54 54 54s54 -22 54 -54s-22 -54 -54 -54s-54 22 -54 54z" />
    <glyph glyph-name="eth" unicode="&#xf0;" 
d="M87 632l30 76c110 -15 179 -52 214 -74l139 50l20 -66l-104 -34c37 -29 60 -61 79 -99c37 -74 47 -153 47 -224c0 -54 -4 -115 -39 -173c-50 -83 -134 -102 -195 -102c-138 0 -238 98 -238 234c0 46 11 116 67 173c52 52 106 61 157 61c37 0 79 -6 127 -50h3
c-23 84 -85 131 -106 146l-186 -67l-20 66l130 45c-42 21 -84 33 -125 38zM276 78c63 0 130 40 130 141c0 103 -68 143 -130 143s-130 -40 -130 -143c0 -101 67 -141 130 -141z" />
    <glyph glyph-name="ntilde" unicode="&#xf1;" horiz-adv-x="504" 
d="M62 0v442h102v-41c20 23 55 53 121 53c64 0 108 -28 130 -60c25 -37 27 -88 27 -123v-271h-102v252c0 43 -2 110 -82 110c-88 0 -94 -81 -94 -150v-212h-102zM380 684l61 -48c-30 -64 -75 -90 -122 -90c-25 0 -39 7 -58 17c-20 11 -32 18 -44 23c-22 10 -35 10 -38 10
c-23 0 -46 -17 -54 -48l-62 43c9 15 27 42 44 57c14 12 38 28 74 28c18 0 34 -4 51 -10c18 -7 38 -18 48 -24c11 -7 24 -16 43 -16c35 0 50 32 57 58z" />
    <glyph glyph-name="ograve" unicode="&#xf2;" 
d="M276 454c134 0 236 -98 236 -234c0 -135 -102 -234 -236 -234s-236 99 -236 234c0 136 102 234 236 234zM276 78c63 0 130 40 130 141c0 103 -68 143 -130 143s-130 -40 -130 -143c0 -101 67 -141 130 -141zM280 508l-164 152l94 48l126 -164z" />
    <glyph glyph-name="oacute" unicode="&#xf3;" 
d="M276 454c134 0 236 -98 236 -234c0 -135 -102 -234 -236 -234s-236 99 -236 234c0 136 102 234 236 234zM276 78c63 0 130 40 130 141c0 103 -68 143 -130 143s-130 -40 -130 -143c0 -101 67 -141 130 -141zM315 708l94 -48l-164 -152l-56 36z" />
    <glyph glyph-name="ocircumflex" unicode="&#xf4;" 
d="M276 454c134 0 236 -98 236 -234c0 -135 -102 -234 -236 -234s-236 99 -236 234c0 136 102 234 236 234zM276 78c63 0 130 40 130 141c0 103 -68 143 -130 143s-130 -40 -130 -143c0 -101 67 -141 130 -141zM271 598l-92 -90l-70 56l162 144l162 -144l-70 -56z" />
    <glyph glyph-name="otilde" unicode="&#xf5;" 
d="M276 454c134 0 236 -98 236 -234c0 -135 -102 -234 -236 -234s-236 99 -236 234c0 136 102 234 236 234zM276 78c63 0 130 40 130 141c0 103 -68 143 -130 143s-130 -40 -130 -143c0 -101 67 -141 130 -141zM402 684l61 -48c-30 -64 -75 -90 -122 -90c-25 0 -39 7 -58 17
c-20 11 -32 18 -44 23c-22 10 -35 10 -38 10c-23 0 -46 -17 -54 -48l-62 43c9 15 27 42 44 57c14 12 38 28 74 28c18 0 34 -4 51 -10c18 -7 38 -18 48 -24c11 -7 24 -16 43 -16c35 0 50 32 57 58z" />
    <glyph glyph-name="odieresis" unicode="&#xf6;" 
d="M276 454c134 0 236 -98 236 -234c0 -135 -102 -234 -236 -234s-236 99 -236 234c0 136 102 234 236 234zM276 78c63 0 130 40 130 141c0 103 -68 143 -130 143s-130 -40 -130 -143c0 -101 67 -141 130 -141zM113 624c0 36 30 66 66 66s66 -30 66 -66s-30 -66 -66 -66
s-66 30 -66 66zM301 624c0 36 30 66 66 66s66 -30 66 -66s-30 -66 -66 -66s-66 30 -66 66z" />
    <glyph glyph-name="divide" unicode="&#xf7;" horiz-adv-x="522" 
d="M33 306v94h456v-94h-456zM195 540c0 36 30 66 66 66s66 -30 66 -66s-30 -66 -66 -66s-66 30 -66 66zM195 166c0 36 30 66 66 66s66 -30 66 -66s-30 -66 -66 -66s-66 30 -66 66z" />
    <glyph glyph-name="oslash" unicode="&#xf8;" 
d="M10 7l73 77c-13 18 -43 63 -43 136c0 135 102 234 238 234c73 0 115 -27 137 -44l71 74l48 -48l-71 -74c23 -27 49 -71 49 -142c0 -136 -103 -234 -236 -234c-76 0 -117 25 -145 50l-73 -77zM390 293l-189 -193c24 -16 45 -22 73 -22c69 0 132 40 132 141
c0 30 -4 51 -16 74zM159 152l189 193c-27 14 -51 17 -69 17c-67 0 -133 -41 -133 -143c0 -23 3 -44 13 -67z" />
    <glyph glyph-name="ugrave" unicode="&#xf9;" horiz-adv-x="502" 
d="M62 442h102v-254c0 -27 0 -56 19 -80c14 -18 36 -30 68 -30s54 12 68 30c19 24 19 53 19 80v254h102v-256c0 -52 -3 -100 -47 -145c-46 -48 -113 -55 -144 -55c-27 0 -93 7 -140 55c-44 45 -47 93 -47 145v256zM250 508l-164 152l94 48l126 -164z" />
    <glyph glyph-name="uacute" unicode="&#xfa;" horiz-adv-x="502" 
d="M62 442h102v-254c0 -27 0 -56 19 -80c14 -18 36 -30 68 -30s54 12 68 30c19 24 19 53 19 80v254h102v-256c0 -52 -3 -100 -47 -145c-46 -48 -113 -55 -144 -55c-27 0 -93 7 -140 55c-44 45 -47 93 -47 145v256zM312 708l94 -48l-164 -152l-56 36z" />
    <glyph glyph-name="ucircumflex" unicode="&#xfb;" horiz-adv-x="502" 
d="M62 442h102v-254c0 -27 0 -56 19 -80c14 -18 36 -30 68 -30s54 12 68 30c19 24 19 53 19 80v254h102v-256c0 -52 -3 -100 -47 -145c-46 -48 -113 -55 -144 -55c-27 0 -93 7 -140 55c-44 45 -47 93 -47 145v256zM248 598l-92 -90l-70 56l162 144l162 -144l-70 -56z" />
    <glyph glyph-name="udieresis" unicode="&#xfc;" horiz-adv-x="502" 
d="M62 442h102v-254c0 -27 0 -56 19 -80c14 -18 36 -30 68 -30s54 12 68 30c19 24 19 53 19 80v254h102v-256c0 -52 -3 -100 -47 -145c-46 -48 -113 -55 -144 -55c-27 0 -93 7 -140 55c-44 45 -47 93 -47 145v256zM90 624c0 36 30 66 66 66s66 -30 66 -66s-30 -66 -66 -66
s-66 30 -66 66zM278 624c0 36 30 66 66 66s66 -30 66 -66s-30 -66 -66 -66s-66 30 -66 66z" />
    <glyph glyph-name="yacute" unicode="&#xfd;" horiz-adv-x="506" 
d="M49 -210l154 292l-197 360h124l130 -249l124 249h116l-335 -652h-116zM323 708l94 -48l-164 -152l-56 36z" />
    <glyph glyph-name="thorn" unicode="&#xfe;" 
d="M164 735v-341c42 50 99 60 134 60c115 0 214 -90 214 -232c0 -145 -109 -236 -213 -236c-24 0 -89 8 -135 65v-261h-102v945h102zM283 362c-64 0 -125 -49 -125 -143c0 -75 43 -141 125 -141c77 0 123 64 123 143c0 92 -61 141 -123 141z" />
    <glyph glyph-name="ydieresis" unicode="&#xff;" horiz-adv-x="506" 
d="M49 -210l154 292l-197 360h124l130 -249l124 249h116l-335 -652h-116zM89 624c0 36 30 66 66 66s66 -30 66 -66s-30 -66 -66 -66s-66 30 -66 66zM277 624c0 36 30 66 66 66s66 -30 66 -66s-30 -66 -66 -66s-66 30 -66 66z" />
    <glyph glyph-name="Amacron" unicode="&#x100;" horiz-adv-x="688" 
d="M568 0l-74 170h-297l-77 -170h-116l348 740l332 -740h-116zM240 270h212l-104 236zM164 770v84h376v-84h-376z" />
    <glyph glyph-name="amacron" unicode="&#x101;" 
d="M388 442h102v-442h-102v46c-18 -21 -58 -60 -134 -60c-135 0 -214 116 -214 235s76 233 215 233c33 0 91 -7 133 -64v52zM270 362c-75 0 -124 -64 -124 -143c0 -75 45 -141 124 -141c78 0 124 61 124 142c0 95 -60 142 -124 142zM104 542v82h344v-82h-344z" />
    <glyph glyph-name="Abreve" unicode="&#x102;" horiz-adv-x="688" 
d="M568 0l-74 170h-297l-77 -170h-116l348 740l332 -740h-116zM240 270h212l-104 236zM181 873l84 37c11 -38 48 -58 89 -58s78 20 89 58l84 -37c-27 -63 -86 -107 -173 -107s-146 44 -173 107z" />
    <glyph glyph-name="abreve" unicode="&#x103;" 
d="M388 442h102v-442h-102v46c-18 -21 -58 -60 -134 -60c-135 0 -214 116 -214 235s76 233 215 233c33 0 91 -7 133 -64v52zM270 362c-75 0 -124 -64 -124 -143c0 -75 45 -141 124 -141c78 0 124 61 124 142c0 95 -60 142 -124 142zM342 688l84 -24
c-21 -73 -93 -124 -170 -124s-149 51 -170 124l84 24c15 -54 49 -68 86 -68s71 14 86 68z" />
    <glyph glyph-name="Aogonek" unicode="&#x104;" horiz-adv-x="688" 
d="M568 0l-74 170h-297l-77 -170h-116l348 740l332 -740c-19 -11 -40 -26 -54 -41c-11 -11 -22 -25 -22 -45c0 -35 35 -35 44 -35c20 0 38 4 52 8v-74c-23 -9 -54 -16 -78 -16c-59 0 -104 37 -104 93c0 25 8 46 27 67c13 14 35 31 53 43h-34zM240 270h212l-104 236z" />
    <glyph glyph-name="aogonek" unicode="&#x105;" 
d="M388 390v52h102v-442c-20 -11 -40 -26 -54 -41c-11 -11 -22 -25 -22 -46c0 -16 7 -37 45 -37c17 0 35 3 51 9v-65c-28 -17 -60 -20 -77 -20c-53 0 -101 32 -101 90c0 29 11 50 27 67c14 15 35 31 55 43h-26v46c-18 -21 -58 -60 -134 -60c-135 0 -214 116 -214 235
s76 233 215 233c33 0 91 -7 133 -64zM270 362c-75 0 -124 -64 -124 -143c0 -75 45 -141 124 -141c78 0 124 61 124 142c0 95 -60 142 -124 142z" />
    <glyph glyph-name="Cacute" unicode="&#x106;" horiz-adv-x="646" 
d="M600 662v-126c-74 72 -151 78 -189 78c-152 0 -251 -113 -251 -267c0 -149 103 -261 251 -261c33 0 110 6 189 81v-128c-22 -14 -87 -53 -192 -53c-60 0 -158 12 -248 97c-68 65 -112 150 -112 264c0 91 28 194 112 274c73 70 157 93 253 93c90 0 144 -23 187 -52z
M376 762l-50 40l146 148l90 -62z" />
    <glyph glyph-name="cacute" unicode="&#x107;" horiz-adv-x="438" 
d="M406 422v-134c-28 46 -77 74 -128 74c-65 0 -132 -49 -132 -142c0 -77 48 -142 131 -142c78 0 117 57 129 75v-134c-45 -26 -87 -33 -122 -33c-75 0 -135 21 -181 68c-46 46 -63 102 -63 164c0 84 34 140 72 176c47 44 100 60 166 60c62 0 100 -15 128 -32zM312 708
l94 -48l-164 -152l-56 36z" />
    <glyph glyph-name="Ccircumflex" unicode="&#x108;" horiz-adv-x="646" 
d="M600 662v-126c-74 72 -151 78 -189 78c-152 0 -251 -113 -251 -267c0 -149 103 -261 251 -261c33 0 110 6 189 81v-128c-22 -14 -87 -53 -192 -53c-60 0 -158 12 -248 97c-68 65 -112 150 -112 264c0 91 28 194 112 274c73 70 157 93 253 93c90 0 144 -23 187 -52z
M300 762l-68 58l174 142l174 -142l-68 -58l-106 86z" />
    <glyph glyph-name="ccircumflex" unicode="&#x109;" horiz-adv-x="438" 
d="M406 422v-134c-28 46 -77 74 -128 74c-65 0 -132 -49 -132 -142c0 -77 48 -142 131 -142c78 0 117 57 129 75v-134c-45 -26 -87 -33 -122 -33c-75 0 -135 21 -181 68c-46 46 -63 102 -63 164c0 84 34 140 72 176c47 44 100 60 166 60c62 0 100 -15 128 -32zM266 598
l-92 -90l-70 56l162 144l162 -144l-70 -56z" />
    <glyph glyph-name="Ccaron" unicode="&#x10c;" horiz-adv-x="646" 
d="M600 662v-126c-74 72 -151 78 -189 78c-152 0 -251 -113 -251 -267c0 -149 103 -261 251 -261c33 0 110 6 189 81v-128c-22 -14 -87 -53 -192 -53c-60 0 -158 12 -248 97c-68 65 -112 150 -112 264c0 91 28 194 112 274c73 70 157 93 253 93c90 0 144 -23 187 -52z
M512 962l68 -58l-174 -142l-174 142l68 58l106 -86z" />
    <glyph glyph-name="ccaron" unicode="&#x10d;" horiz-adv-x="438" 
d="M406 422v-134c-28 46 -77 74 -128 74c-65 0 -132 -49 -132 -142c0 -77 48 -142 131 -142c78 0 117 57 129 75v-134c-45 -26 -87 -33 -122 -33c-75 0 -135 21 -181 68c-46 46 -63 102 -63 164c0 84 34 140 72 176c47 44 100 60 166 60c62 0 100 -15 128 -32zM266 620
l92 88l70 -54l-162 -144l-162 144l70 54z" />
    <glyph glyph-name="Dcaron" unicode="&#x10e;" horiz-adv-x="670" 
d="M80 700h147c101 0 181 -9 260 -68c115 -86 135 -209 135 -283c0 -116 -49 -217 -141 -282c-81 -57 -158 -67 -256 -67h-145v700zM188 600v-500h45c55 0 125 3 186 50c58 44 91 117 91 199c0 79 -31 158 -90 202c-61 46 -134 49 -187 49h-45zM382 962l68 -58l-174 -142
l-174 142l68 58l106 -86z" />
    <glyph glyph-name="dcaron" unicode="&#x10f;" horiz-adv-x="695" 
d="M388 390v345h102v-735h-102v46c-17 -20 -57 -60 -137 -60c-130 0 -211 113 -211 236c0 117 76 232 215 232c33 0 91 -7 133 -64zM269 362c-74 0 -123 -63 -123 -144c0 -75 45 -140 123 -140c80 0 125 62 125 140c0 98 -61 144 -125 144zM530 464l106 266l94 -34
l-130 -260z" />
    <glyph glyph-name="Dcroat" unicode="&#x110;" horiz-adv-x="670" 
d="M80 700h147c101 0 181 -9 260 -68c115 -86 135 -209 135 -283c0 -116 -49 -217 -141 -282c-81 -57 -158 -67 -256 -67h-145v340h-84v90h84v270zM188 600v-170h146v-90h-146v-240h45c55 0 125 3 186 50c58 44 91 117 91 199c0 79 -31 158 -90 202c-61 46 -134 49 -187 49
h-45z" />
    <glyph glyph-name="dcroat" unicode="&#x111;" 
d="M388 390v175h-232v80h232v90h102v-90h76v-80h-76v-565h-102v46c-17 -20 -57 -60 -137 -60c-130 0 -211 113 -211 236c0 117 76 232 215 232c33 0 91 -7 133 -64zM269 362c-74 0 -123 -63 -123 -144c0 -75 45 -140 123 -140c80 0 125 62 125 140c0 98 -61 144 -125 144z
" />
    <glyph glyph-name="Emacron" unicode="&#x112;" horiz-adv-x="518" 
d="M466 700v-100h-278v-168h270v-100h-270v-232h278v-100h-386v700h386zM84 770v84h376v-84h-376z" />
    <glyph glyph-name="emacron" unicode="&#x113;" horiz-adv-x="506" 
d="M380 163l86 -48c-14 -26 -34 -54 -58 -75c-54 -48 -125 -54 -154 -54c-102 0 -214 71 -214 232c0 142 83 236 213 236c79 0 136 -34 168 -81c27 -40 41 -102 41 -161v-16h-316c2 -81 65 -118 119 -118c28 0 52 10 70 24c4 3 29 23 45 61zM152 280h205
c-12 51 -52 82 -102 82c-49 0 -90 -33 -103 -82zM78 542v82h344v-82h-344z" />
    <glyph glyph-name="Edotaccent" unicode="&#x116;" horiz-adv-x="518" 
d="M466 700v-100h-278v-168h270v-100h-270v-232h278v-100h-386v700h386zM206 840c0 39 31 70 70 70s70 -31 70 -70s-31 -70 -70 -70s-70 31 -70 70z" />
    <glyph glyph-name="edotaccent" unicode="&#x117;" horiz-adv-x="506" 
d="M380 163l86 -48c-14 -26 -34 -54 -58 -75c-54 -48 -125 -54 -154 -54c-102 0 -214 71 -214 232c0 142 83 236 213 236c79 0 136 -34 168 -81c27 -40 41 -102 41 -161v-16h-316c2 -81 65 -118 119 -118c28 0 52 10 70 24c4 3 29 23 45 61zM152 280h205
c-12 51 -52 82 -102 82c-49 0 -90 -33 -103 -82zM184 624c0 36 30 66 66 66s66 -30 66 -66s-30 -66 -66 -66s-66 30 -66 66z" />
    <glyph glyph-name="Eogonek" unicode="&#x118;" horiz-adv-x="518" 
d="M466 700v-100h-278v-168h270v-100h-270v-232h278v-100c-19 -11 -40 -26 -54 -41c-11 -11 -22 -25 -22 -45c0 -35 35 -35 44 -35c20 0 38 4 52 8v-74c-23 -9 -54 -16 -78 -16c-59 0 -104 37 -104 93c0 25 8 46 27 67c13 14 35 31 53 43h-304v700h386z" />
    <glyph glyph-name="eogonek" unicode="&#x119;" horiz-adv-x="506" 
d="M380 163l86 -48c-15 -27 -36 -55 -58 -75c-18 -16 -46 -35 -86 -45c-17 -10 -33 -22 -47 -36c-11 -11 -22 -25 -22 -46c0 -16 7 -37 45 -37c17 0 35 3 51 9v-65c-28 -17 -60 -20 -77 -20c-53 0 -101 32 -101 90c0 30 11 50 27 67c11 12 24 23 35 30
c-117 12 -193 102 -193 231c0 142 83 236 213 236c79 0 136 -34 168 -81c27 -40 41 -102 41 -161v-16h-316c2 -81 65 -118 119 -118c28 0 52 10 70 24c4 3 29 23 45 61zM152 280h205c-12 51 -52 82 -102 82c-49 0 -90 -33 -103 -82z" />
    <glyph glyph-name="Ecaron" unicode="&#x11a;" horiz-adv-x="518" 
d="M466 700v-100h-278v-168h270v-100h-270v-232h278v-100h-386v700h386zM382 962l68 -58l-174 -142l-174 142l68 58l106 -86z" />
    <glyph glyph-name="ecaron" unicode="&#x11b;" horiz-adv-x="506" 
d="M380 163l86 -48c-14 -26 -34 -54 -58 -75c-54 -48 -125 -54 -154 -54c-102 0 -214 71 -214 232c0 142 83 236 213 236c79 0 136 -34 168 -81c27 -40 41 -102 41 -161v-16h-316c2 -81 65 -118 119 -118c28 0 52 10 70 24c4 3 29 23 45 61zM152 280h205
c-12 51 -52 82 -102 82c-49 0 -90 -33 -103 -82zM250 620l92 88l70 -54l-162 -144l-162 144l70 54z" />
    <glyph glyph-name="Gcircumflex" unicode="&#x11c;" horiz-adv-x="780" 
d="M444 264v100h288v-22c0 -68 -8 -146 -63 -224c-37 -52 -116 -132 -263 -132c-112 0 -192 42 -252 102c-77 77 -106 168 -106 261s31 186 100 258c83 87 186 107 264 107c105 0 175 -40 213 -67c31 -22 56 -46 77 -76l-76 -72c-22 32 -87 115 -214 115
c-148 0 -252 -113 -252 -265c0 -155 113 -263 249 -263c111 0 192 76 209 178h-174zM306 762l-68 58l174 142l174 -142l-68 -58l-106 86z" />
    <glyph glyph-name="gcircumflex" unicode="&#x11d;" 
d="M388 394v48h102v-429c0 -45 -1 -103 -42 -156c-61 -78 -147 -81 -178 -81c-101 0 -190 52 -216 163h102c14 -39 47 -71 115 -71c108 0 117 87 117 123v58c-18 -22 -58 -63 -134 -63c-135 0 -214 114 -214 235c0 118 75 233 216 233c34 0 89 -8 132 -60zM269 362
c-75 0 -123 -64 -123 -141c0 -79 46 -143 123 -143c80 0 125 62 125 140c0 98 -61 144 -125 144zM256 598l-92 -90l-70 56l162 144l162 -144l-70 -56z" />
    <glyph glyph-name="Gbreve" unicode="&#x11e;" horiz-adv-x="780" 
d="M444 264v100h288v-22c0 -68 -8 -146 -63 -224c-37 -52 -116 -132 -263 -132c-112 0 -192 42 -252 102c-77 77 -106 168 -106 261s31 186 100 258c83 87 186 107 264 107c105 0 175 -40 213 -67c31 -22 56 -46 77 -76l-76 -72c-22 32 -87 115 -214 115
c-148 0 -252 -113 -252 -265c0 -155 113 -263 249 -263c111 0 192 76 209 178h-174zM241 873l84 37c11 -38 48 -58 89 -58s78 20 89 58l84 -37c-27 -63 -86 -107 -173 -107s-146 44 -173 107z" />
    <glyph glyph-name="gbreve" unicode="&#x11f;" 
d="M388 394v48h102v-429c0 -45 -1 -103 -42 -156c-61 -78 -147 -81 -178 -81c-101 0 -190 52 -216 163h102c14 -39 47 -71 115 -71c108 0 117 87 117 123v58c-18 -22 -58 -63 -134 -63c-135 0 -214 114 -214 235c0 118 75 233 216 233c34 0 89 -8 132 -60zM269 362
c-75 0 -123 -64 -123 -141c0 -79 46 -143 123 -143c80 0 125 62 125 140c0 98 -61 144 -125 144zM342 688l84 -24c-21 -73 -93 -124 -170 -124s-149 51 -170 124l84 24c15 -54 49 -68 86 -68s71 14 86 68z" />
    <glyph glyph-name="Gcommaaccent" unicode="&#x122;" horiz-adv-x="780" 
d="M444 264v100h288v-22c0 -68 -8 -146 -63 -224c-37 -52 -116 -132 -263 -132c-112 0 -192 42 -252 102c-77 77 -106 168 -106 261s31 186 100 258c83 87 186 107 264 107c105 0 175 -40 213 -67c31 -22 56 -46 77 -76l-76 -72c-22 32 -87 115 -214 115
c-148 0 -252 -113 -252 -265c0 -155 113 -263 249 -263c111 0 192 76 209 178h-174zM286 -274l78 232l100 -36l-104 -224z" />
    <glyph glyph-name="gcommaaccent" unicode="&#x123;" 
d="M388 394v48h102v-429c0 -45 -1 -103 -42 -156c-61 -78 -147 -81 -178 -81c-101 0 -190 52 -216 163h102c14 -39 47 -71 115 -71c108 0 117 87 117 123v58c-18 -22 -58 -63 -134 -63c-135 0 -214 114 -214 235c0 118 75 233 216 233c34 0 89 -8 132 -60zM269 362
c-75 0 -123 -64 -123 -141c0 -79 46 -143 123 -143c80 0 125 62 125 140c0 98 -61 144 -125 144zM376 735l-86 -230l-92 36l108 224z" />
    <glyph glyph-name="Hcircumflex" unicode="&#x124;" horiz-adv-x="674" 
d="M188 700v-274h298v274h108v-700h-108v326h-298v-326h-108v700h108zM230 762l-68 58l174 142l174 -142l-68 -58l-106 86z" />
    <glyph glyph-name="hcircumflex" unicode="&#x125;" horiz-adv-x="504" 
d="M62 0v735h102v-331c39 42 84 50 119 50c81 0 119 -42 131 -60c28 -41 28 -90 28 -123v-271h-102v265c0 28 0 50 -20 73c-15 18 -34 24 -59 24c-39 0 -64 -20 -76 -38c-19 -28 -21 -72 -21 -111v-213h-102zM116 818l-92 -90l-70 56l162 144l162 -144l-70 -56z" />
    <glyph glyph-name="Imacron" unicode="&#x12a;" horiz-adv-x="268" 
d="M80 700h108v-700h-108v700zM-14 769v84h296v-84h-296z" />
    <glyph glyph-name="imacron" unicode="&#x12b;" horiz-adv-x="226" 
d="M62 442h102v-442h-102v442zM-14 542v82h254v-82h-254z" />
    <glyph glyph-name="Iogonek" unicode="&#x12e;" horiz-adv-x="268" 
d="M80 700h108v-700c-19 -11 -40 -26 -54 -41c-11 -11 -22 -25 -22 -45c0 -35 35 -35 44 -35c20 0 38 4 52 8v-74c-23 -9 -54 -16 -78 -16c-59 0 -104 37 -104 93c0 25 8 46 27 67c13 14 35 31 53 43h-26v700z" />
    <glyph glyph-name="iogonek" unicode="&#x12f;" horiz-adv-x="226" 
d="M62 442h102v-442c-20 -11 -40 -26 -54 -41c-11 -11 -22 -25 -22 -46c0 -16 7 -37 45 -37c17 0 35 3 51 9v-65c-28 -17 -60 -20 -77 -20c-53 0 -101 32 -101 90c0 29 11 50 27 67c14 15 35 31 55 43h-26v442zM47 624c0 36 30 66 66 66s66 -30 66 -66s-30 -66 -66 -66
s-66 30 -66 66z" />
    <glyph glyph-name="Idotaccent" unicode="&#x130;" horiz-adv-x="268" 
d="M80 700h108v-700h-108v700zM64 840c0 39 31 70 70 70s70 -31 70 -70s-31 -70 -70 -70s-70 31 -70 70z" />
    <glyph glyph-name="dotlessi" unicode="&#x131;" horiz-adv-x="226" 
d="M62 442h102v-442h-102v442z" />
    <glyph glyph-name="Jcircumflex" unicode="&#x134;" horiz-adv-x="376" 
d="M188 700h108v-453c0 -57 -2 -111 -26 -160c-33 -68 -95 -101 -164 -101c-67 0 -109 26 -124 36l52 90c23 -19 51 -26 73 -26c48 0 66 35 71 47c5 11 10 31 10 113v454zM130 762l-68 58l174 142l174 -142l-68 -58l-106 86z" />
    <glyph glyph-name="jcircumflex" unicode="&#x135;" horiz-adv-x="226" 
d="M62 442h102v-652h-102v652zM40 510l-56 50l129 134l129 -134l-56 -50l-73 75z" />
    <glyph glyph-name="Kcommaaccent" unicode="&#x136;" horiz-adv-x="610" 
d="M188 700v-279l270 279h140l-316 -317l318 -383h-142l-270 336v-336h-108v700h108zM192 -274l78 232l100 -36l-104 -224z" />
    <glyph glyph-name="kcommaaccent" unicode="&#x137;" horiz-adv-x="460" 
d="M62 735h102v-445l146 152h134l-189 -184l203 -258h-130l-164 212v-212h-102v735zM132 -272l86 230l92 -36l-108 -224z" />
    <glyph glyph-name="Lacute" unicode="&#x139;" horiz-adv-x="408" 
d="M80 700h108v-600h204v-100h-312v700zM156 762l-50 40l146 148l90 -62z" />
    <glyph glyph-name="lacute" unicode="&#x13a;" horiz-adv-x="226" 
d="M62 735h102v-735h-102v735zM156 958l94 -48l-164 -152l-56 36z" />
    <glyph glyph-name="Lcommaaccent" unicode="&#x13b;" horiz-adv-x="408" 
d="M80 700h108v-600h204v-100h-312v700zM109 -274l78 232l100 -36l-104 -224z" />
    <glyph glyph-name="lcommaaccent" unicode="&#x13c;" horiz-adv-x="226" 
d="M62 735h102v-735h-102v735zM19 -272l86 230l92 -36l-108 -224z" />
    <glyph glyph-name="Lcaron" unicode="&#x13d;" horiz-adv-x="408" 
d="M80 700h108v-600h204v-100h-312v700zM250 462l100 268l100 -34l-126 -260z" />
    <glyph glyph-name="lcaron" unicode="&#x13e;" horiz-adv-x="365" 
d="M62 735h102v-735h-102v735zM200 464l106 266l94 -34l-130 -260z" />
    <glyph glyph-name="Lslash" unicode="&#x141;" horiz-adv-x="408" 
d="M80 700h108v-263l126 80v-88l-126 -81v-248h204v-100h-312v301l-84 -53v88l84 53v311z" />
    <glyph glyph-name="lslash" unicode="&#x142;" horiz-adv-x="232" 
d="M65 735h102v-230l65 51v-84l-65 -51v-421h-102v363l-65 -51v84l65 51v288z" />
    <glyph glyph-name="Nacute" unicode="&#x143;" horiz-adv-x="774" 
d="M188 0h-108v746l506 -530v484h108v-742l-506 530v-488zM360 762l-50 40l146 148l90 -62z" />
    <glyph glyph-name="nacute" unicode="&#x144;" horiz-adv-x="504" 
d="M62 0v442h102v-41c20 23 55 53 121 53c64 0 108 -28 130 -60c25 -37 27 -88 27 -123v-271h-102v252c0 43 -2 110 -82 110c-88 0 -94 -81 -94 -150v-212h-102zM325 708l94 -48l-164 -152l-56 36z" />
    <glyph glyph-name="Ncommaaccent" unicode="&#x145;" horiz-adv-x="774" 
d="M188 0h-108v746l506 -530v484h108v-742l-506 530v-488zM286 -274l78 232l100 -36l-104 -224z" />
    <glyph glyph-name="ncommaaccent" unicode="&#x146;" horiz-adv-x="504" 
d="M62 0v442h102v-41c20 23 55 53 121 53c64 0 108 -28 130 -60c25 -37 27 -88 27 -123v-271h-102v252c0 43 -2 110 -82 110c-88 0 -94 -81 -94 -150v-212h-102zM142 -272l86 230l92 -36l-108 -224z" />
    <glyph glyph-name="Ncaron" unicode="&#x147;" horiz-adv-x="774" 
d="M188 0h-108v746l506 -530v484h108v-742l-506 530v-488zM486 962l68 -58l-174 -142l-174 142l68 58l106 -86z" />
    <glyph glyph-name="ncaron" unicode="&#x148;" horiz-adv-x="504" 
d="M62 0v442h102v-41c20 23 55 53 121 53c64 0 108 -28 130 -60c25 -37 27 -88 27 -123v-271h-102v252c0 43 -2 110 -82 110c-88 0 -94 -81 -94 -150v-212h-102zM266 620l92 88l70 -54l-162 -144l-162 144l70 54z" />
    <glyph glyph-name="Omacron" unicode="&#x14c;" horiz-adv-x="824" 
d="M412 714c209 0 364 -159 364 -365c0 -204 -154 -363 -364 -363s-364 159 -364 363c0 206 155 365 364 365zM412 86c148 0 252 109 252 263c0 155 -104 265 -252 265s-252 -110 -252 -265c0 -154 104 -263 252 -263zM224 770v84h376v-84h-376z" />
    <glyph glyph-name="omacron" unicode="&#x14d;" 
d="M276 454c134 0 236 -98 236 -234c0 -135 -102 -234 -236 -234s-236 99 -236 234c0 136 102 234 236 234zM276 78c63 0 130 40 130 141c0 103 -68 143 -130 143s-130 -40 -130 -143c0 -101 67 -141 130 -141zM99 542v82h344v-82h-344z" />
    <glyph glyph-name="Obreve" unicode="&#x14e;" horiz-adv-x="824" 
d="M412 714c209 0 364 -159 364 -365c0 -204 -154 -363 -364 -363s-364 159 -364 363c0 206 155 365 364 365zM412 86c148 0 252 109 252 263c0 155 -104 265 -252 265s-252 -110 -252 -265c0 -154 104 -263 252 -263zM241 873l84 37c11 -38 48 -58 89 -58s78 20 89 58
l84 -37c-27 -63 -86 -107 -173 -107s-146 44 -173 107z" />
    <glyph glyph-name="obreve" unicode="&#x14f;" 
d="M276 454c134 0 236 -98 236 -234c0 -135 -102 -234 -236 -234s-236 99 -236 234c0 136 102 234 236 234zM276 78c63 0 130 40 130 141c0 103 -68 143 -130 143s-130 -40 -130 -143c0 -101 67 -141 130 -141zM357 688l84 -24c-21 -73 -93 -124 -170 -124s-149 51 -170 124
l84 24c15 -54 49 -68 86 -68s71 14 86 68z" />
    <glyph glyph-name="Ohungarumlaut" unicode="&#x150;" horiz-adv-x="824" 
d="M412 714c209 0 364 -159 364 -365c0 -204 -154 -363 -364 -363s-364 159 -364 363c0 206 155 365 364 365zM412 86c148 0 252 109 252 263c0 155 -104 265 -252 265s-252 -110 -252 -265c0 -154 104 -263 252 -263zM297 762l-46 38l128 150l82 -54zM507 762l-46 38
l128 150l82 -54z" />
    <glyph glyph-name="ohungarumlaut" unicode="&#x151;" 
d="M276 454c134 0 236 -98 236 -234c0 -135 -102 -234 -236 -234s-236 99 -236 234c0 136 102 234 236 234zM276 78c63 0 130 40 130 141c0 103 -68 143 -130 143s-130 -40 -130 -143c0 -101 67 -141 130 -141zM247 708l86 -48l-152 -152l-44 36zM437 708l86 -48l-152 -152
l-44 36z" />
    <glyph glyph-name="OE" unicode="&#x152;" horiz-adv-x="1106" 
d="M1054 700v-100h-279v-168h270v-100h-270v-232h279v-100h-387v97c-17 -24 -35 -39 -57 -53c-71 -46 -140 -58 -198 -58c-210 0 -364 159 -364 363c0 203 154 365 364 365c104 0 161 -35 194 -58c21 -15 41 -30 61 -57v101h387zM415 86c148 0 255 110 255 263
c0 155 -108 265 -255 265c-148 0 -255 -109 -255 -265c0 -155 107 -263 255 -263z" />
    <glyph glyph-name="oe" unicode="&#x153;" horiz-adv-x="880" 
d="M754 163l86 -49c-14 -26 -34 -54 -58 -75c-48 -43 -108 -53 -149 -53c-54 0 -126 22 -174 85c-46 -56 -110 -85 -183 -85c-138 0 -236 100 -236 234c0 137 101 234 236 234c64 0 136 -18 183 -86c40 62 103 86 168 86c79 0 136 -34 168 -81c27 -40 41 -102 41 -161v-16
h-317c2 -72 51 -118 119 -118c25 0 48 5 71 24c21 16 36 40 45 61zM276 78c67 0 131 40 131 141c0 102 -64 143 -131 143c-62 0 -130 -40 -130 -143c0 -86 51 -141 130 -141zM526 280h205c-12 52 -52 82 -101 82c-52 0 -91 -32 -104 -82z" />
    <glyph glyph-name="Racute" unicode="&#x154;" horiz-adv-x="556" 
d="M80 700h125c57 0 127 -2 185 -41c67 -45 83 -119 83 -165c0 -100 -64 -174 -156 -195l219 -299h-130l-200 287h-18v-287h-108v700zM188 600v-221h33c29 0 144 2 144 114c0 100 -90 107 -141 107h-36zM236 762l-50 40l146 148l90 -62z" />
    <glyph glyph-name="racute" unicode="&#x155;" horiz-adv-x="346" 
d="M62 0v442h102v-40c21 26 55 52 105 52c25 0 57 -8 83 -26l-46 -93c-19 16 -41 21 -58 21c-36 0 -56 -19 -66 -35c-17 -27 -18 -63 -18 -91v-230h-102zM292 708l94 -48l-164 -152l-56 36z" />
    <glyph glyph-name="Rcommaaccent" unicode="&#x156;" horiz-adv-x="556" 
d="M80 700h125c57 0 127 -2 185 -41c67 -45 83 -119 83 -165c0 -100 -64 -174 -156 -195l219 -299h-130l-200 287h-18v-287h-108v700zM188 600v-221h33c29 0 144 2 144 114c0 100 -90 107 -141 107h-36zM172 -274l78 232l100 -36l-104 -224z" />
    <glyph glyph-name="rcommaaccent" unicode="&#x157;" horiz-adv-x="346" 
d="M62 0v442h102v-40c21 26 55 52 105 52c25 0 57 -8 83 -26l-46 -93c-19 16 -41 21 -58 21c-36 0 -56 -19 -66 -35c-17 -27 -18 -63 -18 -91v-230h-102zM62 -272l86 230l92 -36l-108 -224z" />
    <glyph glyph-name="Rcaron" unicode="&#x158;" horiz-adv-x="556" 
d="M80 700h125c57 0 127 -2 185 -41c67 -45 83 -119 83 -165c0 -100 -64 -174 -156 -195l219 -299h-130l-200 287h-18v-287h-108v700zM188 600v-221h33c29 0 144 2 144 114c0 100 -90 107 -141 107h-36zM352 962l68 -58l-174 -142l-174 142l68 58l106 -86z" />
    <glyph glyph-name="rcaron" unicode="&#x159;" horiz-adv-x="346" 
d="M62 0v442h102v-40c21 26 55 52 105 52c25 0 57 -8 83 -26l-46 -93c-19 16 -41 21 -58 21c-36 0 -56 -19 -66 -35c-17 -27 -18 -63 -18 -91v-230h-102zM216 620l92 88l70 -54l-162 -144l-162 144l70 54z" />
    <glyph glyph-name="Sacute" unicode="&#x15a;" horiz-adv-x="539" 
d="M471 595l-86 -50c-7 16 -17 31 -32 44c-22 19 -44 25 -73 25c-56 0 -100 -30 -100 -83c0 -49 42 -73 75 -86l70 -28c69 -27 166 -80 166 -207c0 -132 -95 -224 -227 -224c-68 0 -123 23 -165 71c-24 27 -52 72 -59 136l106 23c1 -34 13 -67 30 -89c25 -33 54 -41 90 -41
c81 0 117 58 117 117c0 70 -57 100 -101 119l-67 29c-71 31 -143 79 -143 177c0 113 96 186 205 186c73 0 114 -25 140 -48c16 -14 37 -37 54 -71zM244 762l-50 40l146 148l90 -62z" />
    <glyph glyph-name="sacute" unicode="&#x15b;" horiz-adv-x="374" 
d="M320 367l-85 -45c-7 21 -24 40 -49 40c-2 0 -34 0 -34 -29c0 -25 20 -35 59 -53c23 -10 59 -26 84 -45c45 -33 53 -69 53 -99c0 -101 -88 -150 -161 -150c-62 0 -126 35 -153 110l86 39c6 -19 24 -57 73 -57c32 0 49 19 49 48c0 25 -12 39 -46 56c-30 15 -63 27 -88 43
c-34 22 -52 47 -52 97c0 69 45 132 138 132c25 0 91 -5 126 -87zM262 708l94 -48l-164 -152l-56 36z" />
    <glyph glyph-name="Scircumflex" unicode="&#x15c;" horiz-adv-x="539" 
d="M471 595l-86 -50c-7 16 -17 31 -32 44c-22 19 -44 25 -73 25c-56 0 -100 -30 -100 -83c0 -49 42 -73 75 -86l70 -28c69 -27 166 -80 166 -207c0 -132 -95 -224 -227 -224c-68 0 -123 23 -165 71c-24 27 -52 72 -59 136l106 23c1 -34 13 -67 30 -89c25 -33 54 -41 90 -41
c81 0 117 58 117 117c0 70 -57 100 -101 119l-67 29c-71 31 -143 79 -143 177c0 113 96 186 205 186c73 0 114 -25 140 -48c16 -14 37 -37 54 -71zM166 762l-68 58l174 142l174 -142l-68 -58l-106 86z" />
    <glyph glyph-name="scircumflex" unicode="&#x15d;" horiz-adv-x="374" 
d="M320 367l-85 -45c-7 21 -24 40 -49 40c-2 0 -34 0 -34 -29c0 -25 20 -35 59 -53c23 -10 59 -26 84 -45c45 -33 53 -69 53 -99c0 -101 -88 -150 -161 -150c-62 0 -126 35 -153 110l86 39c6 -19 24 -57 73 -57c32 0 49 19 49 48c0 25 -12 39 -46 56c-30 15 -63 27 -88 43
c-34 22 -52 47 -52 97c0 69 45 132 138 132c25 0 91 -5 126 -87zM176 598l-92 -90l-70 56l162 144l162 -144l-70 -56z" />
    <glyph glyph-name="Scedilla" unicode="&#x15e;" horiz-adv-x="538" 
d="M471 595l-86 -50c-7 16 -17 31 -32 44c-22 19 -44 25 -73 25c-56 0 -100 -30 -100 -83c0 -49 42 -73 75 -86l70 -28c129 -52 165 -125 165 -207c0 -108 -66 -207 -192 -222l-26 -48h10c50 0 79 -36 79 -78c0 -69 -64 -112 -127 -112c-25 0 -68 5 -105 30l32 61
c19 -12 41 -19 61 -19c40 0 53 23 53 40s-12 34 -45 34c-11 0 -18 -1 -24 -4l-18 13l44 83c-45 5 -92 23 -133 69c-24 27 -52 72 -59 136l106 23c2 -48 23 -80 29 -88c0 -1 1 -1 1 -1c24 -32 55 -42 90 -42c70 0 116 47 116 118c0 50 -24 86 -100 119l-67 29
c-71 31 -143 79 -143 177c0 113 96 186 205 186c73 0 114 -25 140 -48c16 -14 37 -37 54 -71z" />
    <glyph glyph-name="Scedilla" unicode="&#xf6c1;" horiz-adv-x="538" 
d="M471 595l-86 -50c-7 16 -17 31 -32 44c-22 19 -44 25 -73 25c-56 0 -100 -30 -100 -83c0 -49 42 -73 75 -86l70 -28c129 -52 165 -125 165 -207c0 -108 -66 -207 -192 -222l-26 -48h10c50 0 79 -36 79 -78c0 -69 -64 -112 -127 -112c-25 0 -68 5 -105 30l32 61
c19 -12 41 -19 61 -19c40 0 53 23 53 40s-12 34 -45 34c-11 0 -18 -1 -24 -4l-18 13l44 83c-45 5 -92 23 -133 69c-24 27 -52 72 -59 136l106 23c2 -48 23 -80 29 -88c0 -1 1 -1 1 -1c24 -32 55 -42 90 -42c70 0 116 47 116 118c0 50 -24 86 -100 119l-67 29
c-71 31 -143 79 -143 177c0 113 96 186 205 186c73 0 114 -25 140 -48c16 -14 37 -37 54 -71z" />
    <glyph glyph-name="scedilla" unicode="&#x15f;" horiz-adv-x="374" 
d="M320 367l-85 -45c-7 21 -24 40 -49 40c-2 0 -34 0 -34 -29c0 -25 20 -35 59 -53c23 -10 59 -26 84 -45c45 -33 53 -69 53 -99c0 -79 -59 -138 -137 -148l-25 -48h14c35 0 75 -27 75 -78c0 -56 -52 -102 -120 -102c-38 0 -71 8 -104 30l28 51c22 -15 46 -19 61 -19
c40 0 53 24 53 40c0 17 -12 34 -45 34c-11 0 -19 -2 -24 -4l-18 15l45 83c-59 14 -99 55 -117 106l86 39c6 -19 24 -57 73 -57c32 0 49 19 49 48c0 25 -12 39 -46 56c-30 15 -63 27 -88 43c-34 22 -52 47 -52 97c0 69 45 132 138 132c25 0 91 -5 126 -87z" />
    <glyph glyph-name="scedilla" unicode="&#xf6c2;" horiz-adv-x="374" 
d="M320 367l-85 -45c-7 21 -24 40 -49 40c-2 0 -34 0 -34 -29c0 -25 20 -35 59 -53c23 -10 59 -26 84 -45c45 -33 53 -69 53 -99c0 -79 -59 -138 -137 -148l-25 -48h14c35 0 75 -27 75 -78c0 -56 -52 -102 -120 -102c-38 0 -71 8 -104 30l28 51c22 -15 46 -19 61 -19
c40 0 53 24 53 40c0 17 -12 34 -45 34c-11 0 -19 -2 -24 -4l-18 15l45 83c-59 14 -99 55 -117 106l86 39c6 -19 24 -57 73 -57c32 0 49 19 49 48c0 25 -12 39 -46 56c-30 15 -63 27 -88 43c-34 22 -52 47 -52 97c0 69 45 132 138 132c25 0 91 -5 126 -87z" />
    <glyph glyph-name="Scaron" unicode="&#x160;" horiz-adv-x="539" 
d="M471 595l-86 -50c-7 16 -17 31 -32 44c-22 19 -44 25 -73 25c-56 0 -100 -30 -100 -83c0 -49 42 -73 75 -86l70 -28c69 -27 166 -80 166 -207c0 -132 -95 -224 -227 -224c-68 0 -123 23 -165 71c-24 27 -52 72 -59 136l106 23c1 -34 13 -67 30 -89c25 -33 54 -41 90 -41
c81 0 117 58 117 117c0 70 -57 100 -101 119l-67 29c-71 31 -143 79 -143 177c0 113 96 186 205 186c73 0 114 -25 140 -48c16 -14 37 -37 54 -71zM378 962l68 -58l-174 -142l-174 142l68 58l106 -86z" />
    <glyph glyph-name="scaron" unicode="&#x161;" horiz-adv-x="374" 
d="M320 367l-85 -45c-7 21 -24 40 -49 40c-2 0 -34 0 -34 -29c0 -25 20 -35 59 -53c23 -10 59 -26 84 -45c45 -33 53 -69 53 -99c0 -101 -88 -150 -161 -150c-62 0 -126 35 -153 110l86 39c6 -19 24 -57 73 -57c32 0 49 19 49 48c0 25 -12 39 -46 56c-30 15 -63 27 -88 43
c-34 22 -52 47 -52 97c0 69 45 132 138 132c25 0 91 -5 126 -87zM176 620l92 88l70 -54l-162 -144l-162 144l70 54z" />
    <glyph glyph-name="Tcommaaccent" unicode="&#x162;" horiz-adv-x="448" 
d="M438 600h-160v-600h-108v600h-160v100h428v-100zM122 -274l78 232l100 -36l-104 -224z" />
    <glyph glyph-name="tcommaaccent" unicode="&#x163;" horiz-adv-x="252" 
d="M248 350h-78v-350h-102v350h-44v92h44v158h102v-158h78v-92zM20 -272l86 230l92 -36l-108 -224z" />
    <glyph glyph-name="Tcaron" unicode="&#x164;" horiz-adv-x="448" 
d="M438 600h-160v-600h-108v600h-160v100h428v-100zM326 962l68 -58l-174 -142l-174 142l68 58l106 -86z" />
    <glyph glyph-name="tcaron" unicode="&#x165;" horiz-adv-x="375" 
d="M248 350h-78v-350h-102v350h-44v92h44v158h102v-158h78v-92zM210 504l106 266l94 -34l-130 -260z" />
    <glyph glyph-name="Utilde" unicode="&#x168;" horiz-adv-x="678" 
d="M80 700h108v-422c0 -38 1 -84 21 -121c21 -38 65 -71 130 -71c54 0 104 22 130 71c20 38 21 81 21 121v422h108v-450c0 -56 -12 -123 -65 -182c-37 -41 -98 -82 -194 -82s-157 41 -194 82c-53 59 -65 126 -65 182v450zM469 906l60 -48c-28 -59 -69 -89 -123 -89
c-23 0 -38 5 -57 14c-13 6 -23 12 -44 21c-13 5 -24 9 -38 9c-27 0 -47 -18 -54 -45l-64 44c9 20 23 41 42 57c22 18 48 28 78 28c17 0 35 -4 51 -9c9 -3 22 -8 48 -22c12 -6 24 -13 42 -13c40 0 55 38 59 53z" />
    <glyph glyph-name="utilde" unicode="&#x169;" horiz-adv-x="502" 
d="M62 442h102v-254c0 -27 0 -56 19 -80c14 -18 36 -30 68 -30s54 12 68 30c19 24 19 53 19 80v254h102v-256c0 -52 -3 -100 -47 -145c-46 -48 -113 -55 -144 -55c-27 0 -93 7 -140 55c-44 45 -47 93 -47 145v256zM379 684l61 -48c-30 -64 -75 -90 -122 -90
c-25 0 -39 7 -58 17c-20 11 -32 18 -44 23c-22 10 -35 10 -38 10c-23 0 -46 -17 -54 -48l-62 43c9 15 27 42 44 57c14 12 38 28 74 28c18 0 34 -4 51 -10c18 -7 38 -18 48 -24c11 -7 24 -16 43 -16c35 0 50 32 57 58z" />
    <glyph glyph-name="Umacron" unicode="&#x16a;" horiz-adv-x="678" 
d="M80 700h108v-422c0 -38 1 -84 21 -121c21 -38 65 -71 130 -71c54 0 104 22 130 71c20 38 21 81 21 121v422h108v-450c0 -56 -12 -123 -65 -182c-37 -41 -98 -82 -194 -82s-157 41 -194 82c-53 59 -65 126 -65 182v450zM154 770v84h376v-84h-376z" />
    <glyph glyph-name="umacron" unicode="&#x16b;" horiz-adv-x="502" 
d="M62 442h102v-254c0 -27 0 -56 19 -80c14 -18 36 -30 68 -30s54 12 68 30c19 24 19 53 19 80v254h102v-256c0 -52 -3 -100 -47 -145c-46 -48 -113 -55 -144 -55c-27 0 -93 7 -140 55c-44 45 -47 93 -47 145v256zM76 542v82h344v-82h-344z" />
    <glyph glyph-name="Ubreve" unicode="&#x16c;" horiz-adv-x="678" 
d="M80 700h108v-422c0 -38 1 -84 21 -121c21 -38 65 -71 130 -71c54 0 104 22 130 71c20 38 21 81 21 121v422h108v-450c0 -56 -12 -123 -65 -182c-37 -41 -98 -82 -194 -82s-157 41 -194 82c-53 59 -65 126 -65 182v450zM171 873l84 37c11 -38 48 -58 89 -58s78 20 89 58
l84 -37c-27 -63 -86 -107 -173 -107s-146 44 -173 107z" />
    <glyph glyph-name="ubreve" unicode="&#x16d;" horiz-adv-x="502" 
d="M62 442h102v-254c0 -27 0 -56 19 -80c14 -18 36 -30 68 -30s54 12 68 30c19 24 19 53 19 80v254h102v-256c0 -52 -3 -100 -47 -145c-46 -48 -113 -55 -144 -55c-27 0 -93 7 -140 55c-44 45 -47 93 -47 145v256zM334 688l84 -24c-21 -73 -93 -124 -170 -124
s-149 51 -170 124l84 24c15 -54 49 -68 86 -68s71 14 86 68z" />
    <glyph glyph-name="Uring" unicode="&#x16e;" horiz-adv-x="678" 
d="M80 700h108v-422c0 -38 1 -84 21 -121c21 -38 65 -71 130 -71c54 0 104 22 130 71c20 38 21 81 21 121v422h108v-450c0 -56 -12 -123 -65 -182c-37 -41 -98 -82 -194 -82s-157 41 -194 82c-53 59 -65 126 -65 182v450zM240 864c0 56 46 102 102 102s102 -46 102 -102
s-46 -102 -102 -102s-102 46 -102 102zM296 864c0 -26 20 -46 46 -46s46 20 46 46s-20 46 -46 46s-46 -20 -46 -46z" />
    <glyph glyph-name="uring" unicode="&#x16f;" horiz-adv-x="502" 
d="M62 442h102v-254c0 -27 0 -56 19 -80c14 -18 36 -30 68 -30s54 12 68 30c19 24 19 53 19 80v254h102v-256c0 -52 -3 -100 -47 -145c-46 -48 -113 -55 -144 -55c-27 0 -93 7 -140 55c-44 45 -47 93 -47 145v256zM148 640c0 56 44 100 100 100s100 -44 100 -100
s-44 -100 -100 -100s-100 44 -100 100zM202 640c0 -26 20 -46 46 -46s46 20 46 46s-20 46 -46 46s-46 -20 -46 -46z" />
    <glyph glyph-name="Uhungarumlaut" unicode="&#x170;" horiz-adv-x="678" 
d="M80 700h108v-422c0 -38 1 -84 21 -121c21 -38 65 -71 130 -71c54 0 104 22 130 71c20 38 21 81 21 121v422h108v-450c0 -56 -12 -123 -65 -182c-37 -41 -98 -82 -194 -82s-157 41 -194 82c-53 59 -65 126 -65 182v450zM229 762l-46 38l128 150l82 -54zM439 762l-46 38
l128 150l82 -54z" />
    <glyph glyph-name="uhungarumlaut" unicode="&#x171;" horiz-adv-x="502" 
d="M62 442h102v-254c0 -27 0 -56 19 -80c14 -18 36 -30 68 -30s54 12 68 30c19 24 19 53 19 80v254h102v-256c0 -52 -3 -100 -47 -145c-46 -48 -113 -55 -144 -55c-27 0 -93 7 -140 55c-44 45 -47 93 -47 145v256zM224 708l86 -48l-152 -152l-44 36zM414 708l86 -48
l-152 -152l-44 36z" />
    <glyph glyph-name="Uogonek" unicode="&#x172;" horiz-adv-x="678" 
d="M80 700h108v-422c0 -38 1 -84 21 -121c21 -38 65 -71 130 -71c54 0 104 22 130 71c20 38 21 81 21 121v422h108v-450c0 -56 -12 -123 -65 -182c-26 -28 -67 -61 -126 -74c-12 -7 -29 -20 -44 -35c-11 -11 -22 -25 -22 -45c0 -35 35 -35 44 -35c20 0 38 4 52 8v-74
c-23 -9 -54 -16 -78 -16c-59 0 -104 37 -104 93c0 30 11 50 27 67c11 12 24 23 35 30c-84 5 -140 46 -172 81c-53 59 -65 126 -65 182v450z" />
    <glyph glyph-name="uogonek" unicode="&#x173;" horiz-adv-x="502" 
d="M62 442h102v-254c0 -27 0 -56 19 -80c14 -18 36 -30 68 -30s54 12 68 30c19 24 19 53 19 80v254h102v-256c0 -52 -3 -100 -47 -145c-13 -13 -39 -36 -81 -47c-18 -9 -33 -20 -47 -35c-11 -11 -22 -25 -22 -46s12 -37 45 -37c17 0 35 3 51 9v-65c-28 -17 -60 -20 -77 -20
c-53 0 -101 32 -101 90c0 25 8 46 27 67c4 4 15 16 36 31c-50 6 -87 24 -115 53c-44 45 -47 93 -47 145v256z" />
    <glyph glyph-name="Ydieresis" unicode="&#x178;" horiz-adv-x="566" 
d="M229 0v302l-229 398h120l163 -282l163 282h120l-229 -398v-302h-108zM114 834c0 36 30 66 66 66s66 -30 66 -66s-30 -66 -66 -66s-66 30 -66 66zM322 834c0 36 30 66 66 66s66 -30 66 -66s-30 -66 -66 -66s-66 30 -66 66z" />
    <glyph glyph-name="Zacute" unicode="&#x179;" horiz-adv-x="578" 
d="M548 700l-344 -600h336v-100h-510l344 600h-288v100h462zM276 762l-50 40l146 148l90 -62z" />
    <glyph glyph-name="zacute" unicode="&#x17a;" horiz-adv-x="502" 
d="M494 442l-284 -348h262v-94h-464l286 347h-226v95h426zM322 708l94 -48l-164 -152l-56 36z" />
    <glyph glyph-name="Zdotaccent" unicode="&#x17b;" horiz-adv-x="578" 
d="M548 700l-344 -600h336v-100h-510l344 600h-288v100h462zM226 840c0 39 31 70 70 70s70 -31 70 -70s-31 -70 -70 -70s-70 31 -70 70z" />
    <glyph glyph-name="zdotaccent" unicode="&#x17c;" horiz-adv-x="502" 
d="M494 442l-284 -348h262v-94h-464l286 347h-226v95h426zM200 624c0 36 30 66 66 66s66 -30 66 -66s-30 -66 -66 -66s-66 30 -66 66z" />
    <glyph glyph-name="Zcaron" unicode="&#x17d;" horiz-adv-x="578" 
d="M548 700l-344 -600h336v-100h-510l344 600h-288v100h462zM402 962l68 -58l-174 -142l-174 142l68 58l106 -86z" />
    <glyph glyph-name="zcaron" unicode="&#x17e;" horiz-adv-x="502" 
d="M494 442l-284 -348h262v-94h-464l286 347h-226v95h426zM266 620l92 88l70 -54l-162 -144l-162 144l70 54z" />
    <glyph glyph-name="Schwa" unicode="&#x18f;" horiz-adv-x="780" 
d="M154 502l-76 70c23 29 48 53 77 74c39 28 107 68 213 68c95 0 194 -32 265 -107c55 -58 99 -151 99 -258c0 -78 -22 -176 -107 -261c-60 -60 -140 -102 -251 -102c-93 0 -191 32 -260 130c-56 80 -66 159 -66 226v34h572c-11 145 -123 238 -252 238
c-97 0 -169 -51 -214 -112zM612 276h-450c7 -64 37 -104 46 -115c27 -34 79 -75 167 -75c81 0 145 34 184 81c36 43 50 97 53 109z" />
    <glyph glyph-name="florin" unicode="&#x192;" horiz-adv-x="592" 
d="M526 730l-18 -98c-14 5 -31 10 -47 10c-18 0 -34 -3 -50 -18c-24 -22 -30 -57 -34 -82l-17 -100h118l-15 -82h-118l-50 -285c-7 -43 -15 -90 -42 -141c-14 -28 -29 -45 -55 -63c-23 -16 -62 -39 -137 -39c-12 0 -23 0 -35 1l18 98h14c27 0 62 5 85 28c15 15 32 42 46 125
l48 276h-90l15 82h90l20 114c6 32 19 98 62 139c40 38 88 45 123 45c28 0 50 -5 69 -10z" />
    <glyph glyph-name="Icaron" unicode="&#x1cf;" horiz-adv-x="268" 
d="M80 700h108v-700h-108v700zM217 960l62 -51l-145 -138l-145 138l62 51l83 -79z" />
    <glyph glyph-name="icaron" unicode="&#x1d0;" horiz-adv-x="226" 
d="M62 442h102v-442h-102v442zM186 694l56 -50l-129 -134l-129 134l56 50l73 -75z" />
    <glyph glyph-name="eturn" unicode="&#x1dd;" horiz-adv-x="508" 
d="M126 298l-82 48c28 49 87 108 203 108c136 0 221 -91 221 -234c0 -164 -110 -234 -215 -234c-57 0 -120 18 -166 81c-40 54 -47 110 -47 161v26h321c-4 67 -51 108 -120 108c-58 0 -94 -29 -115 -64zM354 170h-205c4 -57 46 -92 102 -92c60 0 96 40 103 92z" />
    <glyph glyph-name="Gcaron" unicode="&#x1e6;" horiz-adv-x="780" 
d="M444 264v100h288v-22c0 -68 -8 -146 -63 -224c-37 -52 -116 -132 -263 -132c-112 0 -192 42 -252 102c-77 77 -106 168 -106 261s31 186 100 258c83 87 186 107 264 107c105 0 175 -40 213 -67c31 -22 56 -46 77 -76l-76 -72c-22 32 -87 115 -214 115
c-148 0 -252 -113 -252 -265c0 -155 113 -263 249 -263c111 0 192 76 209 178h-174zM496 962l68 -58l-174 -142l-174 142l68 58l106 -86z" />
    <glyph glyph-name="gcaron" unicode="&#x1e7;" 
d="M388 394v48h102v-429c0 -45 -1 -103 -42 -156c-61 -78 -147 -81 -178 -81c-101 0 -190 52 -216 163h102c14 -39 47 -71 115 -71c108 0 117 87 117 123v58c-18 -22 -58 -63 -134 -63c-135 0 -214 114 -214 235c0 118 75 233 216 233c34 0 89 -8 132 -60zM269 362
c-75 0 -123 -64 -123 -141c0 -79 46 -143 123 -143c80 0 125 62 125 140c0 98 -61 144 -125 144zM276 620l92 88l70 -54l-162 -144l-162 144l70 54z" />
    <glyph glyph-name="Scommaaccent" unicode="&#x218;" horiz-adv-x="539" 
d="M471 595l-86 -50c-7 16 -17 31 -32 44c-22 19 -44 25 -73 25c-56 0 -100 -30 -100 -83c0 -49 42 -73 75 -86l70 -28c69 -27 166 -80 166 -207c0 -132 -95 -224 -227 -224c-68 0 -123 23 -165 71c-24 27 -52 72 -59 136l106 23c1 -34 13 -67 30 -89c25 -33 54 -41 90 -41
c81 0 117 58 117 117c0 70 -57 100 -101 119l-67 29c-71 31 -143 79 -143 177c0 113 96 186 205 186c73 0 114 -25 140 -48c16 -14 37 -37 54 -71zM152 -274l78 232l100 -36l-104 -224z" />
    <glyph glyph-name="scommaaccent" unicode="&#x219;" horiz-adv-x="374" 
d="M320 367l-85 -45c-7 21 -24 40 -49 40c-2 0 -34 0 -34 -29c0 -25 20 -35 59 -53c23 -10 59 -26 84 -45c45 -33 53 -69 53 -99c0 -101 -88 -150 -161 -150c-62 0 -126 35 -153 110l86 39c6 -19 24 -57 73 -57c32 0 49 19 49 48c0 25 -12 39 -46 56c-30 15 -63 27 -88 43
c-34 22 -52 47 -52 97c0 69 45 132 138 132c25 0 91 -5 126 -87zM72 -272l86 230l92 -36l-108 -224z" />
    <glyph glyph-name="uni021A" unicode="&#x21a;" horiz-adv-x="448" 
d="M438 600h-160v-600h-108v600h-160v100h428v-100zM122 -274l78 232l100 -36l-104 -224z" />
    <glyph glyph-name="uni021B" unicode="&#x21b;" horiz-adv-x="252" 
d="M248 350h-78v-350h-102v350h-44v92h44v158h102v-158h78v-92zM20 -272l86 230l92 -36l-108 -224z" />
    <glyph glyph-name="schwa" unicode="&#x259;" horiz-adv-x="508" 
d="M126 298l-82 48c28 49 87 108 203 108c136 0 221 -91 221 -234c0 -164 -110 -234 -215 -234c-57 0 -120 18 -166 81c-40 54 -47 110 -47 161v26h321c-4 67 -51 108 -120 108c-58 0 -94 -29 -115 -64zM354 170h-205c4 -57 46 -92 102 -92c60 0 96 40 103 92z" />
    <glyph glyph-name="afii57929" unicode="&#x2bc;" horiz-adv-x="512" 
d="M130 464l106 266l94 -34l-130 -260z" />
    <glyph glyph-name="circumflex" unicode="&#x2c6;" horiz-adv-x="512" 
d="M256 598l-92 -90l-70 56l162 144l162 -144l-70 -56z" />
    <glyph glyph-name="caron" unicode="&#x2c7;" horiz-adv-x="512" 
d="M256 620l92 88l70 -54l-162 -144l-162 144l70 54z" />
    <glyph glyph-name="breve" unicode="&#x2d8;" horiz-adv-x="512" 
d="M342 688l84 -24c-21 -73 -93 -124 -170 -124s-149 51 -170 124l84 24c15 -54 49 -68 86 -68s71 14 86 68z" />
    <glyph glyph-name="dotaccent" unicode="&#x2d9;" horiz-adv-x="512" 
d="M190 624c0 36 30 66 66 66s66 -30 66 -66s-30 -66 -66 -66s-66 30 -66 66z" />
    <glyph glyph-name="ring" unicode="&#x2da;" horiz-adv-x="512" 
d="M156 640c0 56 44 100 100 100s100 -44 100 -100s-44 -100 -100 -100s-100 44 -100 100zM210 640c0 -26 20 -46 46 -46s46 20 46 46s-20 46 -46 46s-46 -20 -46 -46z" />
    <glyph glyph-name="ogonek" unicode="&#x2db;" horiz-adv-x="508" 
d="M254 0h76c-20 -11 -40 -26 -54 -41c-11 -11 -22 -25 -22 -46c0 -16 7 -37 45 -37c17 0 35 3 51 9v-65c-28 -17 -60 -20 -77 -20c-53 0 -101 32 -101 90c0 29 11 50 27 67c14 15 35 31 55 43z" />
    <glyph glyph-name="tilde" unicode="&#x2dc;" horiz-adv-x="518" 
d="M387 684l61 -48c-30 -64 -75 -90 -122 -90c-25 0 -39 7 -58 17c-20 11 -32 18 -44 23c-22 10 -35 10 -38 10c-23 0 -46 -17 -54 -48l-62 43c9 15 27 42 44 57c14 12 38 28 74 28c18 0 34 -4 51 -10c18 -7 38 -18 48 -24c11 -7 24 -16 43 -16c35 0 50 32 57 58z" />
    <glyph glyph-name="hungarumlaut" unicode="&#x2dd;" horiz-adv-x="512" 
d="M232 708l86 -48l-152 -152l-44 36zM422 708l86 -48l-152 -152l-44 36z" />
    <glyph glyph-name="accent" unicode="&#x301;" horiz-adv-x="2" 
d="M-190 708l94 -48l-164 -152l-56 36z" />
    <glyph glyph-name="accent" unicode="&#xf400;" horiz-adv-x="2" 
d="M-190 708l94 -48l-164 -152l-56 36z" />
    <glyph glyph-name="uni0313" unicode="&#x313;" horiz-adv-x="512" 
d="M130 464l106 266l94 -34l-130 -260z" />
    <glyph glyph-name="uni0315" unicode="&#x315;" horiz-adv-x="512" 
d="M130 464l106 266l94 -34l-130 -260z" />
    <glyph glyph-name="uni0326" unicode="&#x326;" horiz-adv-x="512" 
d="M162 -272l86 230l92 -36l-108 -224z" />
    <glyph glyph-name="Delta" unicode="&#x394;" horiz-adv-x="694" 
d="M670 0h-646l268 700h110zM347 555l-168 -455h336z" />
    <glyph glyph-name="Delta" unicode="&#x2206;" horiz-adv-x="694" 
d="M670 0h-646l268 700h110zM347 555l-168 -455h336z" />
    <glyph glyph-name="Omega" unicode="&#x3a9;" horiz-adv-x="696" 
d="M391 0v113c60 26 97 70 115 95c47 65 50 132 50 162c0 152 -96 244 -208 244s-208 -92 -208 -244c0 -31 3 -96 50 -162c19 -27 57 -68 115 -95v-113h-277v100h169c-115 57 -169 164 -169 283c0 171 116 331 320 331s320 -160 320 -331c0 -119 -54 -226 -169 -283h169
v-100h-277z" />
    <glyph glyph-name="Omega" unicode="&#x2126;" horiz-adv-x="696" 
d="M391 0v113c60 26 97 70 115 95c47 65 50 132 50 162c0 152 -96 244 -208 244s-208 -92 -208 -244c0 -31 3 -96 50 -162c19 -27 57 -68 115 -95v-113h-277v100h169c-115 57 -169 164 -169 283c0 171 116 331 320 331s320 -160 320 -331c0 -119 -54 -226 -169 -283h169
v-100h-277z" />
    <glyph glyph-name="pi" unicode="&#x3c0;" horiz-adv-x="580" 
d="M204 0h-102v350h-80v92h536v-92h-80v-350h-102v350h-172v-350z" />
    <glyph glyph-name="afii10023" unicode="&#x401;" horiz-adv-x="518" 
d="M466 700v-100h-278v-168h270v-100h-270v-232h278v-100h-386v700h386zM104 834c0 36 30 66 66 66s66 -30 66 -66s-30 -66 -66 -66s-66 30 -66 66zM312 834c0 36 30 66 66 66s66 -30 66 -66s-30 -66 -66 -66s-66 30 -66 66z" />
    <glyph glyph-name="afii10051" unicode="&#x402;" horiz-adv-x="730" 
d="M510 600h-232v-187c48 6 89 8 135 8c45 0 109 -1 167 -33c84 -46 102 -129 102 -189c0 -131 -88 -213 -208 -213c-63 0 -112 20 -134 30l25 100c29 -16 73 -30 110 -30c58 0 99 42 99 110c0 69 -37 95 -62 107c-36 17 -70 18 -104 18c-48 0 -88 -3 -130 -8v-313h-108v600
h-160v100h500v-100z" />
    <glyph glyph-name="afii10052" unicode="&#x403;" horiz-adv-x="444" 
d="M430 700v-100h-242v-600h-108v700h350zM236 762l-50 40l146 148l90 -62z" />
    <glyph glyph-name="afii10053" unicode="&#x404;" horiz-adv-x="646" 
d="M600 662v-126c-75 72 -151 78 -190 78c-100 0 -156 -41 -185 -74c-30 -34 -52 -84 -60 -131h341v-100h-344c2 -32 12 -91 63 -146c58 -63 132 -77 186 -77c66 0 134 26 189 79v-126c-22 -14 -87 -53 -192 -53c-60 0 -158 12 -248 97c-80 76 -112 168 -112 266
c0 109 40 205 112 273c73 68 158 92 253 92c90 0 144 -23 187 -52z" />
    <glyph glyph-name="afii10054" unicode="&#x405;" horiz-adv-x="539" 
d="M471 595l-86 -50c-7 16 -17 31 -32 44c-22 19 -44 25 -73 25c-56 0 -100 -30 -100 -83c0 -49 42 -73 75 -86l70 -28c69 -27 166 -80 166 -207c0 -132 -95 -224 -227 -224c-68 0 -123 23 -165 71c-24 27 -52 72 -59 136l106 23c1 -34 13 -67 30 -89c25 -33 54 -41 90 -41
c81 0 117 58 117 117c0 70 -57 100 -101 119l-67 29c-71 31 -143 79 -143 177c0 113 96 186 205 186c73 0 114 -25 140 -48c16 -14 37 -37 54 -71z" />
    <glyph glyph-name="afii10055" unicode="&#x406;" horiz-adv-x="268" 
d="M80 700h108v-700h-108v700z" />
    <glyph glyph-name="afii10056" unicode="&#x407;" horiz-adv-x="268" 
d="M80 700h108v-700h-108v700zM-3 834c0 32 26 58 58 58s58 -26 58 -58s-26 -58 -58 -58s-58 26 -58 58zM155 834c0 32 26 58 58 58s58 -26 58 -58s-26 -58 -58 -58s-58 26 -58 58z" />
    <glyph glyph-name="afii10057" unicode="&#x408;" horiz-adv-x="376" 
d="M188 700h108v-453c0 -57 -2 -111 -26 -160c-33 -68 -95 -101 -164 -101c-67 0 -109 26 -124 36l52 90c23 -19 51 -26 73 -26c48 0 66 35 71 47c5 11 10 31 10 113v454z" />
    <glyph glyph-name="afii10058" unicode="&#x409;" horiz-adv-x="942" 
d="M490 0v600h-231v-349c0 -81 -5 -160 -71 -215c-25 -21 -65 -42 -123 -42c-19 0 -36 2 -51 6v100c8 -2 22 -6 35 -6c24 0 53 10 67 23c34 32 35 111 35 166v417h447v-282h78c89 0 144 -28 176 -56c39 -34 66 -91 66 -153c0 -51 -19 -126 -87 -171
c-52 -35 -108 -38 -153 -38h-188zM598 318v-218h74c27 0 138 0 138 107c0 32 -11 111 -136 111h-76z" />
    <glyph glyph-name="afii10059" unicode="&#x40a;" horiz-adv-x="938" 
d="M486 0v318h-298v-318h-108v700h108v-282h298v282h108v-282h78c89 0 144 -28 176 -56c39 -34 66 -91 66 -153c0 -51 -19 -126 -87 -171c-52 -35 -108 -38 -153 -38h-188zM594 318v-218h74c27 0 138 0 138 107c0 32 -11 111 -136 111h-76z" />
    <glyph glyph-name="afii10060" unicode="&#x40b;" horiz-adv-x="721" 
d="M511 600h-232v-187c47 5 88 7 135 7c58 0 128 -4 178 -43c66 -52 69 -134 69 -170v-207h-108v196c0 31 -1 74 -37 102c-24 19 -63 22 -112 22c-46 0 -88 -3 -125 -7v-313h-108v600h-161v100h501v-100z" />
    <glyph glyph-name="afii10061" unicode="&#x40c;" horiz-adv-x="610" 
d="M188 700v-279l270 279h140l-316 -317l318 -383h-142l-270 336v-336h-108v700h108zM279 762l-50 40l146 148l90 -62z" />
    <glyph glyph-name="afii10062" unicode="&#x40e;" horiz-adv-x="598" 
d="M6 700h130l183 -363l161 363h112l-316 -700h-112l94 209zM135 873l84 37c11 -38 48 -58 89 -58s78 20 89 58l84 -37c-27 -63 -86 -107 -173 -107s-146 44 -173 107z" />
    <glyph glyph-name="afii10145" unicode="&#x40f;" horiz-adv-x="664" 
d="M80 0v700h108v-600h288v600h108v-700h-202v-190h-100v190h-202z" />
    <glyph glyph-name="afii10017" unicode="&#x410;" horiz-adv-x="688" 
d="M568 0l-74 170h-297l-77 -170h-116l348 740l332 -740h-116zM240 270h212l-104 236z" />
    <glyph glyph-name="afii10018" unicode="&#x411;" horiz-adv-x="546" 
d="M80 0v700h351v-100h-243v-182h68c52 0 121 -7 176 -56c39 -35 66 -90 66 -154c0 -51 -19 -125 -87 -170c-52 -35 -108 -38 -153 -38h-178zM188 318v-218h64c27 0 138 0 138 107c0 32 -11 111 -136 111h-66z" />
    <glyph glyph-name="afii10019" unicode="&#x412;" horiz-adv-x="546" 
d="M80 700h114c54 0 112 0 165 -37c42 -29 79 -78 79 -158c0 -39 -9 -87 -62 -128c88 -27 122 -104 122 -169c0 -41 -13 -112 -70 -159c-59 -48 -131 -49 -181 -49h-167v700zM188 600v-201h32c24 0 114 0 114 103c0 96 -86 98 -110 98h-36zM188 311v-211h64
c115 0 138 61 138 106c0 48 -26 105 -136 105h-66z" />
    <glyph glyph-name="afii10020" unicode="&#x413;" horiz-adv-x="444" 
d="M430 700v-100h-242v-600h-108v700h350z" />
    <glyph glyph-name="afii10021" unicode="&#x414;" horiz-adv-x="680" 
d="M150 700h438v-600h78v-258h-100v158h-452v-158h-100v258c50 1 89 40 111 95c17 44 25 97 25 184v321zM258 600v-222c0 -109 -14 -165 -25 -195c-13 -35 -30 -61 -55 -83h302v500h-222z" />
    <glyph glyph-name="afii10022" unicode="&#x415;" horiz-adv-x="518" 
d="M466 700v-100h-278v-168h270v-100h-270v-232h278v-100h-386v700h386z" />
    <glyph glyph-name="afii10024" unicode="&#x416;" horiz-adv-x="888" 
d="M498 700v-286l249 286h130l-288 -321l295 -379h-134l-252 330v-330h-108v330l-252 -330h-134l295 379l-288 321h130l249 -286v286h108z" />
    <glyph glyph-name="afii10025" unicode="&#x417;" horiz-adv-x="594" 
d="M149 543l-71 68c60 71 122 103 212 103c74 0 122 -23 154 -50c46 -39 58 -83 58 -131c0 -83 -48 -126 -86 -148c88 -24 130 -95 130 -178c0 -70 -23 -129 -91 -174c-46 -30 -107 -47 -165 -47c-131 0 -214 65 -264 169l94 49c44 -110 143 -118 179 -118c26 0 63 6 90 23
c42 26 49 64 49 91c0 110 -102 120 -165 120h-63v100h63c74 0 125 39 125 105c0 23 -6 44 -24 61c-25 24 -56 28 -83 28c-40 0 -95 -8 -142 -71z" />
    <glyph glyph-name="afii10026" unicode="&#x418;" horiz-adv-x="740" 
d="M552 0v472l-472 -502v730h108v-472l472 502v-730h-108z" />
    <glyph glyph-name="afii10027" unicode="&#x419;" horiz-adv-x="740" 
d="M552 0v472l-472 -502v730h108v-472l472 502v-730h-108zM197 873l84 37c11 -38 48 -58 89 -58s78 20 89 58l84 -37c-30 -75 -104 -107 -173 -107s-143 32 -173 107z" />
    <glyph glyph-name="afii10028" unicode="&#x41a;" horiz-adv-x="610" 
d="M188 700v-279l270 279h140l-316 -317l318 -383h-142l-270 336v-336h-108v700h108z" />
    <glyph glyph-name="afii10029" unicode="&#x41b;" horiz-adv-x="678" 
d="M151 700h447v-700h-108v600h-231v-349c0 -81 -5 -160 -71 -215c-25 -21 -65 -42 -123 -42c-19 0 -36 2 -51 6v100c8 -2 22 -6 35 -6c24 0 53 10 67 23c34 32 35 111 35 166v417z" />
    <glyph glyph-name="afii10030" unicode="&#x41c;" horiz-adv-x="888" 
d="M170 0h-110l147 752l243 -542l246 542l132 -752h-110l-70 422l-204 -454l-201 455z" />
    <glyph glyph-name="afii10031" unicode="&#x41d;" horiz-adv-x="674" 
d="M188 700v-274h298v274h108v-700h-108v326h-298v-326h-108v700h108z" />
    <glyph glyph-name="afii10032" unicode="&#x41e;" horiz-adv-x="824" 
d="M412 714c209 0 364 -159 364 -365c0 -204 -154 -363 -364 -363s-364 159 -364 363c0 206 155 365 364 365zM412 86c148 0 252 109 252 263c0 155 -104 265 -252 265s-252 -110 -252 -265c0 -154 104 -263 252 -263z" />
    <glyph glyph-name="afii10033" unicode="&#x41f;" horiz-adv-x="674" 
d="M80 700h514v-700h-108v600h-298v-600h-108v700z" />
    <glyph glyph-name="afii10034" unicode="&#x420;" horiz-adv-x="498" 
d="M80 700h154c46 0 100 -3 153 -38c70 -46 87 -118 87 -170c0 -73 -33 -123 -68 -153c-55 -47 -120 -55 -171 -55h-47v-284h-108v700zM188 600v-216h47c47 0 131 11 131 109c0 102 -95 107 -132 107h-46z" />
    <glyph glyph-name="afii10035" unicode="&#x421;" horiz-adv-x="646" 
d="M600 662v-126c-74 72 -151 78 -189 78c-152 0 -251 -113 -251 -267c0 -149 103 -261 251 -261c33 0 110 6 189 81v-128c-22 -14 -87 -53 -192 -53c-60 0 -158 12 -248 97c-68 65 -112 150 -112 264c0 91 28 194 112 274c73 70 157 93 253 93c90 0 144 -23 187 -52z" />
    <glyph glyph-name="afii10036" unicode="&#x422;" horiz-adv-x="448" 
d="M438 600h-160v-600h-108v600h-160v100h428v-100z" />
    <glyph glyph-name="afii10037" unicode="&#x423;" horiz-adv-x="598" 
d="M6 700h130l183 -363l161 363h112l-316 -700h-112l94 209z" />
    <glyph glyph-name="afii10038" unicode="&#x424;" horiz-adv-x="862" 
d="M377 0v99h-18c-219 0 -311 122 -311 273c0 269 266 272 311 272h18v84h108v-84h18c45 0 311 -3 311 -272c0 -151 -92 -273 -311 -273h-18v-99h-108zM377 199v345h-21c-138 0 -200 -77 -200 -172c0 -97 63 -173 200 -173h21zM485 544v-345h21c137 0 200 76 200 173
c0 95 -62 172 -200 172h-21z" />
    <glyph glyph-name="afii10039" unicode="&#x425;" horiz-adv-x="572" 
d="M10 0l220 365l-193 335h120l136 -237l140 237h120l-202 -335l211 -365h-120l-153 268l-159 -268h-120z" />
    <glyph glyph-name="afii10040" unicode="&#x426;" horiz-adv-x="688" 
d="M80 0v700h108v-600h288v600h108v-600h90v-258h-100v158h-494z" />
    <glyph glyph-name="afii10041" unicode="&#x427;" horiz-adv-x="630" 
d="M442 0v287c-60 -5 -93 -8 -135 -8c-98 0 -149 21 -178 44c-66 52 -69 137 -69 170v207h108v-196c0 -30 1 -75 37 -103c24 -19 63 -22 113 -22c54 0 91 3 124 8v313h108v-700h-108z" />
    <glyph glyph-name="afii10042" unicode="&#x428;" horiz-adv-x="976" 
d="M80 0v700h108v-600h246v600h108v-600h246v600h108v-700h-816z" />
    <glyph glyph-name="afii10043" unicode="&#x429;" horiz-adv-x="1000" 
d="M80 0v700h108v-600h246v600h108v-600h246v600h108v-600h90v-258h-100v158h-806z" />
    <glyph glyph-name="afii10044" unicode="&#x42a;" horiz-adv-x="620" 
d="M168 0v600h-158v100h266v-282h78c89 0 144 -28 176 -56c39 -34 66 -91 66 -153c0 -51 -19 -126 -87 -171c-52 -35 -108 -38 -154 -38h-187zM276 318v-218h74c27 0 138 0 138 107c0 32 -11 111 -136 111h-76z" />
    <glyph glyph-name="afii10045" unicode="&#x42b;" horiz-adv-x="768" 
d="M80 0v700h108v-282h78c89 0 144 -28 176 -56c39 -34 66 -91 66 -153c0 -51 -19 -126 -87 -171c-52 -35 -108 -38 -153 -38h-188zM188 318v-218h74c27 0 138 0 138 107c0 32 -11 111 -136 111h-76zM580 700h108v-700h-108v700z" />
    <glyph glyph-name="afii10046" unicode="&#x42c;" horiz-adv-x="532" 
d="M80 0v700h108v-282h78c89 0 144 -28 176 -56c39 -34 66 -91 66 -153c0 -51 -19 -126 -87 -171c-52 -35 -108 -38 -153 -38h-188zM188 318v-218h74c27 0 138 0 138 107c0 32 -11 111 -136 111h-76z" />
    <glyph glyph-name="afii10047" unicode="&#x42d;" horiz-adv-x="648" 
d="M48 536v126c36 24 91 52 203 52c77 0 168 -18 245 -92c60 -58 104 -146 104 -271c0 -117 -40 -204 -104 -268c-46 -46 -126 -97 -248 -97c-108 0 -172 36 -200 53v126c76 -68 146 -79 192 -79c84 0 149 31 189 74c34 37 58 90 61 149h-348v100h345c-8 56 -33 105 -64 138
c-49 51 -112 67 -176 67c-42 0 -118 -8 -199 -78z" />
    <glyph glyph-name="afii10048" unicode="&#x42e;" horiz-adv-x="1044" 
d="M188 422h108c15 98 65 160 90 187c39 42 120 105 256 105c206 0 354 -158 354 -365c0 -205 -148 -363 -354 -363c-161 0 -244 86 -274 123c-39 48 -74 121 -76 213h-104v-322h-108v700h108v-278zM642 86c142 0 242 111 242 264c0 154 -101 264 -242 264
s-242 -110 -242 -264c0 -153 100 -264 242 -264z" />
    <glyph glyph-name="afii10049" unicode="&#x42f;" horiz-adv-x="557" 
d="M20 0l208 292c-35 4 -78 21 -108 47c-49 42 -60 99 -60 149c0 62 19 108 54 146c61 66 139 66 190 66h173v-700h-108v280h-25l-192 -280h-132zM369 600h-53c-48 0 -93 -5 -119 -32c-18 -19 -29 -55 -29 -80c0 -34 13 -66 36 -84c13 -10 40 -24 106 -24h59v220z" />
    <glyph glyph-name="afii10065" unicode="&#x430;" 
d="M388 442h102v-442h-102v46c-18 -21 -58 -60 -134 -60c-135 0 -214 116 -214 235s76 233 215 233c33 0 91 -7 133 -64v52zM270 362c-75 0 -124 -64 -124 -143c0 -75 45 -141 124 -141c78 0 124 61 124 142c0 95 -60 142 -124 142z" />
    <glyph glyph-name="afii10066" unicode="&#x431;" 
d="M397 735h105c-15 -71 -66 -127 -139 -146l-71 -19c-40 -11 -80 -21 -113 -66c-24 -32 -35 -76 -36 -113h1c31 45 97 63 150 63c78 0 127 -34 155 -64c37 -39 63 -97 63 -167c0 -139 -103 -237 -236 -237c-66 0 -124 23 -162 59c-71 67 -74 168 -74 227
c0 126 18 221 66 292c37 55 82 82 133 94l74 18c50 12 74 28 84 59zM276 78c63 0 130 40 130 141c0 103 -68 143 -130 143s-130 -40 -130 -143c0 -101 67 -141 130 -141z" />
    <glyph glyph-name="afii10067" unicode="&#x432;" horiz-adv-x="458" 
d="M62 442h173c34 0 71 -3 101 -26c16 -13 40 -39 40 -85c0 -37 -16 -69 -52 -86c18 -4 43 -14 60 -30c20 -18 34 -45 34 -85c0 -53 -25 -83 -48 -101c-33 -25 -71 -29 -102 -29h-206v442zM164 270h53c13 0 30 2 41 9s20 17 20 36c0 14 -5 25 -18 34c-12 8 -23 9 -34 9h-62
v-88zM164 84h77c16 0 38 2 54 13c12 9 21 24 21 39c0 13 -7 29 -20 38c-16 12 -39 12 -52 12h-80v-102z" />
    <glyph glyph-name="afii10068" unicode="&#x433;" horiz-adv-x="340" 
d="M62 0v442h270v-92h-168v-350h-102z" />
    <glyph glyph-name="afii10069" unicode="&#x434;" horiz-adv-x="510" 
d="M104 442h332v-350h66v-218h-94v126h-310v-126h-94v218c49 4 71 36 82 58c16 33 18 70 18 117v175zM334 92v258h-132v-122c0 -82 -30 -119 -52 -136h184z" />
    <glyph glyph-name="afii10070" unicode="&#x435;" horiz-adv-x="506" 
d="M380 163l86 -48c-14 -26 -34 -54 -58 -75c-54 -48 -125 -54 -154 -54c-102 0 -214 71 -214 232c0 142 83 236 213 236c79 0 136 -34 168 -81c27 -40 41 -102 41 -161v-16h-316c2 -81 65 -118 119 -118c28 0 52 10 70 24c4 3 29 23 45 61zM152 280h205
c-12 51 -52 82 -102 82c-49 0 -90 -33 -103 -82z" />
    <glyph glyph-name="afii10072" unicode="&#x436;" horiz-adv-x="654" 
d="M276 442h102v-164l134 164h124l-172 -202l188 -240h-128l-146 196v-196h-102v196l-146 -196h-128l188 240l-172 202h124l134 -164v164z" />
    <glyph glyph-name="afii10073" unicode="&#x437;" horiz-adv-x="458" 
d="M131 328l-66 58c17 18 38 34 57 44c35 19 70 24 107 24c38 0 80 -5 113 -31c19 -15 44 -43 44 -88c0 -40 -21 -74 -60 -90c19 -4 40 -13 57 -28c16 -14 35 -39 35 -79c0 -41 -19 -87 -62 -117c-30 -21 -71 -35 -127 -35c-38 0 -87 6 -130 37c-24 17 -45 43 -59 68l82 42
c11 -25 28 -39 35 -44c23 -17 45 -19 68 -19c20 0 44 2 62 15c12 8 25 23 25 50c0 21 -8 35 -20 43c-16 11 -38 12 -59 12h-53v84h46c13 0 33 2 44 10c9 6 18 18 18 37c0 22 -12 33 -19 38c-8 5 -21 11 -45 11c-21 0 -39 -3 -59 -14c-16 -8 -26 -18 -34 -28z" />
    <glyph glyph-name="afii10074" unicode="&#x438;" horiz-adv-x="530" 
d="M62 442h102v-251l304 291v-482h-102v257l-304 -291v476z" />
    <glyph glyph-name="afii10075" unicode="&#x439;" horiz-adv-x="530" 
d="M62 442h102v-251l304 291v-482h-102v257l-304 -291v476zM96 664l84 24c15 -54 49 -68 86 -68s71 14 86 68l84 -24c-21 -73 -93 -124 -170 -124s-149 51 -170 124z" />
    <glyph glyph-name="afii10076" unicode="&#x43a;" horiz-adv-x="460" 
d="M62 442h102v-162l149 162h134l-192 -193l203 -249h-130l-164 204v-204h-102v442z" />
    <glyph glyph-name="afii10077" unicode="&#x43b;" horiz-adv-x="490" 
d="M428 442v-442h-102v350h-132v-178c0 -37 -5 -87 -41 -127c-23 -26 -61 -47 -119 -47c-8 0 -16 1 -24 2h-2v92c6 -1 13 -2 19 -2c22 0 42 9 54 22c15 17 15 38 15 55v275h332z" />
    <glyph glyph-name="afii10078" unicode="&#x43c;" horiz-adv-x="608" 
d="M14 0l107 482l183 -336l183 336l107 -482h-104l-45 222l-141 -256l-141 256l-45 -222h-104z" />
    <glyph glyph-name="afii10079" unicode="&#x43d;" horiz-adv-x="512" 
d="M62 0v442h102v-164h184v164h102v-442h-102v186h-184v-186h-102z" />
    <glyph glyph-name="afii10080" unicode="&#x43e;" 
d="M276 454c134 0 236 -98 236 -234c0 -135 -102 -234 -236 -234s-236 99 -236 234c0 136 102 234 236 234zM276 78c63 0 130 40 130 141c0 103 -68 143 -130 143s-130 -40 -130 -143c0 -101 67 -141 130 -141z" />
    <glyph glyph-name="afii10081" unicode="&#x43f;" horiz-adv-x="508" 
d="M62 442h384v-442h-102v350h-180v-350h-102v442z" />
    <glyph glyph-name="afii10082" unicode="&#x440;" 
d="M164 442v-48c42 50 99 60 134 60c115 0 214 -90 214 -232c0 -145 -109 -236 -213 -236c-24 0 -89 8 -135 65v-261h-102v652h102zM283 362c-64 0 -125 -49 -125 -143c0 -75 43 -141 125 -141c77 0 123 64 123 143c0 92 -61 141 -123 141z" />
    <glyph glyph-name="afii10083" unicode="&#x441;" horiz-adv-x="438" 
d="M406 422v-134c-28 46 -77 74 -128 74c-65 0 -132 -49 -132 -142c0 -77 48 -142 131 -142c78 0 117 57 129 75v-134c-45 -26 -87 -33 -122 -33c-75 0 -135 21 -181 68c-46 46 -63 102 -63 164c0 84 34 140 72 176c47 44 100 60 166 60c62 0 100 -15 128 -32z" />
    <glyph glyph-name="afii10084" unicode="&#x442;" horiz-adv-x="378" 
d="M138 0v350h-130v92h362v-92h-130v-350h-102z" />
    <glyph glyph-name="afii10085" unicode="&#x443;" horiz-adv-x="506" 
d="M49 -210l154 292l-197 360h124l130 -249l124 249h116l-335 -652h-116z" />
    <glyph glyph-name="afii10086" unicode="&#x444;" horiz-adv-x="698" 
d="M298 -210v203h-6c-67 0 -127 16 -176 57c-50 42 -74 98 -74 171c0 59 16 121 73 170c61 52 142 58 183 58v251h102v-251c41 0 122 -6 183 -58c57 -49 73 -111 73 -170c0 -73 -24 -129 -74 -171c-49 -41 -109 -57 -176 -57h-6v-203h-102zM298 85v272c-27 0 -68 -5 -95 -23
c-30 -19 -55 -59 -55 -113c0 -55 26 -91 52 -110c24 -16 59 -26 93 -26h5zM400 357v-272h5c34 0 69 10 93 26c26 19 52 55 52 110c0 54 -25 94 -55 113c-27 18 -68 23 -95 23z" />
    <glyph glyph-name="afii10087" unicode="&#x445;" horiz-adv-x="520" 
d="M263 165l-131 -165h-126l195 239l-157 203h122l97 -129l99 129h126l-163 -203l189 -239h-124z" />
    <glyph glyph-name="afii10088" unicode="&#x446;" horiz-adv-x="524" 
d="M62 0v442h102v-350h176v350h102v-350h74v-218h-94v126h-360z" />
    <glyph glyph-name="afii10089" unicode="&#x447;" horiz-adv-x="466" 
d="M302 0v171c-27 -5 -59 -9 -91 -9c-35 0 -80 4 -116 32c-38 30 -43 69 -43 106v142h102v-121c0 -25 4 -48 27 -61c16 -9 41 -10 51 -10c30 0 55 6 70 11v181h102v-442h-102z" />
    <glyph glyph-name="afii10090" unicode="&#x448;" horiz-adv-x="726" 
d="M62 0v442h102v-350h148v350h102v-350h148v350h102v-442h-602z" />
    <glyph glyph-name="afii10091" unicode="&#x449;" horiz-adv-x="746" 
d="M62 0v442h102v-350h148v350h102v-350h148v350h102v-350h74v-218h-94v126h-582z" />
    <glyph glyph-name="afii10092" unicode="&#x44a;" horiz-adv-x="456" 
d="M8 442h196v-157h60c42 0 93 0 134 -45c26 -28 34 -62 34 -96c0 -30 -5 -72 -40 -106c-38 -37 -78 -38 -122 -38h-168v350h-94v92zM204 88h46c16 0 37 0 53 10c20 12 23 31 23 45s-4 32 -22 44c-16 10 -38 10 -53 10h-47v-109z" />
    <glyph glyph-name="afii10093" unicode="&#x44b;" horiz-adv-x="602" 
d="M62 442h102v-157h60c39 0 95 0 135 -45c17 -19 33 -50 33 -96c0 -59 -24 -92 -40 -107c-39 -37 -84 -37 -129 -37h-161v442zM164 88h46c16 0 37 0 53 10c20 12 23 31 23 45s-4 32 -22 44c-16 10 -38 10 -53 10h-47v-109zM438 442h102v-442h-102v442z" />
    <glyph glyph-name="afii10094" unicode="&#x44c;" horiz-adv-x="416" 
d="M62 442h102v-157h60c39 0 95 0 135 -45c17 -19 33 -50 33 -96c0 -59 -24 -92 -40 -107c-39 -37 -84 -37 -129 -37h-161v442zM164 88h46c16 0 37 0 53 10c20 12 23 31 23 45s-4 32 -22 44c-16 10 -38 10 -53 10h-47v-109z" />
    <glyph glyph-name="afii10095" unicode="&#x44d;" horiz-adv-x="446" 
d="M40 333v98c51 21 93 23 120 23c157 0 246 -99 246 -236c0 -135 -97 -232 -234 -232c-74 0 -111 16 -132 26v98c47 -27 101 -31 124 -31c60 0 119 34 130 104h-205v92h201c-14 57 -71 87 -127 87c-37 0 -84 -10 -123 -29z" />
    <glyph glyph-name="afii10096" unicode="&#x44e;" horiz-adv-x="730" 
d="M164 278h71c9 45 30 81 58 110c33 33 86 66 165 66c135 0 232 -100 232 -234c0 -136 -99 -234 -232 -234c-82 0 -136 33 -170 71c-21 24 -49 66 -54 129h-70v-186h-102v442h102v-164zM457 78c63 0 127 40 127 141c0 103 -64 143 -127 143c-65 0 -127 -41 -127 -143
c0 -101 64 -141 127 -141z" />
    <glyph glyph-name="afii10097" unicode="&#x44f;" horiz-adv-x="436" 
d="M8 0l139 175c-24 3 -50 14 -70 32c-33 31 -37 72 -37 93c0 29 5 69 40 102c37 35 83 40 129 40h165v-442h-102v163h-23l-121 -163h-120zM272 247v107h-63c-20 0 -39 -1 -54 -10c-11 -7 -23 -20 -23 -44c0 -25 12 -37 21 -43c11 -7 28 -10 57 -10h62z" />
    <glyph glyph-name="afii10071" unicode="&#x451;" horiz-adv-x="506" 
d="M380 163l86 -48c-14 -26 -34 -54 -58 -75c-54 -48 -125 -54 -154 -54c-102 0 -214 71 -214 232c0 142 83 236 213 236c79 0 136 -34 168 -81c27 -40 41 -102 41 -161v-16h-316c2 -81 65 -118 119 -118c28 0 52 10 70 24c4 3 29 23 45 61zM152 280h205
c-12 51 -52 82 -102 82c-49 0 -90 -33 -103 -82zM104 624c0 36 30 66 66 66s66 -30 66 -66s-30 -66 -66 -66s-66 30 -66 66zM292 624c0 36 30 66 66 66s66 -30 66 -66s-30 -66 -66 -66s-66 30 -66 66z" />
    <glyph glyph-name="afii10099" unicode="&#x452;" horiz-adv-x="504" 
d="M62 0v564h-76v80h76v91h102v-91h210v-80h-210v-160c39 42 84 50 119 50c81 0 119 -42 131 -60c28 -41 28 -90 28 -123v-343c0 -56 -13 -98 -46 -123c-27 -21 -67 -29 -97 -29c-16 0 -36 1 -67 10v88c16 -8 32 -10 46 -10c16 0 38 3 51 23c5 9 11 25 11 63v315
c0 28 0 50 -20 73c-15 18 -34 24 -59 24c-39 0 -64 -20 -76 -38c-19 -28 -21 -72 -21 -111v-213h-102z" />
    <glyph glyph-name="afii10100" unicode="&#x453;" horiz-adv-x="340" 
d="M62 0v442h270v-92h-168v-350h-102zM272 708l94 -48l-164 -152l-56 36z" />
    <glyph glyph-name="afii10101" unicode="&#x454;" horiz-adv-x="446" 
d="M406 425v-109c-33 29 -75 46 -121 46c-58 0 -115 -30 -129 -87h201v-94h-204c9 -69 67 -103 132 -103c63 0 101 29 121 48v-108c-23 -15 -58 -32 -126 -32c-80 0 -139 29 -177 68c-46 46 -63 103 -63 165c0 83 34 139 72 175c51 47 106 60 169 60c57 0 94 -12 125 -29z
" />
    <glyph glyph-name="afii10102" unicode="&#x455;" horiz-adv-x="374" 
d="M320 367l-85 -45c-7 21 -24 40 -49 40c-2 0 -34 0 -34 -29c0 -25 20 -35 59 -53c23 -10 59 -26 84 -45c45 -33 53 -69 53 -99c0 -101 -88 -150 -161 -150c-62 0 -126 35 -153 110l86 39c6 -19 24 -57 73 -57c32 0 49 19 49 48c0 25 -12 39 -46 56c-30 15 -63 27 -88 43
c-34 22 -52 47 -52 97c0 69 45 132 138 132c25 0 91 -5 126 -87z" />
    <glyph glyph-name="afii10103" unicode="&#x456;" horiz-adv-x="226" 
d="M62 442h102v-442h-102v442zM47 624c0 36 30 66 66 66s66 -30 66 -66s-30 -66 -66 -66s-66 30 -66 66z" />
    <glyph glyph-name="afii10104" unicode="&#x457;" horiz-adv-x="252" 
d="M75 442h102v-442h-102v442zM10 608c0 29 21 50 50 50s50 -21 50 -50s-21 -50 -50 -50s-50 21 -50 50zM142 608c0 29 21 50 50 50s50 -21 50 -50s-21 -50 -50 -50s-50 21 -50 50z" />
    <glyph glyph-name="afii10105" unicode="&#x458;" horiz-adv-x="226" 
d="M62 442h102v-652h-102v652zM47 624c0 36 30 66 66 66s66 -30 66 -66s-30 -66 -66 -66s-66 30 -66 66z" />
    <glyph glyph-name="afii10106" unicode="&#x459;" horiz-adv-x="680" 
d="M428 442v-157h60c39 0 95 0 135 -45c17 -19 33 -50 33 -96c0 -59 -24 -92 -40 -107c-39 -37 -84 -37 -129 -37h-161v350h-132v-178c0 -37 -5 -87 -41 -127c-23 -26 -61 -47 -119 -47c-8 0 -16 1 -24 2h-2v92c6 -1 13 -2 19 -2c22 0 42 9 54 22c15 17 15 38 15 55v275h332
zM428 88h46c16 0 37 0 53 10c20 12 23 31 23 45s-4 32 -22 44c-16 10 -38 10 -53 10h-47v-109z" />
    <glyph glyph-name="afii10107" unicode="&#x45a;" horiz-adv-x="702" 
d="M62 0v442h102v-157h184v157h102v-157h60c39 0 95 0 135 -45c17 -19 33 -50 33 -96c0 -59 -24 -92 -40 -107c-39 -37 -84 -37 -129 -37h-161v197h-184v-197h-102zM450 88h46c16 0 37 0 53 10c20 12 23 31 23 45s-4 32 -22 44c-16 10 -38 10 -53 10h-47v-109z" />
    <glyph glyph-name="afii10108" unicode="&#x45b;" horiz-adv-x="504" 
d="M62 0v564h-76v80h76v91h102v-91h210v-80h-210v-160c39 42 84 50 119 50c81 0 119 -42 131 -60c28 -41 28 -90 28 -123v-271h-102v265c0 28 0 50 -20 73c-15 18 -34 24 -59 24c-39 0 -64 -20 -76 -38c-19 -28 -21 -72 -21 -111v-213h-102z" />
    <glyph glyph-name="afii10109" unicode="&#x45c;" horiz-adv-x="460" 
d="M62 442h102v-162l149 162h134l-192 -193l203 -249h-130l-164 204v-204h-102v442zM303 708l94 -48l-164 -152l-56 36z" />
    <glyph glyph-name="afii10110" unicode="&#x45e;" horiz-adv-x="506" 
d="M49 -210l154 292l-197 360h124l130 -249l124 249h116l-335 -652h-116zM342 688l84 -24c-21 -73 -93 -124 -170 -124s-149 51 -170 124l84 24c15 -54 49 -68 86 -68s71 14 86 68z" />
    <glyph glyph-name="afii10193" unicode="&#x45f;" horiz-adv-x="504" 
d="M62 0v442h102v-350h176v350h102v-442h-143v-150h-94v150h-143z" />
    <glyph glyph-name="afii10146" unicode="&#x462;" horiz-adv-x="620" 
d="M168 0v528h-158v100h158v72h108v-72h188v-100h-188v-110h78c89 0 144 -28 176 -56c39 -34 66 -90 66 -154c0 -50 -19 -125 -87 -170c-52 -35 -108 -38 -154 -38h-187zM276 318v-218h74c27 0 138 2 138 107c0 18 -3 111 -136 111h-76z" />
    <glyph glyph-name="afii10194" unicode="&#x463;" horiz-adv-x="456" 
d="M204 285h60c45 0 92 0 133 -45c27 -29 35 -61 35 -96c0 -30 -5 -72 -40 -106c-38 -37 -78 -38 -122 -38h-168v354h-94v88h94v258h102v-258h127v-88h-127v-69zM204 88h46c16 0 37 0 53 10c20 12 23 31 23 45s-4 32 -22 44c-16 10 -38 10 -53 10h-47v-109z" />
    <glyph glyph-name="afii10147" unicode="&#x472;" horiz-adv-x="824" 
d="M412 714c209 0 364 -159 364 -365c0 -204 -154 -363 -364 -363s-364 159 -364 363c0 206 155 365 364 365zM662 302h-500c16 -120 113 -216 250 -216s234 96 250 216zM162 402h500c-17 118 -114 212 -250 212s-233 -94 -250 -212z" />
    <glyph glyph-name="afii10195" unicode="&#x473;" 
d="M276 454c134 0 236 -98 236 -234c0 -135 -102 -234 -236 -234s-236 99 -236 234c0 136 102 234 236 234zM403 182h-254c10 -57 53 -104 127 -104s117 47 127 104zM149 266h254c-11 42 -44 96 -127 96s-116 -54 -127 -96z" />
    <glyph glyph-name="afii10148" unicode="&#x474;" horiz-adv-x="630" 
d="M4 700h116l195 -488l195 488h116l-311 -744z" />
    <glyph glyph-name="afii10196" unicode="&#x475;" horiz-adv-x="470" 
d="M6 442h116l113 -252l113 252h116l-229 -472z" />
    <glyph glyph-name="afii10050" unicode="&#x490;" horiz-adv-x="444" 
d="M80 700h250v158h100v-258h-242v-600h-108v700z" />
    <glyph glyph-name="afii10098" unicode="&#x491;" horiz-adv-x="340" 
d="M62 0v442h176v126h94v-218h-168v-350h-102z" />
    <glyph glyph-name="cyrGebar" unicode="&#x492;" horiz-adv-x="444" 
d="M430 700v-100h-242v-172h156v-90h-156v-338h-108v338h-94v90h94v272h350z" />
    <glyph glyph-name="cyrgebar" unicode="&#x493;" horiz-adv-x="340" 
d="M64 0v176h-74v84h74v182h268v-92h-166v-90h106v-84h-106v-176h-102z" />
    <glyph glyph-name="cyrGehook" unicode="&#x494;" horiz-adv-x="598" 
d="M418 600h-230v-186c41 5 80 7 119 7c38 0 95 -2 148 -33c43 -26 95 -79 95 -189c0 -131 -76 -213 -187 -213c-55 0 -98 13 -134 34l25 98c33 -23 70 -32 106 -32c20 0 82 7 82 110c0 62 -23 90 -55 107s-62 18 -89 18c-35 0 -72 -2 -110 -7v-314h-108v700h338v-100z" />
    <glyph glyph-name="cyrgehook" unicode="&#x495;" horiz-adv-x="456" 
d="M62 0v442h312v-92h-210v-102h32c168 0 220 -110 220 -226c0 -151 -108 -237 -231 -246v92c78 7 125 75 125 151c0 116 -68 137 -114 137h-32v-156h-102z" />
    <glyph glyph-name="cyrZhedesc" unicode="&#x496;" horiz-adv-x="898" 
d="M498 700v-286l249 286h130l-288 -321l217 -279h78v-258h-100v158h-32l-254 330v-330h-108v330l-252 -330h-134l295 379l-288 321h130l249 -286v286h108z" />
    <glyph glyph-name="cyrzhedesc" unicode="&#x497;" horiz-adv-x="660" 
d="M276 442h102v-164l134 164h124l-172 -202l115 -146h73v-220h-94v126h-34l-146 196v-196h-102v196l-146 -196h-128l188 240l-172 202h124l134 -164v164z" />
    <glyph glyph-name="cyrZetail" unicode="&#x498;" horiz-adv-x="594" 
d="M149 543l-71 68c60 71 122 103 212 103c74 0 122 -23 154 -50c46 -39 58 -83 58 -131c0 -83 -48 -126 -86 -148c88 -24 130 -95 130 -178s-33 -136 -91 -174c-41 -28 -84 -37 -108 -41v-182h-100v179c-108 11 -177 75 -221 166l94 49c44 -110 143 -118 179 -118
c26 0 63 6 90 23c42 26 49 64 49 91c0 110 -102 120 -165 120h-63v100h63c74 0 125 39 125 105c0 23 -6 44 -24 61c-25 24 -56 28 -83 28c-40 0 -95 -8 -142 -71z" />
    <glyph glyph-name="cyrzetail" unicode="&#x499;" horiz-adv-x="458" 
d="M131 328l-66 58c17 18 38 34 57 44c35 19 70 24 107 24c38 0 80 -5 113 -31c19 -15 44 -43 44 -88c0 -40 -21 -74 -60 -90c19 -4 40 -13 57 -28c16 -14 35 -39 35 -79c0 -42 -19 -86 -62 -117c-25 -18 -54 -28 -80 -31v-140h-94v140c-41 5 -69 23 -83 33
c-24 18 -45 43 -59 68l82 42c11 -25 28 -39 35 -44c23 -17 45 -19 68 -19c20 0 44 2 62 15c12 8 25 23 25 50c0 21 -8 35 -20 43c-16 11 -38 12 -59 12h-53v84h46c13 0 33 2 44 10c9 6 18 18 18 37c0 22 -12 33 -19 38c-8 5 -21 11 -45 11c-21 0 -39 -3 -59 -14
c-16 -8 -26 -18 -34 -28z" />
    <glyph glyph-name="cyrKadesc" unicode="&#x49a;" horiz-adv-x="615" 
d="M188 700v-279l271 279h140l-316 -317l235 -283h83v-258h-100v158h-42l-271 336v-336h-108v700h108z" />
    <glyph glyph-name="cyrkadesc" unicode="&#x49b;" horiz-adv-x="466" 
d="M62 442h102v-162l149 162h134l-192 -193l129 -157h74v-218h-94v126h-36l-164 204v-204h-102v442z" />
    <glyph glyph-name="cyrKavertbar" unicode="&#x49c;" horiz-adv-x="710" 
d="M188 700v-276h90v146h94v-146l202 276h126l-239 -317l239 -383h-126l-202 328v-157h-94v157h-90v-328h-108v700h108z" />
    <glyph glyph-name="cyrkavertbar" unicode="&#x49d;" horiz-adv-x="548" 
d="M62 442h102v-160h63v105h84v-111l119 166h116l-144 -195l144 -247h-116l-119 205v-122h-84v115h-63v-198h-102v442z" />
    <glyph glyph-name="cyrKaback" unicode="&#x4a0;" horiz-adv-x="732" 
d="M580 700h140l-315 -317l317 -383h-142l-270 336v-336h-108v600h-192v100h300v-279z" />
    <glyph glyph-name="cyrkaback" unicode="&#x4a1;" horiz-adv-x="532" 
d="M8 442h228v-162l149 162h134l-192 -193l203 -249h-130l-164 204v-204h-102v350h-126v92z" />
    <glyph glyph-name="cyrEndesc" unicode="&#x4a2;" horiz-adv-x="698" 
d="M188 700v-274h298v274h108v-600h90v-258h-100v158h-98v326h-298v-326h-108v700h108z" />
    <glyph glyph-name="cyrendesc" unicode="&#x4a3;" horiz-adv-x="532" 
d="M62 0v442h102v-164h184v164h102v-350h74v-218h-94v126h-82v186h-184v-186h-102z" />
    <glyph glyph-name="cyrEnGe" unicode="&#x4a4;" horiz-adv-x="850" 
d="M188 700v-274h298v274h350v-100h-242v-600h-108v326h-298v-326h-108v700h108z" />
    <glyph glyph-name="cyrenge" unicode="&#x4a5;" horiz-adv-x="626" 
d="M62 0v442h102v-164h184v164h270v-92h-168v-350h-102v186h-184v-186h-102z" />
    <glyph glyph-name="cyrEstail" unicode="&#x4aa;" horiz-adv-x="646" 
d="M600 662v-126c-74 72 -151 78 -189 78c-152 0 -251 -113 -251 -267c0 -149 103 -261 251 -261c33 0 110 6 189 81v-128c-48 -30 -92 -42 -147 -49v-180h-100v179c-70 10 -134 38 -193 94c-68 64 -112 150 -112 264c0 91 28 194 112 274c73 70 157 93 253 93
c90 0 144 -23 187 -52z" />
    <glyph glyph-name="cyrestail" unicode="&#x4ab;" horiz-adv-x="438" 
d="M406 422v-134c-28 46 -77 74 -128 74c-65 0 -132 -49 -132 -142c0 -77 48 -142 131 -142c78 0 117 57 129 75v-134c-27 -15 -54 -24 -80 -29v-140h-94v139c-63 9 -104 40 -129 65c-46 46 -63 103 -63 164c0 84 34 140 72 176c47 44 100 60 166 60c62 0 100 -15 128 -32z
" />
    <glyph glyph-name="cyrstraightU" unicode="&#x4ae;" horiz-adv-x="566" 
d="M229 0v302l-229 398h120l163 -282l163 282h120l-229 -398v-302h-108z" />
    <glyph glyph-name="cyrstraightu" unicode="&#x4af;" horiz-adv-x="470" 
d="M6 442h116l113 -249l113 249h116l-178 -367v-285h-102v285z" />
    <glyph glyph-name="cyrstraightUbar" unicode="&#x4b0;" horiz-adv-x="566" 
d="M229 0v212h-200v90h200l-229 398h120l163 -282l163 282h120l-229 -398h200v-90h-200v-212h-108z" />
    <glyph glyph-name="cyrstraightubar" unicode="&#x4b1;" horiz-adv-x="470" 
d="M6 442h116l113 -249l113 249h116l-178 -367v-54h137v-90h-137v-141h-102v141h-137v90h137v54z" />
    <glyph glyph-name="cyrHadesc" unicode="&#x4b2;" horiz-adv-x="598" 
d="M10 0l220 365l-193 335h120l136 -237l140 237h120l-202 -335l155 -265h78v-258h-100v158h-42l-153 268l-159 -268h-120z" />
    <glyph glyph-name="cyrhadesc" unicode="&#x4b3;" horiz-adv-x="522" 
d="M6 0l195 239l-157 203h122l97 -129l99 129h126l-163 -203l116 -147h73v-218h-94v126h-30l-127 165l-131 -165h-126z" />
    <glyph glyph-name="cyrChedesc" unicode="&#x4b6;" horiz-adv-x="654" 
d="M60 700h108v-196c0 -30 1 -75 37 -103c24 -19 63 -22 113 -22c54 0 91 3 124 8v313h108v-600h90v-258h-100v158h-98v287c-60 -5 -93 -8 -135 -8c-98 0 -149 21 -178 44c-66 52 -69 137 -69 170v207z" />
    <glyph glyph-name="cyrchedesc" unicode="&#x4b7;" horiz-adv-x="486" 
d="M52 442h102v-121c0 -25 4 -48 27 -61c16 -9 41 -10 51 -10c30 0 55 6 70 11v181h102v-350h74v-218h-94v126h-82v171c-27 -5 -59 -9 -91 -9c-35 0 -80 4 -116 32c-38 30 -43 69 -43 106v142z" />
    <glyph glyph-name="cyrChevertbar" unicode="&#x4b8;" horiz-adv-x="664" 
d="M476 0v287c-32 -4 -66 -6 -102 -6v-145h-94v145c-32 2 -102 11 -146 42c-66 47 -74 119 -74 170v207h108v-195c0 -31 1 -75 42 -104c20 -14 49 -20 70 -20v154h94v-154c36 0 70 2 102 6v313h108v-700h-108z" />
    <glyph glyph-name="cyrchevertbar" unicode="&#x4b9;" horiz-adv-x="550" 
d="M386 0v169c-24 -4 -48 -7 -72 -8v-93h-84v93c-31 0 -96 6 -130 31c-45 33 -48 82 -48 108v142h102v-121c0 -18 3 -48 34 -61c12 -5 31 -7 42 -7v120h84v-120c25 0 49 3 72 8v181h102v-442h-102z" />
    <glyph glyph-name="cyrH" unicode="&#x4ba;" horiz-adv-x="630" 
d="M188 700v-277c47 5 88 7 135 7c58 0 128 -4 178 -43c66 -52 69 -134 69 -170v-217h-108v206c0 31 -1 74 -37 102c-24 19 -63 22 -112 22c-46 0 -88 -3 -125 -7v-323h-108v700h108z" />
    <glyph glyph-name="cyrh" unicode="&#x4bb;" horiz-adv-x="504" 
d="M62 0v735h102v-331c39 42 84 50 119 50c81 0 119 -42 131 -60c28 -41 28 -90 28 -123v-271h-102v265c0 28 0 50 -20 73c-15 18 -34 24 -59 24c-39 0 -64 -20 -76 -38c-19 -28 -21 -72 -21 -111v-213h-102z" />
    <glyph glyph-name="cyrI" unicode="&#x4c0;" horiz-adv-x="226" 
d="M62 735h102v-735h-102v735z" />
    <glyph glyph-name="cyrZhecyrbreve" unicode="&#x4c1;" horiz-adv-x="888" 
d="M498 700v-286l249 286h130l-288 -321l295 -379h-134l-252 330v-330h-108v330l-252 -330h-134l295 379l-288 321h130l249 -286v286h108zM271 873l84 37c11 -38 48 -58 89 -58s78 20 89 58l84 -37c-27 -63 -86 -107 -173 -107s-146 44 -173 107z" />
    <glyph glyph-name="cyrzhecyrbreve" unicode="&#x4c2;" horiz-adv-x="654" 
d="M276 442h102v-164l134 164h124l-172 -202l188 -240h-128l-146 196v-196h-102v196l-146 -196h-128l188 240l-172 202h124l134 -164v164zM413 688l84 -24c-21 -73 -93 -124 -170 -124s-149 51 -170 124l84 24c15 -54 49 -68 86 -68s71 14 86 68z" />
    <glyph glyph-name="cyrKahook" unicode="&#x4c3;" horiz-adv-x="614" 
d="M188 700v-279l270 279h140l-316 -317l235 -283h83v-172c0 -56 -13 -98 -46 -123c-27 -21 -67 -29 -98 -29c-23 0 -48 4 -72 10v96c20 -7 34 -10 54 -10c18 0 39 3 51 23c5 9 11 25 11 63v42h-42l-270 336v-336h-108v700h108z" />
    <glyph glyph-name="cyrkahook" unicode="&#x4c4;" horiz-adv-x="466" 
d="M62 442h102v-162l149 162h134l-192 -193l129 -157h74v-164c0 -33 -2 -89 -46 -123c-27 -21 -68 -29 -97 -29c-16 0 -36 1 -67 10v88c13 -6 29 -10 52 -10c18 0 40 2 53 23c5 9 11 25 11 63v50h-36l-164 204v-204h-102v442z" />
    <glyph glyph-name="cyrEnhook" unicode="&#x4c7;" horiz-adv-x="674" 
d="M188 700v-274h298v274h108v-772c0 -56 -13 -98 -46 -123c-27 -21 -67 -29 -98 -29c-23 0 -48 4 -72 10v96c18 -7 29 -10 46 -10c18 0 39 3 51 23c5 9 11 25 11 63v368h-298v-326h-108v700h108z" />
    <glyph glyph-name="cyrenhook" unicode="&#x4c8;" horiz-adv-x="512" 
d="M62 0v442h102v-164h184v164h102v-514c0 -56 -13 -98 -46 -123c-27 -21 -67 -29 -97 -29c-16 0 -36 1 -67 10v88c16 -8 32 -10 46 -10c16 0 38 3 51 23c5 9 11 25 11 63v236h-184v-186h-102z" />
    <glyph glyph-name="cyrAcyrbreve" unicode="&#x4d0;" horiz-adv-x="688" 
d="M568 0l-74 170h-297l-77 -170h-116l348 740l332 -740h-116zM240 270h212l-104 236zM181 873l84 37c11 -38 48 -58 89 -58s78 20 89 58l84 -37c-27 -63 -86 -107 -173 -107s-146 44 -173 107z" />
    <glyph glyph-name="cyracyrbreve" unicode="&#x4d1;" 
d="M388 442h102v-442h-102v46c-18 -21 -58 -60 -134 -60c-135 0 -214 116 -214 235s76 233 215 233c33 0 91 -7 133 -64v52zM270 362c-75 0 -124 -64 -124 -143c0 -75 45 -141 124 -141c78 0 124 61 124 142c0 95 -60 142 -124 142zM352 688l84 -24
c-21 -73 -93 -124 -170 -124s-149 51 -170 124l84 24c15 -54 49 -68 86 -68s71 14 86 68z" />
    <glyph glyph-name="cyrAdieresis" unicode="&#x4d2;" horiz-adv-x="688" 
d="M568 0l-74 170h-297l-77 -170h-116l348 740l332 -740h-116zM240 270h212l-104 236zM182 834c0 36 30 66 66 66s66 -30 66 -66s-30 -66 -66 -66s-66 30 -66 66zM390 834c0 36 30 66 66 66s66 -30 66 -66s-30 -66 -66 -66s-66 30 -66 66z" />
    <glyph glyph-name="cyradieresis" unicode="&#x4d3;" 
d="M388 442h102v-442h-102v46c-18 -21 -58 -60 -134 -60c-135 0 -214 116 -214 235s76 233 215 233c33 0 91 -7 133 -64v52zM270 362c-75 0 -124 -64 -124 -143c0 -75 45 -141 124 -141c78 0 124 61 124 142c0 95 -60 142 -124 142zM98 624c0 36 30 66 66 66s66 -30 66 -66
s-30 -66 -66 -66s-66 30 -66 66zM286 624c0 36 30 66 66 66s66 -30 66 -66s-30 -66 -66 -66s-66 30 -66 66z" />
    <glyph glyph-name="cyrAE" unicode="&#x4d4;" horiz-adv-x="978" 
d="M130 0h-130l491 700h435v-100h-278v-168h270v-100h-270v-232h278v-100h-386v168h-293zM540 268v327l-224 -327h224z" />
    <glyph glyph-name="cyrae" unicode="&#x4d5;" horiz-adv-x="794" 
d="M102 345v96l12 2c52 8 76 11 114 11c84 0 127 -23 156 -63c27 29 73 63 158 63c72 0 129 -23 167 -81c28 -43 41 -104 41 -161v-16h-317c2 -74 52 -118 120 -118c26 0 47 5 70 24c17 14 34 35 45 61l86 -49c-14 -26 -34 -54 -58 -75c-55 -49 -125 -53 -149 -53
c-45 0 -113 14 -163 72c-39 -46 -94 -72 -161 -72c-102 0 -183 57 -183 148c0 77 58 150 173 150c35 0 75 -6 117 -29v11c0 28 -10 55 -27 71c-22 21 -55 24 -81 24c-37 0 -79 -5 -120 -16zM333 170c-23 10 -64 26 -105 26c-60 0 -90 -29 -90 -61c0 -31 31 -61 90 -61
c43 0 85 18 116 52c-7 15 -11 29 -11 44zM440 280h205c-12 52 -52 82 -101 82c-41 0 -89 -24 -104 -82z" />
    <glyph glyph-name="cyrIecyrbreve" unicode="&#x4d6;" horiz-adv-x="518" 
d="M466 700v-100h-278v-168h270v-100h-270v-232h278v-100h-386v700h386zM105 873l84 37c11 -38 48 -58 89 -58s78 20 89 58l84 -37c-27 -63 -86 -107 -173 -107s-146 44 -173 107z" />
    <glyph glyph-name="cyriecyrbreve" unicode="&#x4d7;" horiz-adv-x="506" 
d="M380 163l86 -48c-14 -26 -34 -54 -58 -75c-54 -48 -125 -54 -154 -54c-102 0 -214 71 -214 232c0 142 83 236 213 236c79 0 136 -34 168 -81c27 -40 41 -102 41 -161v-16h-316c2 -81 65 -118 119 -118c28 0 52 10 70 24c4 3 29 23 45 61zM152 280h205
c-12 51 -52 82 -102 82c-49 0 -90 -33 -103 -82zM336 688l84 -24c-21 -73 -93 -124 -170 -124s-149 51 -170 124l84 24c15 -54 49 -68 86 -68s71 14 86 68z" />
    <glyph glyph-name="cyrinvE" unicode="&#x4d8;" horiz-adv-x="780" 
d="M154 502l-76 70c23 29 48 53 77 74c39 28 107 68 213 68c95 0 194 -32 265 -107c55 -58 99 -151 99 -258c0 -78 -22 -176 -107 -261c-60 -60 -140 -102 -251 -102c-93 0 -191 32 -260 130c-56 80 -66 159 -66 226v34h572c-11 145 -123 238 -252 238
c-97 0 -169 -51 -214 -112zM612 276h-450c7 -64 37 -104 46 -115c27 -34 79 -75 167 -75c81 0 145 34 184 81c36 43 50 97 53 109z" />
    <glyph glyph-name="cyrinve" unicode="&#x4d9;" horiz-adv-x="508" 
d="M126 298l-82 48c28 49 87 108 203 108c136 0 221 -91 221 -234c0 -164 -110 -234 -215 -234c-57 0 -120 18 -166 81c-40 54 -47 110 -47 161v26h321c-4 67 -51 108 -120 108c-58 0 -94 -29 -115 -64zM354 170h-205c4 -57 46 -92 102 -92c60 0 96 40 103 92z" />
    <glyph glyph-name="cyrinvEdieresis" unicode="&#x4da;" horiz-adv-x="780" 
d="M154 502l-76 70c23 29 48 53 77 74c39 28 107 68 213 68c95 0 194 -32 265 -107c55 -58 99 -151 99 -258c0 -78 -22 -176 -107 -261c-60 -60 -140 -102 -251 -102c-93 0 -191 32 -260 130c-56 80 -66 159 -66 226v34h572c-11 145 -123 238 -252 238
c-97 0 -169 -51 -214 -112zM612 276h-450c7 -64 37 -104 46 -115c27 -34 79 -75 167 -75c81 0 145 34 184 81c36 43 50 97 53 109zM202 834c0 36 30 66 66 66s66 -30 66 -66s-30 -66 -66 -66s-66 30 -66 66zM410 834c0 36 30 66 66 66s66 -30 66 -66s-30 -66 -66 -66
s-66 30 -66 66z" />
    <glyph glyph-name="cyrinvedieresis" unicode="&#x4db;" horiz-adv-x="508" 
d="M126 298l-82 48c28 49 87 108 203 108c136 0 221 -91 221 -234c0 -164 -110 -234 -215 -234c-57 0 -120 18 -166 81c-40 54 -47 110 -47 161v26h321c-4 67 -51 108 -120 108c-58 0 -94 -29 -115 -64zM354 170h-205c4 -57 46 -92 102 -92c60 0 96 40 103 92zM88 624
c0 36 30 66 66 66s66 -30 66 -66s-30 -66 -66 -66s-66 30 -66 66zM276 624c0 36 30 66 66 66s66 -30 66 -66s-30 -66 -66 -66s-66 30 -66 66z" />
    <glyph glyph-name="cyrZhedieresis" unicode="&#x4dc;" horiz-adv-x="888" 
d="M498 700v-286l249 286h130l-288 -321l295 -379h-134l-252 330v-330h-108v330l-252 -330h-134l295 379l-288 321h130l249 -286v286h108zM274 834c0 36 30 66 66 66s66 -30 66 -66s-30 -66 -66 -66s-66 30 -66 66zM482 834c0 36 30 66 66 66s66 -30 66 -66s-30 -66 -66 -66
s-66 30 -66 66z" />
    <glyph glyph-name="cyrzhedieresis" unicode="&#x4dd;" horiz-adv-x="654" 
d="M276 442h102v-164l134 164h124l-172 -202l188 -240h-128l-146 196v-196h-102v196l-146 -196h-128l188 240l-172 202h124l134 -164v164zM168 624c0 36 30 66 66 66s66 -30 66 -66s-30 -66 -66 -66s-66 30 -66 66zM356 624c0 36 30 66 66 66s66 -30 66 -66s-30 -66 -66 -66
s-66 30 -66 66z" />
    <glyph glyph-name="cyrZedieresis" unicode="&#x4de;" horiz-adv-x="594" 
d="M149 543l-71 68c60 71 122 103 212 103c74 0 122 -23 154 -50c46 -39 58 -83 58 -131c0 -83 -48 -126 -86 -148c88 -24 130 -95 130 -178c0 -70 -23 -129 -91 -174c-46 -30 -107 -47 -165 -47c-131 0 -214 65 -264 169l94 49c44 -110 143 -118 179 -118c26 0 63 6 90 23
c42 26 49 64 49 91c0 110 -102 120 -165 120h-63v100h63c74 0 125 39 125 105c0 23 -6 44 -24 61c-25 24 -56 28 -83 28c-40 0 -95 -8 -142 -71zM128 834c0 36 30 66 66 66s66 -30 66 -66s-30 -66 -66 -66s-66 30 -66 66zM336 834c0 36 30 66 66 66s66 -30 66 -66
s-30 -66 -66 -66s-66 30 -66 66z" />
    <glyph glyph-name="cyrzedieresis" unicode="&#x4df;" horiz-adv-x="458" 
d="M131 328l-66 58c17 18 38 34 57 44c35 19 70 24 107 24c38 0 80 -5 113 -31c19 -15 44 -43 44 -88c0 -40 -21 -74 -60 -90c19 -4 40 -13 57 -28c16 -14 35 -39 35 -79c0 -41 -19 -87 -62 -117c-30 -21 -71 -35 -127 -35c-38 0 -87 6 -130 37c-24 17 -45 43 -59 68l82 42
c11 -25 28 -39 35 -44c23 -17 45 -19 68 -19c20 0 44 2 62 15c12 8 25 23 25 50c0 21 -8 35 -20 43c-16 11 -38 12 -59 12h-53v84h46c13 0 33 2 44 10c9 6 18 18 18 37c0 22 -12 33 -19 38c-8 5 -21 11 -45 11c-21 0 -39 -3 -59 -14c-16 -8 -26 -18 -34 -28zM78 624
c0 36 30 66 66 66s66 -30 66 -66s-30 -66 -66 -66s-66 30 -66 66zM266 624c0 36 30 66 66 66s66 -30 66 -66s-30 -66 -66 -66s-66 30 -66 66z" />
    <glyph glyph-name="cyrImacron" unicode="&#x4e2;" horiz-adv-x="740" 
d="M552 0v472l-472 -502v730h108v-472l472 502v-730h-108zM188 770v84h376v-84h-376z" />
    <glyph glyph-name="cyrimacron" unicode="&#x4e3;" horiz-adv-x="530" 
d="M62 442h102v-251l304 291v-482h-102v257l-304 -291v476zM89 542v82h344v-82h-344z" />
    <glyph glyph-name="cyrIdieresis" unicode="&#x4e4;" horiz-adv-x="740" 
d="M552 0v472l-472 -502v730h108v-472l472 502v-730h-108zM202 834c0 36 30 66 66 66s66 -30 66 -66s-30 -66 -66 -66s-66 30 -66 66zM410 834c0 36 30 66 66 66s66 -30 66 -66s-30 -66 -66 -66s-66 30 -66 66z" />
    <glyph glyph-name="cyridieresis" unicode="&#x4e5;" horiz-adv-x="530" 
d="M62 442h102v-251l304 291v-482h-102v257l-304 -291v476zM108 624c0 36 30 66 66 66s66 -30 66 -66s-30 -66 -66 -66s-66 30 -66 66zM296 624c0 36 30 66 66 66s66 -30 66 -66s-30 -66 -66 -66s-66 30 -66 66z" />
    <glyph glyph-name="cyrOdieresis" unicode="&#x4e6;" horiz-adv-x="824" 
d="M412 714c209 0 364 -159 364 -365c0 -204 -154 -363 -364 -363s-364 159 -364 363c0 206 155 365 364 365zM412 86c148 0 252 109 252 263c0 155 -104 265 -252 265s-252 -110 -252 -265c0 -154 104 -263 252 -263zM244 834c0 36 30 66 66 66s66 -30 66 -66
s-30 -66 -66 -66s-66 30 -66 66zM452 834c0 36 30 66 66 66s66 -30 66 -66s-30 -66 -66 -66s-66 30 -66 66z" />
    <glyph glyph-name="cyrodieresis" unicode="&#x4e7;" 
d="M276 454c134 0 236 -98 236 -234c0 -135 -102 -234 -236 -234s-236 99 -236 234c0 136 102 234 236 234zM276 78c63 0 130 40 130 141c0 103 -68 143 -130 143s-130 -40 -130 -143c0 -101 67 -141 130 -141zM118 624c0 36 30 66 66 66s66 -30 66 -66s-30 -66 -66 -66
s-66 30 -66 66zM306 624c0 36 30 66 66 66s66 -30 66 -66s-30 -66 -66 -66s-66 30 -66 66z" />
    <glyph glyph-name="cyrObar" unicode="&#x4e8;" horiz-adv-x="824" 
d="M412 714c209 0 364 -159 364 -365c0 -204 -154 -363 -364 -363s-364 159 -364 363c0 206 155 365 364 365zM662 302h-500c16 -120 113 -216 250 -216s234 96 250 216zM162 402h500c-17 118 -114 212 -250 212s-233 -94 -250 -212z" />
    <glyph glyph-name="cyrobar" unicode="&#x4e9;" 
d="M276 454c134 0 236 -98 236 -234c0 -135 -102 -234 -236 -234s-236 99 -236 234c0 136 102 234 236 234zM403 182h-254c10 -57 53 -104 127 -104s117 47 127 104zM149 266h254c-11 42 -44 96 -127 96s-116 -54 -127 -96z" />
    <glyph glyph-name="cyrObardieresis" unicode="&#x4ea;" horiz-adv-x="824" 
d="M412 714c209 0 364 -159 364 -365c0 -204 -154 -363 -364 -363s-364 159 -364 363c0 206 155 365 364 365zM662 302h-500c16 -120 113 -216 250 -216s234 96 250 216zM162 402h500c-17 118 -114 212 -250 212s-233 -94 -250 -212zM244 834c0 36 30 66 66 66
s66 -30 66 -66s-30 -66 -66 -66s-66 30 -66 66zM452 834c0 36 30 66 66 66s66 -30 66 -66s-30 -66 -66 -66s-66 30 -66 66z" />
    <glyph glyph-name="cyrobardieresis" unicode="&#x4eb;" 
d="M276 454c134 0 236 -98 236 -234c0 -135 -102 -234 -236 -234s-236 99 -236 234c0 136 102 234 236 234zM403 182h-254c10 -57 53 -104 127 -104s117 47 127 104zM149 266h254c-11 42 -44 96 -127 96s-116 -54 -127 -96zM118 624c0 36 30 66 66 66s66 -30 66 -66
s-30 -66 -66 -66s-66 30 -66 66zM306 624c0 36 30 66 66 66s66 -30 66 -66s-30 -66 -66 -66s-66 30 -66 66z" />
    <glyph glyph-name="cyrUmacron" unicode="&#x4ee;" horiz-adv-x="598" 
d="M6 700h130l183 -363l161 363h112l-316 -700h-112l94 209zM118 770v84h376v-84h-376z" />
    <glyph glyph-name="cyrumacron" unicode="&#x4ef;" horiz-adv-x="506" 
d="M49 -210l154 292l-197 360h124l130 -249l124 249h116l-335 -652h-116zM84 542v82h344v-82h-344z" />
    <glyph glyph-name="cyrUdieresis" unicode="&#x4f0;" horiz-adv-x="598" 
d="M6 700h130l183 -363l161 363h112l-316 -700h-112l94 209zM138 834c0 36 30 66 66 66s66 -30 66 -66s-30 -66 -66 -66s-66 30 -66 66zM346 834c0 36 30 66 66 66s66 -30 66 -66s-30 -66 -66 -66s-66 30 -66 66z" />
    <glyph glyph-name="cyrudieresis" unicode="&#x4f1;" horiz-adv-x="506" 
d="M49 -210l154 292l-197 360h124l130 -249l124 249h116l-335 -652h-116zM98 624c0 36 30 66 66 66s66 -30 66 -66s-30 -66 -66 -66s-66 30 -66 66zM286 624c0 36 30 66 66 66s66 -30 66 -66s-30 -66 -66 -66s-66 30 -66 66z" />
    <glyph glyph-name="cyrUdblacute" unicode="&#x4f2;" horiz-adv-x="598" 
d="M6 700h130l183 -363l161 363h112l-316 -700h-112l94 209zM196 762l-46 38l128 150l82 -54zM406 762l-46 38l128 150l82 -54z" />
    <glyph glyph-name="cyrudblacute" unicode="&#x4f3;" horiz-adv-x="506" 
d="M49 -210l154 292l-197 360h124l130 -249l124 249h116l-335 -652h-116zM222 708l86 -48l-152 -152l-44 36zM412 708l86 -48l-152 -152l-44 36z" />
    <glyph glyph-name="cyrChedieresis" unicode="&#x4f4;" horiz-adv-x="630" 
d="M442 0v287c-60 -5 -93 -8 -135 -8c-98 0 -149 21 -178 44c-66 52 -69 137 -69 170v207h108v-196c0 -30 1 -75 37 -103c24 -19 63 -22 113 -22c54 0 91 3 124 8v313h108v-700h-108zM140 834c0 36 30 66 66 66s66 -30 66 -66s-30 -66 -66 -66s-66 30 -66 66zM348 834
c0 36 30 66 66 66s66 -30 66 -66s-30 -66 -66 -66s-66 30 -66 66z" />
    <glyph glyph-name="cyrchedieresis" unicode="&#x4f5;" horiz-adv-x="466" 
d="M302 0v171c-27 -5 -59 -9 -91 -9c-35 0 -80 4 -116 32c-38 30 -43 69 -43 106v142h102v-121c0 -25 4 -48 27 -61c16 -9 41 -10 51 -10c30 0 55 6 70 11v181h102v-442h-102zM73 624c0 36 30 66 66 66s66 -30 66 -66s-30 -66 -66 -66s-66 30 -66 66zM261 624
c0 36 30 66 66 66s66 -30 66 -66s-30 -66 -66 -66s-66 30 -66 66z" />
    <glyph glyph-name="cyrYerudieresis" unicode="&#x4f8;" horiz-adv-x="768" 
d="M80 0v700h108v-282h78c89 0 144 -28 176 -56c39 -34 66 -91 66 -153c0 -51 -19 -126 -87 -171c-52 -35 -108 -38 -153 -38h-188zM188 318v-218h74c27 0 138 0 138 107c0 32 -11 111 -136 111h-76zM580 700h108v-700h-108v700zM214 834c0 36 30 66 66 66s66 -30 66 -66
s-30 -66 -66 -66s-66 30 -66 66zM422 834c0 36 30 66 66 66s66 -30 66 -66s-30 -66 -66 -66s-66 30 -66 66z" />
    <glyph glyph-name="cyryerudieresis" unicode="&#x4f9;" horiz-adv-x="602" 
d="M62 442h102v-157h60c39 0 95 0 135 -45c17 -19 33 -50 33 -96c0 -59 -24 -92 -40 -107c-39 -37 -84 -37 -129 -37h-161v442zM164 88h46c16 0 37 0 53 10c20 12 23 31 23 45s-4 32 -22 44c-16 10 -38 10 -53 10h-47v-109zM438 442h102v-442h-102v442zM138 624
c0 36 30 66 66 66s66 -30 66 -66s-30 -66 -66 -66s-66 30 -66 66zM326 624c0 36 30 66 66 66s66 -30 66 -66s-30 -66 -66 -66s-66 30 -66 66z" />
    <glyph glyph-name="endash" unicode="&#x2013;" horiz-adv-x="604" 
d="M50 176v92h504v-92h-504z" />
    <glyph glyph-name="emdash" unicode="&#x2014;" horiz-adv-x="834" 
d="M50 176v92h734v-92h-734z" />
    <glyph glyph-name="quoteleft" unicode="&#x2018;" horiz-adv-x="300" 
d="M250 700l-106 -264l-94 34l130 260z" />
    <glyph glyph-name="quoteright" unicode="&#x2019;" horiz-adv-x="350" 
d="M50 466l106 264l94 -34l-130 -260z" />
    <glyph glyph-name="quotesinglbase" unicode="&#x201a;" horiz-adv-x="350" 
d="M50 -134l106 264l94 -34l-130 -260z" />
    <glyph glyph-name="quotedblleft" unicode="&#x201c;" horiz-adv-x="480" 
d="M430 700l-108 -264l-90 34l130 260zM248 700l-108 -264l-90 34l130 260z" />
    <glyph glyph-name="quotedblright" unicode="&#x201d;" horiz-adv-x="530" 
d="M50 466l108 264l90 -34l-130 -260zM232 466l108 264l90 -34l-130 -260z" />
    <glyph glyph-name="quotedblbase" unicode="&#x201e;" horiz-adv-x="530" 
d="M50 -134l108 264l90 -34l-130 -260zM232 -134l108 264l90 -34l-130 -260z" />
    <glyph glyph-name="dagger" unicode="&#x2020;" horiz-adv-x="586" 
d="M242 572v163h102v-163h146v-96h-146v-686h-102v686h-146v96h146z" />
    <glyph glyph-name="daggerdbl" unicode="&#x2021;" horiz-adv-x="586" 
d="M242 572v163h102v-163h146v-96h-146v-276h146v-96h-146v-314h-102v314h-146v96h146v276h-146v96h146z" />
    <glyph glyph-name="bullet" unicode="&#x2022;" horiz-adv-x="680" 
d="M194 357c0 80 66 146 146 146s146 -66 146 -146s-66 -146 -146 -146s-146 66 -146 146z" />
    <glyph glyph-name="ellipsis" unicode="&#x2026;" horiz-adv-x="780" 
d="M64 52c0 36 30 66 66 66s66 -30 66 -66s-30 -66 -66 -66s-66 30 -66 66zM324 52c0 36 30 66 66 66s66 -30 66 -66s-30 -66 -66 -66s-66 30 -66 66zM584 52c0 36 30 66 66 66s66 -30 66 -66s-30 -66 -66 -66s-66 30 -66 66z" />
    <glyph glyph-name="perthousand" unicode="&#x2030;" horiz-adv-x="1256" 
d="M198 19l400 693l50 -31l-400 -693zM202 378c-73 0 -169 56 -169 164s96 164 169 164c92 0 169 -75 169 -164s-77 -164 -169 -164zM202 632c-57 0 -87 -52 -87 -90c0 -39 30 -90 87 -90c55 0 87 50 87 90c0 39 -31 90 -87 90zM644 -6c-73 0 -169 56 -169 164
s96 164 169 164c92 0 169 -75 169 -164s-77 -164 -169 -164zM644 248c-57 0 -87 -52 -87 -90c0 -39 30 -90 87 -90c55 0 87 50 87 90c0 39 -31 90 -87 90zM1054 -6c-73 0 -169 56 -169 164s96 164 169 164c92 0 169 -75 169 -164s-77 -164 -169 -164zM1054 248
c-57 0 -87 -52 -87 -90c0 -39 30 -90 87 -90c55 0 87 50 87 90c0 39 -31 90 -87 90z" />
    <glyph glyph-name="guilsinglleft" unicode="&#x2039;" horiz-adv-x="336" 
d="M146 228l136 -176l-70 -50l-172 226l172 226l70 -50z" />
    <glyph glyph-name="guilsinglright" unicode="&#x203a;" horiz-adv-x="336" 
d="M190 228l-136 176l70 50l172 -226l-172 -226l-70 50z" />
    <glyph glyph-name="fraction" unicode="&#x2044;" horiz-adv-x="251" 
d="M-70 18l401 694l50 -30l-401 -694z" />
    <glyph glyph-name="zerosuperior" unicode="&#x2070;" horiz-adv-x="384" 
d="M192 273c-41 0 -74 14 -103 46c-37 41 -58 106 -58 171c0 67 21 130 58 171c29 32 62 46 103 46s74 -14 103 -46c37 -41 58 -104 58 -171c0 -65 -21 -130 -58 -171c-29 -32 -62 -46 -103 -46zM192 638c-19 0 -41 -10 -56 -31c-21 -30 -29 -86 -29 -117
c0 -34 7 -85 29 -116c15 -22 36 -32 56 -32s41 10 56 32c22 31 29 82 29 116c0 31 -8 87 -29 117c-15 21 -37 31 -56 31z" />
    <glyph glyph-name="foursuperior" unicode="&#x2074;" horiz-adv-x="384" 
d="M307 731v-322h45v-69h-45v-60h-76v60h-219zM143 409h88v120z" />
    <glyph glyph-name="fivesuperior" unicode="&#x2075;" horiz-adv-x="384" 
d="M312 700v-69h-132l-18 -64c7 1 14 1 21 1c36 0 73 -11 99 -31c27 -20 50 -55 50 -110c0 -94 -68 -154 -165 -154c-30 0 -100 5 -147 89l58 41c25 -58 73 -61 90 -61c68 0 89 48 89 82c0 36 -23 81 -89 81c-20 0 -54 -4 -80 -36h-28l69 231h183z" />
    <glyph glyph-name="sixsuperior" unicode="&#x2076;" horiz-adv-x="384" 
d="M220 725l64 -45l-93 -134c8 1 15 1 23 1c75 0 130 -51 130 -129c0 -84 -60 -145 -152 -145c-101 0 -152 68 -152 135c0 56 22 90 34 107zM191 480c-50 0 -76 -37 -76 -70c0 -31 25 -70 77 -70s77 39 77 70c0 40 -34 70 -78 70z" />
    <glyph glyph-name="sevensuperior" unicode="&#x2077;" horiz-adv-x="384" 
d="M34 297l204 334h-202v69h334l-265 -434z" />
    <glyph glyph-name="eightsuperior" unicode="&#x2078;" horiz-adv-x="384" 
d="M192 707c86 0 132 -57 132 -119c0 -45 -24 -73 -46 -89c53 -25 58 -80 58 -99c0 -66 -53 -127 -144 -127s-144 61 -144 127c0 19 5 74 58 99c-22 16 -46 44 -46 89c0 62 46 119 132 119zM192 640c-35 0 -61 -21 -61 -55c0 -33 26 -54 61 -54c41 0 61 26 61 54
c0 34 -26 55 -61 55zM192 464c-45 0 -68 -30 -68 -62c0 -29 20 -62 68 -62s68 33 68 62c0 32 -23 62 -68 62z" />
    <glyph glyph-name="ninesuperior" unicode="&#x2079;" horiz-adv-x="384" 
d="M164 255l-64 45l93 134c-6 -1 -11 -1 -17 -1c-67 0 -136 43 -136 128c0 69 43 146 152 146c102 0 152 -67 152 -135c0 -26 -6 -67 -34 -107zM193 501c50 0 76 34 76 69c0 31 -25 70 -77 70s-77 -39 -77 -70c0 -33 25 -69 78 -69z" />
    <glyph glyph-name="zeroinferior" unicode="&#x2080;" horiz-adv-x="384" 
d="M192 -7c-41 0 -74 14 -103 46c-37 41 -58 104 -58 171c0 65 21 130 58 171c29 32 62 46 103 46s74 -14 103 -46c37 -41 58 -106 58 -171c0 -67 -21 -130 -58 -171c-29 -32 -62 -46 -103 -46zM192 358c-20 0 -41 -10 -56 -32c-22 -31 -29 -82 -29 -116
c0 -31 8 -87 29 -117c15 -21 37 -31 56 -31s41 10 56 31c21 30 29 86 29 117c0 34 -7 85 -29 116c-15 22 -36 32 -56 32z" />
    <glyph glyph-name="oneinferior" unicode="&#x2081;" horiz-adv-x="384" 
d="M166 0v351h-82l44 69h116v-420h-78z" />
    <glyph glyph-name="twoinferior" unicode="&#x2082;" horiz-adv-x="384" 
d="M328 69v-69h-304l153 170c13 14 46 55 53 65c19 27 22 50 22 60c0 29 -23 63 -67 63c-39 0 -72 -31 -76 -77h-74c2 22 9 69 39 101c40 43 87 45 108 45c94 0 145 -61 145 -130c0 -24 -7 -50 -31 -89c-7 -11 -22 -33 -58 -74l-58 -65h148z" />
    <glyph glyph-name="threeinferior" unicode="&#x2083;" horiz-adv-x="384" 
d="M119 300h-73c4 43 21 69 24 74c16 24 50 53 115 53c94 0 134 -57 134 -117c0 -41 -21 -74 -55 -89c59 -22 62 -78 62 -95c0 -71 -46 -133 -148 -133c-88 0 -117 47 -134 82c-6 13 -12 27 -12 50h74c3 -43 34 -63 72 -63c51 0 72 30 72 65c0 37 -24 61 -72 61h-25v69h25
c25 0 66 2 66 49c0 36 -24 52 -61 52c-46 0 -61 -31 -64 -58z" />
    <glyph glyph-name="fourinferior" unicode="&#x2084;" horiz-adv-x="384" 
d="M307 451v-322h45v-69h-45v-60h-76v60h-219zM143 129h88v120z" />
    <glyph glyph-name="fiveinferior" unicode="&#x2085;" horiz-adv-x="384" 
d="M312 420v-69h-132l-18 -64c7 1 14 1 21 1c36 0 73 -11 99 -31c27 -20 50 -55 50 -110c0 -94 -68 -154 -165 -154c-30 0 -100 5 -147 89l58 41c13 -34 42 -61 90 -61c68 0 89 48 89 82c0 45 -33 81 -89 81c-47 0 -69 -22 -80 -36h-28l69 231h183z" />
    <glyph glyph-name="sixinferior" unicode="&#x2086;" horiz-adv-x="384" 
d="M220 445l64 -45l-93 -134c8 1 15 1 23 1c74 0 130 -50 130 -130c0 -67 -42 -144 -152 -144c-102 0 -152 67 -152 135c0 54 22 90 34 107zM191 199c-50 0 -76 -34 -76 -69c0 -31 25 -70 77 -70s77 39 77 70c0 33 -25 69 -78 69z" />
    <glyph glyph-name="seveninferior" unicode="&#x2087;" horiz-adv-x="384" 
d="M34 17l204 334h-202v69h334l-265 -435z" />
    <glyph glyph-name="eightinferior" unicode="&#x2088;" horiz-adv-x="384" 
d="M192 427c68 0 132 -43 132 -120c0 -17 -4 -56 -46 -89c49 -21 58 -71 58 -98c0 -65 -50 -127 -144 -127s-144 62 -144 127c0 27 9 77 58 98c-42 33 -46 72 -46 89c0 77 64 120 132 120zM192 360c-41 0 -61 -27 -61 -56c0 -32 25 -53 61 -53c42 0 61 27 61 53
c0 29 -20 56 -61 56zM192 184c-37 0 -68 -25 -68 -62c0 -31 20 -62 68 -62s68 31 68 62c0 37 -31 62 -68 62z" />
    <glyph glyph-name="nineinferior" unicode="&#x2089;" horiz-adv-x="384" 
d="M164 -25l-64 45l93 134c-6 -1 -11 -1 -17 -1c-67 0 -136 43 -136 128s60 146 152 146c84 0 152 -52 152 -135c0 -26 -6 -67 -34 -107zM193 220c50 0 76 37 76 70c0 31 -25 70 -77 70s-77 -39 -77 -70c0 -40 34 -70 78 -70z" />
    <glyph glyph-name="Euro" unicode="&#x20ac;" horiz-adv-x="620" 
d="M574 666l-43 -91c-25 22 -66 45 -138 45c-137 0 -197 -87 -220 -139h315l-30 -70h-304c-2 -15 -4 -30 -4 -45c0 -10 0 -19 1 -29h278l-30 -70h-241c29 -119 130 -186 226 -186c68 0 133 32 180 77v-121c-67 -40 -137 -50 -183 -50c-86 0 -177 31 -236 92
c-68 70 -91 176 -94 188h-61l30 70h29c-1 10 -1 19 -1 29c0 15 1 30 2 45h-60l30 70h44c20 64 56 113 91 146c69 65 149 87 241 87c61 0 120 -11 178 -48z" />
    <glyph glyph-name="afii61352" unicode="&#x2116;" horiz-adv-x="1106" 
d="M188 0h-108v746l465 -506v460h108v-742l-465 506v-464zM895 370c-93 0 -169 77 -169 165c0 91 78 165 169 165c92 0 169 -75 169 -165c0 -87 -75 -165 -169 -165zM895 624c-57 0 -87 -47 -87 -89s30 -89 87 -89c59 0 87 47 87 89s-28 89 -87 89zM747 213v84h296v-84h-296
z" />
    <glyph glyph-name="trademark" unicode="&#x2122;" horiz-adv-x="744" 
d="M250 632h-88v-332h-74v332h-88v68h250v-68zM348 300h-75l86 436l132 -294l134 294l85 -436h-75l-37 218l-107 -224l-107 224z" />
    <glyph glyph-name="partialdiff" unicode="&#x2202;" 
d="M83 620l35 86c76 -8 157 -34 224 -79c58 -39 95 -86 123 -142c32 -64 47 -136 47 -228c0 -53 -5 -113 -39 -169c-35 -58 -96 -102 -196 -102c-142 0 -237 97 -237 234c0 83 33 139 67 173c35 35 87 61 157 61c31 0 81 -7 127 -50h3c-20 71 -69 124 -120 155
c-50 30 -125 54 -191 61zM276 78c78 0 130 55 130 142c0 101 -67 142 -130 142s-130 -41 -130 -142c0 -87 52 -142 130 -142z" />
    <glyph glyph-name="product" unicode="&#x220f;" horiz-adv-x="746" 
d="M38 686v100h670v-100h-84v-848h84v-100h-276v100h84v848h-286v-848h84v-100h-276v100h84v848h-84z" />
    <glyph glyph-name="summation" unicode="&#x2211;" horiz-adv-x="730" 
d="M32 786h628v-256h-100v156h-381l231 -401l-231 -447h389v155h100v-255h-636v48l264 499l-264 454v47z" />
    <glyph glyph-name="minus" unicode="&#x2212;" horiz-adv-x="522" 
d="M33 306v94h456v-94h-456z" />
    <glyph glyph-name="division" unicode="&#x2215;" horiz-adv-x="122" 
d="M-165 18l401 694l51 -30l-401 -694z" />
    <glyph glyph-name="uni2219" unicode="&#x2219;" horiz-adv-x="233" 
d="M34 357c0 45 37 82 82 82s82 -37 82 -82c0 -37 -27 -82 -82 -82s-82 45 -82 82z" />
    <glyph glyph-name="radical" unicode="&#x221a;" horiz-adv-x="660" 
d="M232 500l112 -387l109 716h207v-92h-130l-130 -837h-110l-161 508h-129v92h232z" />
    <glyph glyph-name="infinity" unicode="&#x221e;" horiz-adv-x="702" 
d="M351 289c-24 -33 -81 -98 -170 -98c-96 0 -163 68 -163 165c0 98 68 167 164 167c63 0 127 -35 169 -98c42 63 106 98 169 98c96 0 164 -69 164 -167c0 -97 -67 -165 -163 -165c-89 0 -146 65 -170 98zM402 357c24 -42 66 -74 103 -74c42 0 75 34 75 74
c0 31 -25 74 -75 74c-45 0 -85 -43 -103 -74zM300 357c-18 31 -58 74 -103 74c-50 0 -75 -43 -75 -74c0 -40 33 -74 75 -74c37 0 79 32 103 74z" />
    <glyph glyph-name="integral" unicode="&#x222b;" horiz-adv-x="518" 
d="M75 -251l19 90c22 -11 38 -13 56 -13c11 0 29 1 42 16c11 13 16 36 16 91v657c0 52 1 110 33 149c19 22 59 48 123 48c16 0 49 -2 79 -11l-19 -91c-19 11 -37 14 -56 14c-11 0 -29 -1 -42 -16c-11 -13 -16 -36 -16 -91v-658c0 -51 -1 -110 -33 -148
c-19 -22 -59 -48 -123 -48c-16 0 -49 2 -79 11z" />
    <glyph glyph-name="approxequal" unicode="&#x2248;" horiz-adv-x="524" 
d="M456 530l60 -35c-25 -58 -53 -85 -69 -97c-32 -25 -66 -30 -87 -30c-27 0 -61 9 -118 34c-29 13 -60 28 -91 28c-27 0 -41 -10 -54 -24c-14 -15 -24 -30 -30 -47l-59 38c21 48 40 73 53 87c22 24 51 44 96 44c31 0 60 -11 115 -33c40 -16 64 -29 98 -29c27 0 38 6 52 19
c19 18 30 38 34 45zM456 339l60 -35c-25 -58 -53 -85 -69 -97c-33 -27 -70 -30 -87 -30c-27 0 -61 9 -118 34c-29 13 -60 28 -91 28c-27 0 -41 -10 -54 -24c-14 -15 -24 -30 -30 -47l-59 38c21 48 40 73 53 87c22 24 51 44 96 44c31 0 60 -11 115 -33c40 -16 64 -29 98 -29
c27 0 38 6 52 19c19 18 30 38 34 45z" />
    <glyph glyph-name="notequal" unicode="&#x2260;" horiz-adv-x="522" 
d="M33 400v88h250l55 114h81l-54 -114h124v-88h-166l-39 -82h205v-88h-247l-58 -122h-81l57 122h-127v88h169l39 82h-208z" />
    <glyph glyph-name="lessequal" unicode="&#x2264;" horiz-adv-x="522" 
d="M33 462l456 210v-96l-348 -157l348 -157v-96l-456 210v86zM33 306l456 -210v-96l-456 210v96z" />
    <glyph glyph-name="greaterequal" unicode="&#x2265;" horiz-adv-x="522" 
d="M489 462v-86l-456 -210v96l348 157l-348 157v96zM489 306v-96l-456 -210v96z" />
    <glyph glyph-name="dotmath" unicode="&#x22c5;" horiz-adv-x="233" 
d="M34 357c0 45 37 82 82 82s82 -37 82 -82c0 -37 -27 -82 -82 -82s-82 45 -82 82z" />
    <glyph glyph-name="lozenge" unicode="&#x25ca;" horiz-adv-x="726" 
d="M90 351l273 377l273 -377l-273 -377zM516 351l-153 212l-153 -212l153 -212z" />
    <glyph glyph-name="righthalfblackcircle" unicode="&#x25d7;" horiz-adv-x="698" 
d="M502 725v-10c0 -50 -26 -92 -52 -119c-20 -21 -71 -54 -93 -54c-15 0 -18 11 -18 18c0 58 66 148 163 165zM322 -3l-46 -18c-9 -4 -30 -8 -39 -8c-26 0 -69 15 -117 86c-40 59 -88 156 -88 264c0 154 96 231 196 231c38 0 56 -10 81 -19c10 -4 35 -12 50 -12
c18 0 36 7 45 10c4 1 7 3 10 4c32 12 52 19 87 19c37 0 103 -9 151 -74c-53 -35 -84 -89 -84 -147c0 -57 29 -125 104 -156c-31 -97 -109 -205 -177 -205c-20 0 -35 6 -42 9l-43 17c-8 3 -24 5 -41 5c-18 0 -37 -2 -47 -6z" />
    <glyph glyph-name="Accent" unicode="&#xf401;" horiz-adv-x="2" 
d="M-362 762l-50 40l146 148l90 -62z" />
    <glyph glyph-name="Breve" unicode="&#xf406;" horiz-adv-x="516" 
d="M85 873l84 37c11 -38 48 -58 89 -58s78 20 89 58l84 -37c-27 -63 -86 -107 -173 -107s-146 44 -173 107z" />
    <glyph glyph-name="Cedilla" unicode="&#xf407;" horiz-adv-x="512" 
d="M255 0h66l-32 -60h10c50 0 79 -36 79 -78c0 -69 -64 -112 -127 -112c-25 0 -68 5 -105 30l32 61c19 -12 41 -19 61 -19c40 0 53 23 53 40s-12 34 -45 34c-11 0 -18 -1 -24 -4l-18 13z" />
    <glyph glyph-name="Circumflex" unicode="&#xf408;" horiz-adv-x="512" 
d="M150 762l-68 58l174 142l174 -142l-68 -58l-106 86z" />
    <glyph glyph-name="Commaaccent" unicode="&#xf409;" horiz-adv-x="512" 
d="M162 -274l78 232l100 -36l-104 -224z" />
    <glyph glyph-name="Apostrophe" unicode="&#xf40a;" horiz-adv-x="512" 
d="M130 462l100 268l100 -34l-126 -260z" />
    <glyph glyph-name="Dotaccent" unicode="&#xf40b;" horiz-adv-x="512" 
d="M186 840c0 39 31 70 70 70s70 -31 70 -70s-31 -70 -70 -70s-70 31 -70 70z" />
    <glyph glyph-name="Ring" unicode="&#xf40c;" horiz-adv-x="512" 
d="M154 864c0 56 46 102 102 102s102 -46 102 -102s-46 -102 -102 -102s-102 46 -102 102zM210 864c0 -26 20 -46 46 -46s46 20 46 46s-20 46 -46 46s-46 -20 -46 -46z" />
    <glyph glyph-name="Tilde" unicode="&#xf40d;" horiz-adv-x="512" 
d="M386 906l60 -48c-28 -59 -69 -89 -123 -89c-23 0 -38 5 -57 14c-13 6 -23 12 -44 21c-13 5 -24 9 -38 9c-27 0 -47 -18 -54 -45l-64 44c9 20 23 41 42 57c22 18 48 28 78 28c17 0 35 -4 51 -9c9 -3 22 -8 48 -22c12 -6 24 -13 42 -13c40 0 55 38 59 53z" />
    <glyph glyph-name="Ogonek" unicode="&#xf40e;" horiz-adv-x="512" 
d="M252 0h82c-19 -11 -40 -26 -54 -41c-11 -11 -22 -25 -22 -45c0 -35 35 -35 44 -35c20 0 38 4 52 8v-74c-23 -9 -54 -16 -78 -16c-59 0 -104 37 -104 93c0 25 8 46 27 67c13 14 35 31 53 43z" />
    <glyph glyph-name="Tcedilla" unicode="&#xf43e;" horiz-adv-x="448" 
d="M438 600h-160v-600h-10l-32 -60h10c50 0 79 -36 79 -78c0 -69 -64 -112 -127 -112c-25 0 -68 5 -105 30l32 61c19 -12 41 -19 61 -19c40 0 53 23 53 40s-12 34 -45 34c-11 0 -18 -1 -24 -4l-18 13l50 95h-32v600h-160v100h428v-100z" />
    <glyph glyph-name="tcedilla" unicode="&#xf43f;" horiz-adv-x="252" 
d="M248 350h-78v-350h-10l-32 -60h14c35 0 75 -27 75 -78c0 -56 -52 -102 -120 -102c-38 0 -71 8 -104 30l28 51c22 -15 46 -19 61 -19c40 0 53 24 53 40c0 17 -12 34 -45 34c-11 0 -19 -2 -24 -4l-18 15l50 93h-30v350h-44v92h44v158h102v-158h78v-92z" />
    <glyph glyph-name="Udotaccent" unicode="&#xf47e;" horiz-adv-x="678" 
d="M80 700h108v-422c0 -38 1 -84 21 -121c21 -38 65 -71 130 -71c54 0 104 22 130 71c20 38 21 81 21 121v422h108v-450c0 -56 -12 -123 -65 -182c-37 -41 -98 -82 -194 -82s-157 41 -194 82c-53 59 -65 126 -65 182v450zM272 840c0 39 31 70 70 70s70 -31 70 -70
s-31 -70 -70 -70s-70 31 -70 70z" />
    <glyph glyph-name="udotaccent" unicode="&#xf47f;" horiz-adv-x="502" 
d="M62 442h102v-254c0 -27 0 -56 19 -80c14 -18 36 -30 68 -30s54 12 68 30c19 24 19 53 19 80v254h102v-256c0 -52 -3 -100 -47 -145c-46 -48 -113 -55 -144 -55c-27 0 -93 7 -140 55c-44 45 -47 93 -47 145v256zM182 624c0 36 30 66 66 66s66 -30 66 -66s-30 -66 -66 -66
s-66 30 -66 66z" />
    <glyph glyph-name="Germandbls" unicode="&#xf485;" horiz-adv-x="1024" 
d="M471 595l-86 -50c-7 16 -17 31 -32 44c-22 19 -44 25 -73 25c-56 0 -100 -30 -100 -83c0 -49 42 -73 75 -86l70 -28c129 -52 165 -125 165 -207c0 -132 -92 -224 -226 -224c-68 0 -123 23 -165 71c-24 27 -52 72 -59 136l106 23c2 -48 23 -80 29 -88c0 -1 1 -1 1 -1
c24 -32 55 -42 90 -42c81 0 117 61 117 118c0 70 -57 100 -101 119l-67 29c-71 31 -143 79 -143 177c0 113 96 186 205 186c73 0 114 -25 140 -48c16 -14 37 -37 54 -71zM957 595l-86 -50c-7 16 -17 31 -32 44c-22 19 -44 25 -73 25c-56 0 -100 -30 -100 -83
c0 -49 42 -73 75 -86l70 -28c129 -52 165 -125 165 -207c0 -132 -92 -224 -226 -224c-68 0 -123 23 -165 71c-24 27 -52 72 -59 136l106 23c2 -48 23 -80 29 -88c0 -1 1 -1 1 -1c24 -32 55 -42 90 -42c81 0 117 61 117 118c0 70 -57 100 -101 119l-67 29
c-71 31 -143 79 -143 177c0 113 96 186 205 186c73 0 114 -25 140 -48c16 -14 37 -37 54 -71z" />
    <glyph glyph-name="cyrChehook" unicode="&#xf4c6;" horiz-adv-x="630" 
d="M60 700h108v-196c0 -30 1 -75 37 -103c24 -19 63 -22 113 -22c54 0 91 3 124 8v313h108v-772c0 -56 -13 -98 -46 -123c-27 -21 -67 -29 -98 -29c-23 0 -48 4 -72 10v96c18 -7 29 -10 46 -10c18 0 39 3 51 23c5 9 11 25 11 63v329c-60 -5 -93 -8 -135 -8
c-98 0 -149 21 -178 44c-66 52 -69 137 -69 170v207z" />
    <glyph glyph-name="cyrchehook" unicode="&#xf4c7;" horiz-adv-x="466" 
d="M52 442h102v-121c0 -25 4 -48 27 -61c16 -9 41 -10 51 -10c30 0 55 6 70 11v181h102v-514c0 -56 -13 -98 -46 -123c-27 -21 -67 -29 -97 -29c-16 0 -36 1 -67 10v88c16 -8 32 -10 46 -10c16 0 38 3 51 23c5 9 11 25 11 63v221c-27 -5 -59 -9 -91 -9c-35 0 -80 4 -116 32
c-38 30 -43 69 -43 106v142z" />
    <glyph glyph-name="cyrEscedilla" unicode="&#xf4c8;" horiz-adv-x="646" 
d="M600 662v-126c-74 72 -151 78 -189 78c-152 0 -251 -113 -251 -267c0 -149 103 -261 251 -261c33 0 110 6 189 81v-128c-43 -27 -89 -43 -169 -52l-25 -47h10c50 0 79 -36 79 -78c0 -69 -64 -112 -127 -112c-25 0 -68 5 -105 30l32 61c19 -12 41 -19 61 -19
c40 0 53 23 53 40s-12 34 -45 34c-11 0 -18 -1 -24 -4l-18 13l44 83c-83 9 -149 41 -206 95c-68 65 -112 150 -112 264c0 91 28 194 112 274c73 70 157 93 253 93c90 0 144 -23 187 -52z" />
    <glyph glyph-name="cyrescedilla" unicode="&#xf4c9;" horiz-adv-x="438" 
d="M406 422v-134c-28 46 -77 74 -128 74c-65 0 -132 -49 -132 -142c0 -77 48 -142 131 -142c78 0 117 57 129 75v-134c-28 -16 -65 -30 -113 -33l-25 -46h14c35 0 75 -27 75 -78c0 -56 -52 -102 -120 -102c-38 0 -71 8 -104 30l28 51c22 -15 46 -19 61 -19c40 0 53 24 53 40
c0 17 -12 34 -45 34c-11 0 -19 -2 -24 -4l-18 15l44 82c-63 9 -104 40 -129 65c-46 46 -63 103 -63 164c0 84 34 140 72 176c47 44 100 60 166 60c62 0 100 -15 128 -32z" />
    <glyph glyph-name="cyrUacute" unicode="&#xf4cc;" horiz-adv-x="598" 
d="M6 700h130l183 -363l161 363h112l-316 -700h-112l94 209zM276 762l-50 40l146 148l90 -62z" />
    <glyph glyph-name="cyruacute" unicode="&#xf4cd;" horiz-adv-x="506" 
d="M49 -210l154 292l-197 360h124l130 -249l124 249h116l-335 -652h-116zM323 708l94 -48l-164 -152l-56 36z" />
    <glyph glyph-name="uniF639" unicode="&#xf639;" horiz-adv-x="556" 
d="M278 -14c-63 0 -113 25 -158 76c-76 86 -91 193 -91 287c0 93 15 203 91 289c44 51 95 76 158 76s114 -25 158 -76c76 -86 91 -196 91 -289c0 -94 -15 -201 -91 -287c-45 -51 -95 -76 -158 -76zM278 618c-42 0 -71 -23 -94 -58c-45 -68 -49 -163 -49 -209
c0 -47 4 -142 49 -211c23 -35 52 -58 94 -58s71 23 94 58c45 69 49 164 49 211c0 46 -4 141 -49 209c-23 35 -52 58 -94 58z" />
    <glyph glyph-name="uniF63A" unicode="&#xf63a;" horiz-adv-x="526" 
d="M494 96v-96h-470l248 299c28 34 57 69 80 104c14 21 34 53 34 99c0 60 -41 116 -115 116c-64 0 -120 -48 -123 -128h-104c3 60 25 113 59 153c40 47 93 71 167 71c146 0 222 -100 222 -213c0 -54 -18 -99 -50 -147c-25 -39 -58 -76 -100 -126l-112 -132h264z" />
    <glyph glyph-name="uniF63B" unicode="&#xf63b;" horiz-adv-x="503" 
d="M149 523h-104c5 58 23 92 35 110c43 64 116 81 172 81c130 0 208 -82 208 -196c0 -83 -45 -127 -77 -149c65 -33 89 -95 89 -160c0 -87 -46 -223 -228 -223c-126 0 -181 69 -203 125c-9 24 -15 53 -17 78h104c5 -59 49 -107 118 -107c71 0 120 50 120 128
c0 63 -42 114 -120 114h-21v92h21c37 0 110 7 110 95c0 67 -41 107 -105 107c-57 0 -98 -34 -102 -95z" />
    <glyph glyph-name="uniF63C" unicode="&#xf63c;" horiz-adv-x="550" 
d="M450 750v-554h74v-96h-74v-100h-102v100h-346zM188 196h160v236z" />
    <glyph glyph-name="uniF63D" unicode="&#xf63d;" horiz-adv-x="529" 
d="M488 700v-96h-218l-33 -119c11 1 21 2 32 2c32 0 96 -6 151 -53c29 -25 79 -82 79 -190c0 -124 -77 -258 -262 -258c-43 0 -149 6 -220 133l80 67c16 -38 58 -104 147 -104c101 0 149 73 149 156c0 88 -53 153 -142 153c-44 0 -94 -14 -127 -61h-36l110 370h290z" />
    <glyph glyph-name="uniF63E" unicode="&#xf63e;" horiz-adv-x="509" 
d="M328 724l77 -58l-167 -225c12 2 23 3 35 3c100 0 212 -67 212 -223c0 -131 -87 -235 -233 -235c-132 0 -237 89 -237 228c0 66 26 118 69 177zM249 348c-75 0 -128 -54 -128 -133c0 -77 53 -133 129 -133s129 56 129 133c0 78 -52 133 -130 133z" />
    <glyph glyph-name="uniF63F" unicode="&#xf63f;" horiz-adv-x="556" 
d="M31 28l348 576h-344v96h518l-438 -724z" />
    <glyph glyph-name="uniF640" unicode="&#xf640;" horiz-adv-x="502" 
d="M124 364c-50 35 -77 86 -77 149c0 125 93 201 204 201s204 -76 204 -201c0 -63 -27 -114 -77 -149c60 -31 94 -89 94 -165c0 -136 -104 -213 -221 -213s-221 77 -221 213c0 76 34 134 94 165zM251 618c-62 0 -106 -42 -106 -106c0 -73 59 -105 106 -105s106 32 106 105
c0 64 -44 106 -106 106zM251 317c-56 0 -115 -39 -115 -116c0 -70 47 -119 115 -119s115 49 115 119c0 77 -59 116 -115 116z" />
    <glyph glyph-name="uniF641" unicode="&#xf641;" horiz-adv-x="509" 
d="M181 -24l-77 58l167 225c-10 -2 -21 -3 -31 -3c-102 0 -216 75 -216 224c0 129 88 234 236 234c155 0 234 -115 234 -228c0 -66 -26 -118 -69 -177zM261 352c74 0 127 53 127 133c0 77 -53 133 -129 133s-129 -56 -129 -133c0 -78 52 -133 131 -133z" />
    <glyph glyph-name="commaaccent" unicode="&#xf6c3;" horiz-adv-x="512" 
d="M162 -272l86 230l92 -36l-108 -224z" />
    <glyph glyph-name="Acute" unicode="&#xf6c9;" horiz-adv-x="512" 
d="M236 762l-50 40l146 148l90 -62z" />
    <glyph glyph-name="Caron" unicode="&#xf6ca;" horiz-adv-x="512" 
d="M362 962l68 -58l-174 -142l-174 142l68 58l106 -86z" />
    <glyph glyph-name="Dieresis" unicode="&#xf6cb;" horiz-adv-x="516" 
d="M88 834c0 36 30 66 66 66s66 -30 66 -66s-30 -66 -66 -66s-66 30 -66 66zM296 834c0 36 30 66 66 66s66 -30 66 -66s-30 -66 -66 -66s-66 30 -66 66z" />
    <glyph glyph-name="Grave" unicode="&#xf6ce;" horiz-adv-x="512" 
d="M276 762l-186 126l90 62l146 -148z" />
    <glyph glyph-name="Hungarumlaut" unicode="&#xf6cf;" horiz-adv-x="512" 
d="M152 762l-46 38l128 150l82 -54zM362 762l-46 38l128 150l82 -54z" />
    <glyph glyph-name="Macron" unicode="&#xf6d0;" horiz-adv-x="512" 
d="M68 770v84h376v-84h-376z" />
    <glyph glyph-name="cyrBreve" unicode="&#xf6d1;" horiz-adv-x="516" 
d="M85 873l84 37c11 -38 48 -58 89 -58s78 20 89 58l84 -37c-27 -63 -86 -107 -173 -107s-146 44 -173 107z" />
    <glyph glyph-name="cyrbreve" unicode="&#xf6d4;" horiz-adv-x="512" 
d="M342 688l84 -24c-21 -73 -93 -124 -170 -124s-149 51 -170 124l84 24c15 -54 49 -68 86 -68s71 14 86 68z" />
    <glyph glyph-name="uniF6DC" unicode="&#xf6dc;" horiz-adv-x="276" 
d="M126 0v602h-120l58 98h170v-700h-108z" />
    <glyph glyph-name="mu1" horiz-adv-x="544" 
d="M164 -180h-102v622h102v-215c0 -29 1 -61 19 -96c22 -42 57 -53 88 -53c54 0 77 37 87 54c18 31 22 56 22 101v209h102v-442h-102v77c-19 -67 -77 -91 -112 -91c-36 0 -83 24 -104 74v-240z" />
    <glyph glyph-name="cyrtcedilla" horiz-adv-x="378" 
d="M168 0h-30v350h-130v92h362v-92h-130v-350h-10l-32 -60h14c35 0 75 -27 75 -78c0 -56 -52 -102 -120 -102c-38 0 -71 8 -104 30l28 51c22 -15 46 -19 61 -19c40 0 53 24 53 40c0 17 -12 34 -45 34c-11 0 -19 -2 -24 -4l-18 15z" />
    <glyph glyph-name="cyrTcedilla" horiz-adv-x="448" 
d="M438 600h-160v-600h-10l-32 -60h10c50 0 79 -36 79 -78c0 -69 -64 -112 -127 -112c-25 0 -68 5 -105 30l32 61c19 -12 41 -19 61 -19c40 0 53 23 53 40s-12 34 -45 34c-11 0 -18 -1 -24 -4l-18 13l50 95h-32v600h-160v100h428v-100z" />
    <glyph glyph-name="dollar.fitted" horiz-adv-x="483" 
d="M446 595l-86 -50c-7 16 -17 31 -32 44c-22 18 -44 25 -75 25c-54 0 -98 -28 -98 -84c0 -25 9 -59 75 -85l70 -28c141 -56 165 -140 165 -206c0 -116 -75 -201 -176 -220v-96h-78v92c-49 5 -96 24 -137 70c-24 27 -52 72 -59 136l106 23c2 -48 23 -80 29 -88
c0 -1 1 -1 1 -1c24 -31 55 -42 91 -42c77 0 115 62 115 118c0 70 -56 100 -100 119l-67 29c-72 31 -143 79 -143 177c0 93 70 169 164 181v90h78v-89c45 -7 73 -18 103 -45c20 -18 40 -42 54 -70z" />
    <glyph glyph-name="dotlessi1" horiz-adv-x="226" 
d="M62 442h102v-442h-102v442z" />
    </font>
</defs>
</svg>
